<svg xmlns="http://www.w3.org/2000/svg">
<defs>
<font id="Euri" horiz-adv-x="833" >
  <font-face 
    font-family="Euri"
    font-weight="400"
    font-stretch="normal"
    units-per-em="1000"
    panose-1="0 0 0 0 0 0 0 0 0 0"
    ascent="750"
    descent="-250"
    x-height="436"
    cap-height="628"
    bbox="-13 -268 907 921"
    underline-thickness="50"
    underline-position="-100"
    unicode-range="U+0020-FB02"
  />
<missing-glyph horiz-adv-x="500" 
 />
    <glyph glyph-name=".notdef" horiz-adv-x="500" 
 />
    <glyph glyph-name=".null" horiz-adv-x="0" 
 />
    <glyph glyph-name="nonmarkingreturn" horiz-adv-x="500" 
 />
    <glyph glyph-name="space" unicode=" " horiz-adv-x="500" 
 />
    <glyph glyph-name="space" unicode="&#xa0;" horiz-adv-x="500" 
 />
    <glyph glyph-name="exclam" unicode="!" horiz-adv-x="253" 
d="M96 617l-10 10zM110 229q-10 53 -10 105v37q-20 55 -20 100v11q0 11 -2.5 31.5t-2.5 30.5v17q0 15 5 32l9 9q19 19 33 0.5t14 -45.5v-13q0 -5 -1 -15t-1 -14v-11q0 -23 13 -93l8 -56q2 -14 2 -27q0 -78 -41 -94zM141 451l-11 10zM90 441l-10 10zM151 390l-10 11zM100 380
l-10 10zM110 239l-10 11zM151 229l-10 10zM120 109l-10 10zM121 110q33 18 55.5 -2t21 -55.5t-26.5 -54.5q-39 -20 -65 5t-15 70q6 24 29 36zM182 110l-10 10zM111 100l-10 10zM192 100l-10 10zM202 89l-10 11zM101 69l-10 10zM202 19l-10 10zM202 9l-10 10zM101 -1l-10 10z
M182 -1l-10 10zM192 -1l-10 10zM162 -1l10 -10z" />
    <glyph glyph-name="quotedbl" unicode="&#x22;" horiz-adv-x="408" 
d="M97 657l-16 16zM120 660q18 -4 30 -18.5t12 -34.5q0 -14 0.5 -49t0.5 -55.5t-2 -48.5t-6 -48q-5 -23 -16.5 -38t-30.5 -11q-18 4 -31 29l-6 12q-15 31 -17.5 86.5t9.5 106t34 66.5zM294 657l-16 16zM295 329q-11 33 -13.5 58t-2.5 74v82q0 21 15 81q10 35 29 35
q9 0 21 -16q16 -16 16 -71v-28q0 -10 0.5 -36t0 -36t-1.5 -31.5t-3.5 -31.5t-7.5 -26t-12 -24.5t-17.5 -17.5t-24.5 -14zM81 609l-16 17zM81 378l-16 17zM164 345l-17 17zM279 362l16 -17zM344 345l17 -16z" />
    <glyph glyph-name="numbersign" unicode="#" horiz-adv-x="640" 
d="M212 590q14 -9 31 -15q-5 2 -11.5 4t-11 4t-8.5 7zM200 581l10 -9zM206 545q0 10 8 20t17 10q10 0 16 -11t6 -26q0 -22 -8.5 -60t-8.5 -58h15q5 0 15 -1t15 -1h15q59 0 76 56q5 17 7 25t9 22t14 20t19 10.5t28 2.5l-38 -135q11 0 44.5 1t48.5 0t39 -4t38 -12t23 -24
q-23 -6 -50 -9t-46.5 -3t-54.5 1t-53 1l-10 -68q11 0 45.5 1t48.5 0t37.5 -4t38 -12t24.5 -24q-37 -13 -99 -13q-17 0 -48.5 2t-47.5 2v-174q0 -19 -10 -31.5t-28 -5.5q-13 0 -13 17q0 6 2 16t2 16v165h-116v-22q0 -8 1 -24t1 -24v-26q0 -62 -13 -99q-13 6 -22 18.5
t-13 26.5t-5.5 35t-1 37t1.5 40.5t1 37.5h-11q-6 0 -20.5 -1t-20.5 -1h-24q-60 0 -60 20q0 11 9 18t26.5 9t31 2.5t35.5 -0.5t27 -1h14v78q-8 0 -38 -3t-42 -3q-65 0 -65 23q0 11 9 18t26.5 9t31 2.5t35.5 -0.5t27 -1h14l5 1q0 75 20 118zM409 573q17 0 28 -10h-7
q-12 0 -16 5zM397 563l10 -10zM436 563l9 -10zM194 544l9 -10zM387 544l10 -10zM252 524l-10 10zM436 534l9 -10zM184 524l10 -9zM242 524l10 -9zM378 524l9 -9zM436 524l9 -9zM232 515l10 -10zM426 515l10 -10zM232 505l10 -10zM426 505l10 -10zM368 476l10 -10zM416 466
l10 -10zM416 456l10 -9zM368 437l-10 10zM407 437l9 -10zM39 427l9 -9zM416 418l-9 9zM29 418l10 -10zM581 418l10 -10zM591 408l9 -10zM29 398l10 -9zM591 379l9 -10zM232 301h107l10 68h-117v-68zM339 340l10 -9zM387 331l10 -10zM387 321l10 -10zM39 301l9 -9zM562 301
l9 -9zM29 292l10 -10zM571 292l10 -10zM29 272l10 -9zM571 263l10 -10zM223 108l9 -10zM223 88l9 -9zM174 79l10 -10zM223 79l9 -10zM184 69l10 -10zM213 69l10 -10zM329 69l10 -10zM329 50l10 -10zM378 40l9 -10z" />
    <glyph glyph-name="dollar" unicode="$" horiz-adv-x="422" 
d="M207 659l-11 11zM217 659l-10 11zM229 659l-12 11zM196 648l-10 11zM112 17q-87 0 -82 68q2 18 14 30t26 -2q8 -10 14 -34h89l-8 -9q0 22 2 44l3 45q1 11 1 23v22q0 21 -5 44q-6 18 -22.5 33t-32.5 23.5t-32.5 23t-22.5 32.5q-12 24 -12.5 49.5t9 48t22 40t27.5 32.5
l44 44q5 6 15.5 23t18 26.5t22.5 16t35 1.5l-11 -55q9 -2 19.5 -7t19 -12t9 -15.5t-10.5 -16.5q-10 -7 -36 -7v-212q49 -7 93.5 -41t60.5 -81t-20 -99q-12 -19 -54.5 -32t-54.5 -22q-9 -8 -26 -45.5t-40 -43.5l-13 67h-13q-5 0 -15.5 -1t-16.5 -1h-16zM232 639l-11 11z
M178 628l-13 11zM232 615l-11 13zM232 605l-11 10zM154 572l-11 12zM266 572l-11 12zM132 561l-11 11zM121 548l-11 13zM288 548l-11 13zM110 538l-11 10zM99 527l-12 11zM288 527l-11 11zM87 516l-11 11zM154 527l11 -11zM244 516l-12 11zM255 516l-11 11zM277 516l-11 11z
M288 516l-11 11zM76 505l-11 11zM165 348q0 15 2 42t2 42q0 47 -14 81q-15 -19 -22 -29.5t-18 -31t-10 -39t13 -35.5q13 -18 47 -30zM66 480l-11 11zM44 468l11 -11zM111 457l11 -11zM100 435l11 -11zM100 379l11 -11zM133 357l-11 11zM44 357l11 -11zM144 357l11 -11z
M111 301l-11 11zM122 301l-11 11zM256 312l11 -11zM133 290l-11 11zM278 301l11 -11zM155 279l-11 11zM300 290l11 -11zM220 91q9 4 21 9l24 9q11 4 24.5 12.5t19.5 15.5q6 9 8 18t-1 17.5t-5.5 15.5t-11.5 15.5t-14 13t-17 12l-16 10t-16.5 10t-13.5 7.5zM231 258l12 -11z
M243 258l11 -11zM254 247l11 -11zM265 247l11 -11zM287 225l-11 11zM365 225l-11 11zM287 225l11 -11zM309 203l-11 11zM376 203l-11 11zM309 203l12 -11zM321 125l-12 12zM19 125l12 -12zM75 113l-11 12zM276 125l11 -12zM376 113l-11 12zM243 113l11 -11zM376 102l-11 11z
M243 91l-12 11zM354 91l11 -11zM354 69l-11 11zM287 69l11 -11zM309 58l-11 11zM276 47l-11 11zM31 35l-12 12zM254 35l-11 12zM265 35l-11 12zM243 24l-12 11zM164 -32l13 -11zM208 -43l12 -11z" />
    <glyph glyph-name="percent" unicode="%" horiz-adv-x="624" 
d="M390 639l-13 13zM403 639l-13 13zM416 639l-13 13zM377 626l-13 13zM422 620q-7 -17 -12.5 -34.5t-9.5 -40t-6 -36.5t-5.5 -44t-4.5 -42q-3 -33 -13 -60q-17 -41 -64.5 -100.5t-63.5 -95.5q-3 -6 -11.5 -25t-12.5 -28.5t-11.5 -24t-14.5 -26.5t-15 -22q-6 -6 -9.5 -9
t-11.5 -9t-13 -7t-14.5 -3t-16.5 3q-12 9 -12 24.5t7 30t20 32t21.5 26.5t17.5 18q17 32 58.5 95.5t58.5 94.5q27 50 33 107l2 39q5 52 19 78q11 40 31 57.5t60 7.5zM422 620l-13 13zM357 607l-13 13zM422 594l-13 13zM73 581l-13 13zM70 581q44 23 70 -5t16 -79
q-12 -52 -47 -70q-26 -14 -42 -9q-24 6 -33.5 31t-5 53.5t17.5 49.5q11 19 27 29h-3zM147 581l-13 13zM341 581l-13 13zM419 581l-13 13zM57 568l-13 13zM406 568l-13 13zM173 555l-13 13zM328 555l-13 13zM406 555l-13 13zM44 543l-13 12zM380 555l13 -12zM380 543l13 -13z
M31 517l-13 13zM173 504l-13 13zM173 491l-13 13zM160 452l-13 13zM147 439l-13 13zM31 426l-13 13zM134 426l-13 13zM121 413l-13 13zM315 400l-13 13zM302 374l-12 13zM380 361l-13 13zM290 348l-13 13zM367 336l-13 12zM277 323l-13 13zM264 310l-13 13zM354 310l-13 13z
M341 297l-13 13zM251 284l-13 13zM238 271l-13 13zM328 271l-13 13zM225 258l-13 13zM315 258l-13 13zM302 245l-12 13zM212 232l-13 13zM290 219l-13 13zM471 219l-13 13zM432 172q4 24 33.5 44t58.5 7q23 -10 37 -31.5t13 -49.5q-1 -26 -32 -42.5t-57 -8.5t-42 29.5
t-11 51.5zM548 219l-13 13zM199 206l-13 13zM277 206l-13 13zM458 206l-13 13zM264 193l-13 13zM445 193l-13 13zM574 193l-13 13zM186 180l-13 13zM264 180l-13 13zM251 167l-13 13zM432 167l-13 13zM173 154l-13 13zM251 154l-13 13zM238 142l-13 12zM160 129l-13 13z
M238 129l-13 13zM225 116l-13 13zM432 116l-13 13zM147 103l-13 13zM225 103l-13 13zM574 103l-13 13zM134 90l-13 13zM212 90l-13 13zM445 90l-13 13zM458 90l-13 13zM561 90l-13 13zM121 77l-13 13zM212 77l-13 13zM108 64l-12 13zM199 64l-13 13zM199 51l-13 13zM96 38
l-13 13zM186 38l-13 13zM173 25l-13 13zM96 12l-13 13zM160 -1l-13 13z" />
    <glyph glyph-name="ampersand" unicode="&#x26;" horiz-adv-x="406" 
d="M134 668l-11 11zM374 273q0 -65 -23 -102.5t-75 -58.5q7 -8 23.5 -20.5t23.5 -19.5l8.5 -8.5l9 -9t7 -8t8 -10.5t6.5 -11q-61 -19 -123 29q-20 16 -58.5 30.5t-71.5 30.5t-50 40q-43 49 -22 109q9 28 29 49t47 28l-2 -6q-3 5 -7.5 15.5t-7.5 15.5l-7 15q-19 37 -19 83
q0 18 5 50t5 50q4 27 20 52.5t36 38.5q27 16 51 11.5t45 -26.5q29 -26 40.5 -68.5t1.5 -94.5q-9 -47 -34.5 -85t-62.5 -54l43 -185q84 14 98 107v11v17v18t0.5 16.5t2 16t4 13t7 12t10.5 6.5q9 0 15 1t9.5 -6.5t5.5 -12t2.5 -15.5t0.5 -18t-0.5 -18t-0.5 -17v-11zM209 662
l-11 11zM121 650l-10 12zM230 650l-11 12zM111 639l-11 11zM100 629l-11 10zM253 629l-11 10zM78 629l11 -11zM264 618l-11 11zM155 379q36 21 50 57t14 95q0 65 -43 65q-22 7 -33.5 -10t-11.5 -44q-10 -55 -5 -90t29 -73zM198 607l11 -11zM132 596l11 -10zM274 586l-10 10z
M209 586l10 -11zM78 520l-10 11zM121 520l11 -11zM121 509l11 -11zM209 443l10 -10zM274 422l-10 11zM121 422l11 -11zM198 422l11 -11zM274 411l-10 11zM78 400l-10 11zM132 411l11 -11zM264 400l-11 11zM176 400l11 -10zM264 390l-11 10zM89 379l-11 11zM143 390l12 -11z
M166 390l10 -11zM253 379l-11 11zM100 356l-11 11zM219 346l-10 10zM209 335l-11 11zM78 324l-10 11zM57 324l11 -11zM45 313l12 -11zM198 292l-11 10zM34 292l11 -11zM111 292l10 -11zM121 292l11 -11zM198 281l-11 11zM100 281l11 -12zM130 280q-55 -32 -36 -74
q7 -18 28 -33.5t44 -22.5zM130 280l11 -12zM32 257l-10 11zM98 257l-11 11zM87 247l-11 10zM87 236l-11 11zM305 225l10 -11zM196 204l11 -11zM305 193l-11 11zM32 182l-10 11zM87 193l11 -11zM153 182l-12 11zM207 193l10 -11zM370 182l-11 11zM98 182l11 -12zM207 182
l10 -12zM283 182l11 -12zM43 159l-11 11zM130 159l-11 11zM153 170l11 -11zM283 159l-11 11zM359 159l-10 11zM43 159l12 -10zM141 149l-11 10zM217 159l11 -10zM240 159l11 -10zM164 138l-11 11zM349 138l-11 11zM66 127l-11 11zM66 138l10 -11zM338 127l-12 11zM87 116
l-11 11zM315 116l-10 11zM326 116l-11 11zM294 106l-11 10zM305 106l-11 10zM119 95l-10 11zM119 106l11 -11zM130 95l11 -12zM141 95l12 -12zM283 95l11 -12zM196 83l11 -11zM294 83l11 -11zM207 72l10 -11zM315 72l11 -11zM349 51l-11 10zM251 40l-11 11zM349 51l10 -11z
M272 29l11 -11zM349 18l10 -10z" />
    <glyph glyph-name="quotesingle" unicode="'" horiz-adv-x="230" 
d="M168 621l-12 12zM181 621l-13 12zM44 385q-8 26 -4.5 54.5t12 51.5t20.5 43q50 83 121 75q-4 -7 -20 -40.5t-25 -50.5l-16 -30q-37 -69 -87 -103h-1zM193 608l-13 13zM118 584l-12 11zM193 584l-13 11zM106 571l-13 13zM180 584l13 -13zM180 559l-13 12zM93 534l-12 12z
M155 546l12 -12zM155 521l-12 13zM81 509l-13 12zM143 521l12 -12zM143 497l-12 12zM68 485l-11 12zM143 485l-12 12zM57 472l-13 13zM131 472l-13 13zM131 459l-13 13zM44 448l-13 11zM118 435l-12 13zM31 422l-12 13zM106 422l-13 13zM31 410l-12 12zM93 410l-12 12z
M31 398l-12 12zM93 398l-12 12zM44 385l-13 13zM57 398l11 -13zM68 398l13 -13z" />
    <glyph glyph-name="parenleft" unicode="(" horiz-adv-x="411" 
d="M182 605l-14 12zM194 605l-12 12zM207 605l-13 12zM168 591l-12 14zM219 590q-74 -188 -114 -401v-29q0 -135 52 -197q26 -21 93 -30.5t86 -15.5q28 -9 47 -42l-2 -5q-31 -11 -84 -11h-28q-62 3 -107 26.5t-70.5 61.5t-38 91t-11.5 111t13 124q10 55 27 102
q5 15 14.5 51.5t15.5 57.5t18.5 46.5t28.5 41.5q22 22 60 18zM217 586l-12 14zM154 574l-12 12zM217 562l-12 12zM217 549l-12 13zM142 537l-13 12zM205 525l-13 12zM129 511l-12 14zM205 511l-13 14zM192 499l-12 12zM117 486l-13 13zM192 486l-12 13zM180 448l-14 14z
M104 399l-13 12zM166 386l-12 13zM91 373l-12 13zM166 373l-12 13zM79 336l-13 12zM154 336l-12 12zM142 323l-13 13zM142 311l-13 12zM66 273l-12 12zM129 260l-12 13zM129 248l-12 12zM54 222l-12 13zM117 185l-13 12zM117 47l-13 12zM54 33l-12 14zM129 21l-12 12zM66 -4
l-12 13zM142 -4l-13 13zM79 -29l-13 13zM142 -29l12 -13zM154 -42l12 -12zM91 -67l-12 13zM180 -54l12 -13zM205 -67l12 -12zM104 -91l-13 12zM368 -91l-13 12zM381 -104l-13 13zM166 -130l-12 13zM180 -130l-14 13zM192 -142l-12 12zM205 -142l-13 12zM381 -142l-13 12z
" />
    <glyph glyph-name="parenright" unicode=")" horiz-adv-x="402" 
d="M37 592l-13 13zM190 -139q12 42 38.5 126t45.5 151.5t31 133.5v29q0 133 -64 200q-18 18 -46 25t-65.5 11.5t-59.5 11.5q-27 9 -46 43l-1 -4q39 14 114 14q123 -5 178 -85t50 -221q-1 -28 -4 -55t-9.5 -59t-10 -48t-13.5 -54.5t-12 -45.5l-6 -24q-7 -28 -12 -44t-14 -39
t-22 -37.5t-29 -22.5q-18 -9 -43 -6zM215 588l-13 13zM227 588l-12 13zM240 576l-13 12zM254 576l-14 12zM36 550l-13 12zM48 537l-12 13zM317 537l-13 13zM202 525l-12 12zM227 512l-12 13zM330 512l-13 13zM240 512l14 -14zM254 498l12 -12zM342 473l-12 13zM279 448
l-13 13zM355 448l-13 13zM291 422l-12 12zM368 409l-13 13zM304 397l-13 12zM304 256l-13 13zM368 218l-13 12zM291 193l-12 12zM291 179l-12 14zM355 166l-13 13zM279 129l-13 12zM279 115l-13 14zM266 102l-12 13zM342 102l-12 13zM254 65l-14 12zM330 65l-13 12zM254 51
l-14 14zM317 38l-13 13zM240 -13l-13 14zM227 -50l-12 12zM304 -50l-13 12zM227 -63l-12 13zM215 -77l-13 14zM291 -77l-12 14zM215 -89l-13 12zM279 -102l-13 13zM202 -114l-12 12zM202 -127l-12 13zM266 -141l-12 14zM202 -153l-12 12zM254 -153l-14 12zM215 -166l-13 13z
M227 -166l-12 13zM240 -166l-13 13z" />
    <glyph glyph-name="asterisk" unicode="*" horiz-adv-x="355" 
d="M238 608l-7 6zM231 601l-6 7zM128 455q-4 -1 -21 -6t-29.5 -7.5t-24.5 -2.5q-13 0 -21 5q-3 1 -4.5 3t-1.5 4t1 3.5t3 4t3 3.5l3.5 3.5l2.5 2.5q35 11 64 11q-20 19 -33 39q-14 19 -18 42q-9 8 -4 21t18 11q9 0 14.5 -13t5.5 -25l21 -27q10 -12 24 -22q0 23 12 38
q8 11 14 -6q5 -15 5 -27v-22l-3 -6q13 13 31.5 51.5t32.5 52.5q13 13 33 10q-7 -21 -23 -55.5t-21 -45.5q16 0 23.5 -4t14.5 -15q-9 -3 -28 -9t-28 -9q10 -8 22.5 -16.5t28 -18t23.5 -14.5q46 -32 59 -63q-37 -2 -82 32l-39 30q-18 14 -39 22q-1 -3 -4 -22q-7 -55 -17 -55
q-5 0 -10 7h-13q-1 -1 -5 -10.5t-5 -11t-4.5 -9.5t-5.5 -10.5t-6 -9t-7 -9.5t-7 -7.5t-8.5 -7.5t-9.5 -6q-1 16 -1.5 24.5t5 22.5t9 20l10.5 18q1 3 2 4l24 42q13 22 14 45zM52 589l-7 6zM222 583l-6 6zM254 576l-7 7zM216 570l-7 6zM77 570l6 -6zM247 564l-6 6zM52 557
l-7 7zM209 557l-6 7zM247 557l-6 7zM203 551l-6 6zM241 551l-6 6zM134 539l-7 6zM235 539l-7 6zM58 532l-6 7zM89 539l7 -7zM197 532l-7 7zM102 526l-6 6zM190 526l-6 6zM228 526l-6 6zM58 526l6 -6zM102 520l-6 6zM228 520l-6 6zM70 513l-6 7zM108 513l-6 7zM222 513l-6 7z
M184 507l-6 6zM77 501l-7 6zM83 494l-6 7zM171 501l7 -7zM235 501l6 -7zM89 488l-6 6zM247 488l-6 6zM96 482l-7 6zM171 482l-6 6zM96 482l6 -7zM77 475l6 -6zM247 469l-6 6zM45 469l7 -6zM228 463l-6 6zM33 456l-7 7zM216 456l-7 7zM26 450l-6 6zM197 456l6 -6zM115 444
l-7 6zM121 444l-6 6zM26 438l-6 6zM89 438l-6 6zM96 438l-7 6zM209 438l-6 6zM58 431l-6 7zM228 431l-6 7zM127 419l-6 6zM171 425l7 -6zM247 425l7 -6zM159 419l6 -7zM184 419l6 -7zM254 419l6 -7zM190 412l7 -6zM203 406l-6 6zM115 406l6 -6zM216 400l-7 6zM260 406l6 -6z
M216 400l6 -7zM222 400l6 -7zM272 393l-6 7zM108 393l7 -6zM228 393l7 -6zM279 393l6 -6zM108 381l-6 6zM235 387l6 -6zM96 381l6 -7zM241 381l6 -7zM298 374l-7 7zM254 368l-7 6zM304 368l-6 6zM96 362l-7 6zM254 368l6 -6zM310 368l7 -6zM89 355l-6 7zM266 362l6 -7z
M323 355l-6 7zM279 349l-7 6zM83 343l-6 6zM159 343l-6 6zM285 343l-6 6zM115 337l-7 6zM298 337l-7 6zM317 337l-7 6zM77 330l-7 7zM108 324l-6 6zM70 318l-6 6zM108 318l-6 6zM102 311l-6 7zM64 299l-6 6zM58 292l-6 7zM89 299l7 -7zM52 292l6 -6zM52 286l6 -6zM83 286
l6 -6zM58 280l6 -7zM70 280l7 -7zM77 280l6 -7z" />
    <glyph glyph-name="plus" unicode="+" horiz-adv-x="385" 
d="M183 493l-9 9zM173 371q0 11 -2 34t-2 35q0 48 22 53q10 2 16 -4.5t8 -22.5t2.5 -27.5t0 -32t-0.5 -22.5v-11q9 0 34 1t35 0t26.5 -4t26 -10.5t16.5 -20.5q-14 -6 -32 -9t-31.5 -3t-38 1t-36.5 1q0 -13 3 -55.5t2 -63.5q-5 -78 -48 -88q-7 28 -7 63t3.5 79t3.5 66h-113
q-26 0 -26 16q0 29 60 29h23q10 0 28.5 -1.5t27.5 -1.5zM43 363l-8 8zM346 363l-9 8zM35 354l-9 9zM354 354l-8 9zM35 337l-9 8zM354 328l-8 9zM173 190l-9 9zM216 164l-9 9zM173 129l-9 9zM199 129l8 -8z" />
    <glyph glyph-name="comma" unicode="," horiz-adv-x="208" 
d="M107 117l-10 10zM88 34q0 32 10 63q0 14 12 20t27 -1q22 -8 30 -27q2 -7 3 -14t0 -14.5t-2 -12.5t-4.5 -13.5t-5 -11.5t-6 -11.5t-5.5 -10.5q-23 -45 -62 -89q-18 -20 -36 -30l2 -1q-8 43 15 88l7 15q7 15 15 33v17zM158 116l-10 10zM99 106l-9 10zM168 106l-10 10z
M178 87l-10 10zM90 57l9 -9zM178 48l-10 9zM90 48l9 -10zM178 38l-10 10zM90 38l9 -10zM168 28l-10 10zM158 18l-10 10zM90 9l-10 9zM148 -1l-9 10zM129 -1l10 -10zM80 -21l-10 10zM70 -31l-10 10zM119 -21l10 -10zM129 -40l-10 9zM60 -50l-9 10zM119 -50l-10 10zM109 -60
l-10 10zM51 -70l-10 10zM109 -70l-10 10zM99 -80l-9 10zM41 -89l-10 9zM99 -89l-9 9zM41 -99l-10 10zM90 -99l-10 10zM41 -109l-10 10zM90 -109l-10 10zM51 -119l-10 10zM70 -119l-10 10zM80 -119l-10 10z" />
    <glyph glyph-name="hyphen" unicode="-" horiz-adv-x="358" 
d="M38 286l7 -8zM335 254q-37 -8 -81 -8h-104q-6 0 -42 -3t-42 2q-8 0 -16 7t-8 16q3 5 8 8t8.5 5t11 2.5t11.5 0.5h14h13h10q15 0 55.5 3t58.5 3q76 0 98 -35zM320 285l8 -8zM35 277l8 -8zM328 277l7 -8zM35 262l8 -8zM328 254l7 -8z" />
    <glyph glyph-name="period" unicode="." horiz-adv-x="184" 
d="M67 128l-13 12zM156 62q0 -42 -25 -61q-41 -23 -71 -1t-30 66q0 43 37 62l1 3q36 17 62 -6t26 -63zM145 131l-13 12zM55 118l-13 13zM158 118l-13 13zM42 105l-13 13zM42 2l-13 13zM158 2l-13 13zM145 -11l-13 13z" />
    <glyph glyph-name="slash" unicode="/" horiz-adv-x="373" 
d="M293 606l-13 13zM36 -3q-3 14 -3 28.5t1.5 25.5t5.5 23.5t7.5 21.5t9 22.5t8.5 21.5q18 48 39 99l35 81q43 100 85 180q3 7 9.5 21.5t12.5 25t13 19.5q17 23 35 33.5t47 5.5q-13 -56 -38 -110t-63.5 -121t-53.5 -97q-44 -85 -63 -161q-22 -96 -82 -115zM275 577l-12 13z
M338 565l-13 12zM325 565l13 -13zM263 540l-13 12zM250 527l-12 13zM325 527l-12 13zM238 515l-13 12zM313 502l-13 13zM300 488l-12 14zM225 476l-13 12zM288 463l-13 13zM212 451l-12 12zM275 438l-12 13zM200 426l-13 12zM263 413l-13 13zM187 400l-12 13zM250 388
l-12 12zM175 363l-13 12zM162 350l-12 13zM238 350l-13 13zM150 325l-14 13zM225 325l-13 13zM212 313l-12 12zM136 287l-13 13zM200 275l-13 12zM123 261l-12 14zM111 249l-13 12zM187 249l-12 12zM98 224l-12 12zM175 224l-13 12zM162 211l-12 13zM86 173l-13 13zM150 161
l-14 12zM73 148l-12 13zM136 136l-13 12zM136 123l-13 13zM61 111l-13 12zM48 98l-12 13zM123 86l-12 12zM123 73l-12 13zM36 60l-13 13zM111 60l-13 13zM98 22l-12 13zM36 9l-13 13zM73 9l13 -12z" />
    <glyph glyph-name="zero" unicode="0" horiz-adv-x="409" 
d="M215 606l-14 14zM348 172v-19q0 -87 -52 -116q-84 -34 -154 -13q-81 22 -101 108q-23 119 22 262q22 71 60.5 127.5t91.5 84.5l-4 -3q49 20 95.5 -7t55.5 -71q13 -72 10 -115.5t-13.5 -119.5t-10.5 -118zM292 603l-13 14zM197 590l-13 13zM320 590l-14 13zM333 577
l-13 13zM184 562l-13 15zM346 562l-13 15zM157 562l14 -13zM360 549l-14 13zM157 536l-14 13zM251 549l15 -13zM143 523l-13 13zM224 508l5 5t4 3.5t2.5 3t1.5 4.5t0.5 5t0.5 7zM284 276q0 42 7 86v42q0 79 -13 132l3 -1q-93 -41 -154 -176q-18 -42 -26.5 -91.5t2.5 -99.5
t47 -69q22 -11 47 -12.5t49 8.5q22 10 33 36q5 33 5 55v90zM132 507l-14 15zM118 481l-13 13zM199 494l14 -13zM186 481l13 -14zM105 453l-14 14zM173 453l13 -13zM91 426l-14 14zM159 440l14 -14zM77 399l-13 14zM145 399l14 -13zM64 359l-13 13zM132 372l13 -13zM118 359
l14 -14zM51 331l-13 14zM118 345l14 -14zM281 345l13 -14zM105 331l13 -13zM105 318l13 -13zM362 290l-14 15zM105 128l13 -13zM118 115l14 -14zM51 88l-13 13zM145 101l14 -13zM253 101l15 -13zM159 88l14 -14zM227 88l13 -14zM348 47l-13 13zM91 34l-14 13zM105 34l-14 13
zM308 34l-14 13zM322 34l-14 13zM281 19l-13 15zM294 19l-13 15zM145 6l-13 13zM159 6l-14 13zM253 6l-13 13zM268 6l-15 13z" />
    <glyph glyph-name="one" unicode="1" horiz-adv-x="341" 
d="M199 551q0 -6 -1 -20t-1 -20v-15q0 -40 9.5 -149.5t4.5 -170.5q-5 -54 -27 -102h40q53 0 89 -46q-44 -17 -118 -20.5t-129 7.5q-44 15 -3 39q33 20 62 20q5 26 9 53l8 54q26 203 -17 326q-9 -26 -21 -37.5t-39 -20.5l-2 2q-8 44 7 82t41 83q7 13 19 24t27 13t27 -15
q15 -15 15 -66v-21zM122 650l12 -12zM110 627l12 -12zM99 603l11 -11zM87 580l12 -12zM75 568l12 -12zM63 545l12 -12zM63 509l-11 12zM134 498l-12 11zM110 486l12 -12zM52 474l11 -11zM99 463l11 -12zM192 451l12 -12zM134 439l11 -11zM134 158l11 -11zM122 123l12 -11z
M192 123l12 -11zM181 88l11 -12zM40 76l12 -11zM286 76l12 -11zM28 65l12 -12zM298 65l11 -12zM28 41l12 -12zM309 18l-11 11z" />
    <glyph glyph-name="two" unicode="2" horiz-adv-x="553" 
d="M232 617l-12 13zM328 8q-77 0 -181 13q-9 0 -27 3l-18 4q-23 5 -39.5 19.5t-10.5 35.5q3 9 8.5 16.5t16 14.5t17 10.5t20.5 10t17 8.5q16 7 30 12q16 9 33 19l38 23q95 58 130 121q21 38 17 82q-11 38 -15.5 54t-17 43.5t-26.5 42.5q-17 18 -39 18q-14 0 -27 -3.5
t-30.5 -11.5t-20.5 -9q-26 -7 -38.5 -1.5t-28.5 24.5l-2 -7q16 8 34 21l33 24q39 28 78 28q52 0 88.5 -30.5t53 -76.5t16.5 -102q0 -54 -13 -93q-9 -45 -32.5 -77t-61.5 -62q-26 -20 -76.5 -53t-72.5 -49q25 0 85 4.5t93 3.5q122 -5 151 -57q-67 -23 -182 -23zM352 610
l-13 13zM207 599l-13 11zM194 587l-13 12zM145 550l-11 13zM243 538l-13 12zM254 538l-11 12zM328 538l-12 12zM134 538l11 -13zM425 525l-13 13zM230 514l-12 11zM352 501l-13 13zM437 429l-12 12zM352 307l-13 13zM437 294l-12 13zM425 283l-13 11zM339 271l-11 12z
M328 258l-12 13zM412 258l-11 13zM316 247l-13 11zM412 247l-11 11zM303 234l-11 13zM401 234l-13 13zM292 222l-13 12zM388 222l-12 12zM218 173l-11 12zM352 173l-13 12zM194 162l-13 11zM339 162l-11 11zM158 149l-13 13zM328 149l-12 13zM145 136l-11 13zM303 136
l-11 13zM121 136l13 -11zM292 125l-13 11zM96 125l13 -12zM254 113l-11 12zM218 113l12 -13zM49 100l11 -11zM194 100l13 -11zM36 89l13 -13zM194 76l-13 13zM486 76l11 -12zM497 64l13 -13zM36 51l13 -11zM96 27l13 -12zM109 27l12 -12zM497 27l13 -12z" />
    <glyph glyph-name="three" unicode="3" horiz-adv-x="544" 
d="M101 629l13 -13zM262 626q10 0 29.5 -1t28.5 -1h26q35 0 65 -25q9 -19 -2 -46q-12 -32 -51.5 -85t-49.5 -71q9 0 19 -1t17.5 -2.5t18 -5t15.5 -5t17 -6t15 -5.5q53 -31 80.5 -83t5.5 -117q-19 -58 -67 -99t-112 -54q-37 -8 -94 12q-21 7 -57 25.5t-45 22.5q-36 16 -56 33
t-27 48q37 4 69 -9q31 -14 63 -30q31 -17 63 -30q31 -14 69 -9q37 9 69.5 33t48.5 55q26 50 0.5 95.5t-76.5 56.5q-18 4 -51 8t-54.5 10.5t-37.5 22.5q29 35 69 113.5t46 88.5h-89l-48 -7q-32 0 -59 18q-31 19 9 34q29 16 103 16h30zM395 622l13 -13zM90 609l13 -12z
M408 609l12 -12zM90 584l13 -13zM318 546l-13 12zM408 558l12 -12zM395 546l13 -13zM293 533l12 -13zM382 533l13 -13zM369 520l13 -13zM280 507l13 -12zM356 495l13 -13zM267 482l13 -11zM344 471l12 -13zM254 458l13 -13zM331 458l13 -13zM318 445l13 -13zM242 432l12 -12
zM318 432l13 -12zM305 420l13 -13zM229 407l13 -13zM318 394l-13 13zM356 394l13 -13zM229 369l-13 12zM395 369l-13 12zM203 369l13 -13zM420 356l-12 13zM446 343l-13 13zM203 343l13 -13zM216 330l13 -13zM267 330l13 -13zM471 317l-12 13zM356 317l13 -12zM382 305
l-13 12zM471 317l13 -12zM395 292l-13 13zM395 305l13 -13zM484 305l13 -13zM408 292l12 -13zM497 266l13 -12zM433 241l13 -13zM433 190l13 -13zM39 164l13 -11zM433 153l-13 11zM116 153l12 -13zM408 153l12 -13zM497 153l13 -13zM141 140l13 -12zM395 140l13 -12zM39 128
l13 -13zM167 128l12 -13zM382 128l13 -13zM484 128l13 -13zM192 115l11 -13zM369 115l13 -13zM471 115l13 -13zM229 102l13 -13zM344 102l12 -13zM459 102l12 -13zM103 77l-13 12zM103 89l13 -12zM242 89l12 -12zM318 89l13 -12zM116 77l12 -13zM433 77l13 -13zM420 64
l13 -13zM179 38l-12 13zM179 51l13 -13zM382 51l13 -13zM395 51l13 -13zM356 38l13 -12zM369 38l13 -12zM216 26l13 -13zM229 26l13 -13zM331 26l13 -13zM356 13l-12 13z" />
    <glyph glyph-name="four" unicode="4" horiz-adv-x="326" 
d="M220 626l-12 12zM246 627q17 -4 27.5 -14.5t14.5 -29.5t5 -33t1 -40v-10v-16q0 -60 -6 -171.5t-6 -170.5v-21q0 -45 -14 -70.5t-46 -38.5q-14 48 -14 104q0 97 24 180l1 -4q-119 0 -166 11q-18 0 -31 16.5t-3 33.5q0 25 32 46l27 18q15 10 23 18q18 25 74 126l10 18
q5 9 10 17l10 16q10 15 27 15zM280 610l-12 12zM292 599l-12 11zM209 587l-12 12zM197 563l-12 12zM185 540l-12 11zM173 516l-11 12zM150 516l12 -12zM221 516l12 -12zM233 492l-12 12zM138 492l12 -12zM209 492l12 -12zM232 348q0 13 2 36t2 36q0 42 -15 72l-72 -134h19
q38 0 64 -10zM208 465l-12 11zM125 465l12 -12zM196 465l12 -12zM196 441l-12 12zM113 441l12 -12zM196 429l-12 12zM113 417l-11 12zM102 406l-12 11zM90 394l-12 12zM184 394l-12 12zM78 382l-12 12zM172 382l-11 12zM31 382l12 -12zM161 370l-12 12zM19 370l12 -12z
M137 370l12 -12zM220 347l-12 11zM19 323l12 -12zM220 288l12 -12zM279 276l12 -12zM220 110l-12 12zM279 40l-12 11zM220 16l-12 12zM255 16l12 -12z" />
    <glyph glyph-name="five" unicode="5" horiz-adv-x="397" 
d="M48 430q0 24 11 63q10 45 47 75t87 43q55 14 95.5 -6.5t56.5 -63.5q-21 -10 -46 -12.5t-44 -0.5t-50 8q-25 5 -50 5l-36 -131q16 0 29.5 -1t28 -4t23 -5.5l25.5 -7.5t25 -7q46 -26 52 -29q23 -11 43 -29q27 -45 27 -93q0 -76 -40 -133.5t-102 -77.5q-95 -31 -171 53
q-20 36 -36 82l1 2q13 4 24.5 3.5t19 -2t17 -7.5t13.5 -9.5t13 -12.5l17 -17q33 -33 62 -37q36 0 63.5 23t43.5 56q15 31 12.5 66.5t-23.5 57.5q-36 33 -116 65q-7 3 -14 5q-24 0 -36.5 1t-27 6.5t-21.5 16.5q-23 15 -23 55zM250 601l-13 11zM333 588l-12 13zM155 494
l-12 12zM60 482l-12 12zM202 399l-12 11zM226 399l11 -13zM262 375l-12 11zM48 375l12 -12zM214 315l-12 13zM226 315l-12 13zM237 304l-11 11zM250 304l-13 11zM357 304l-12 11zM262 291l-12 13zM297 280l-11 11zM368 280l-11 11zM36 160l-12 13zM310 160l-13 13zM368 149
l-11 11zM36 137l-12 12zM297 137l-11 12zM357 149l11 -12zM108 137l11 -12zM345 137l12 -12zM345 125l12 -12zM214 89l12 -11zM333 89l12 -11zM321 78l12 -12zM321 66l12 -12zM297 54l13 -12zM310 54l11 -12zM95 42l13 -13zM286 42l11 -13zM250 29l12 -11z" />
    <glyph glyph-name="six" unicode="6" horiz-adv-x="436" 
d="M179 644l13 -13zM166 631l13 -14zM155 348q33 0 72 -10q49 -11 87 -27q115 -53 87 -188q-5 -10 -11.5 -33.5t-15.5 -37.5t-26 -20q-33 -23 -83 -21t-98 16.5t-71 32.5q-34 20 -52 60.5t-19 88.5t10 103q24 118 78 210l14 24q21 38 48 58t70 13l-146 -277q27 8 56 8z
M238 615l-13 14zM159 603l-13 12zM146 576l-13 14zM238 576l-13 14zM225 563l-13 13zM133 550l-14 13zM212 550l-14 13zM185 550l13 -14zM119 522l-13 14zM198 522l-13 14zM172 522l13 -12zM106 496l-14 14zM185 496l-13 14zM92 483l-12 13zM159 496l13 -13zM172 469l-13 14
zM80 443l-14 13zM159 443l-13 13zM133 443l13 -13zM66 417l-14 13zM146 417l-13 13zM52 404l-13 13zM133 404l-14 13zM133 390l-14 14zM39 364l-13 13zM119 364l-13 13zM92 338h27h-27zM238 338l-13 13zM277 325l-13 13zM318 311l-14 14zM344 298l-13 13zM357 298l14 -14z
M133 284l13 -13zM319 85q0 28 8 67t18 65q-54 37 -114.5 51t-138.5 3l-2 -2q0 -65 9.5 -106.5t40.5 -57.5q6 -3 12.5 -6t12.5 -5t14.5 -3.5t14 -2.5t15.5 -1.5t15 -1t17 -0.5h16h17.5h17.5h27zM196 282l14 -13zM223 269l-13 13zM369 282l13 -13zM236 269l13 -13zM262 256
l-13 13zM395 256l13 -13zM342 190l-13 13zM408 177l-13 13zM395 177l13 -13zM90 150l14 -13zM329 123l-13 14zM24 123l13 -12zM104 123l13 -12zM144 98l-13 13zM37 98l13 -14zM183 84l-13 14zM395 84l-13 14zM382 57l-13 14zM90 43l-12 14zM104 43l-14 14zM382 43l-13 14z
M117 30l-13 13zM131 30l-14 13zM355 30l14 -12z" />
    <glyph glyph-name="seven" unicode="7" horiz-adv-x="497" 
d="M28 622l13 -13zM139 362q64 14 172 14l-24 184h-111l-63 -5q-35 0 -70 16q-37 18 9 33q37 15 110 15h30q10 0 28.5 -1t27.5 -1h24q27 0 40.5 -4.5t21.5 -20.5q35 -35 35 -171v-50q39 0 59.5 -11t38.5 -39q-37 -11 -72 -11h-26q0 -21 4 -66.5t4 -68.5v-32q0 -113 -57 -129
q-15 62 -15 149q0 25 2 74.5t2 74.5q-8 0 -44 -2.5t-54 -0.5q-58 8 -72 53zM335 617l12 -13zM15 604l12 -12zM347 604l12 -12zM15 580l12 -13zM347 531l12 -13zM347 518l12 -12zM286 494l12 -13zM359 457l13 -13zM298 444l12 -12zM138 371l12 -13zM446 371l12 -13zM458 358
l12 -12zM138 334l12 -13zM458 321l12 -12zM310 38l13 -12zM372 14l-13 12z" />
    <glyph glyph-name="eight" unicode="8" horiz-adv-x="478" 
d="M114 610l15 -13zM447 247v-29q0 -51 -13 -90q-25 -45 -66.5 -75t-95.5 -38.5t-114 18.5q-49 22 -84 68q-49 57 -38 153q8 87 51 142l-7 -1q-64 52 -46 109q13 42 52 69.5t91 36.5q36 6 69 -1q46 -15 71.5 -46.5t48 -92t34.5 -82.5q2 -3 8.5 -14.5t8.5 -16t7.5 -15
t7.5 -17t5.5 -17t5 -19t3 -20t1.5 -22.5zM268 609l13 -13zM80 596l14 -14zM281 596l14 -14zM67 582l13 -12zM54 570l13 -14zM295 570l13 -14zM40 556l14 -13zM335 556l13 -13zM122 543l11 -14zM133 543l14 -14zM92 473q71 -14 202 -14q-24 40 -66.5 61t-87.5 -1
q-26 -12 -48 -46zM346 540l14 -14zM25 526l13 -13zM105 526l15 -13zM360 526l12 -13zM92 513l13 -14zM252 499l-12 14zM252 513l14 -14zM92 499l13 -13zM266 499l13 -13zM279 499l14 -13zM293 486l13 -13zM92 473l13 -15zM25 447l13 -14zM372 433l-12 14zM386 405l-14 14z
M386 405l13 -13zM65 392l13 -14zM369 236q0 33 -10 62q-7 36 -37 61t-68 27t-76 -22q-36 -24 -59 -49t-32 -59q0 -61 33 -109.5t82 -65.5q35 -12 75 4q42 21 67 59t25 92zM46 375l13 -13zM180 375l14 -13zM314 375l13 -13zM407 362l-14 13zM32 362l14 -13zM167 362l13 -13z
M420 349l-13 13zM139 349l14 -14zM340 335l-13 14zM19 335l13 -12zM114 335l11 -12zM420 335l14 -12zM99 323l15 -14zM86 296l13 -14zM86 229l13 -14zM19 203l13 -14zM354 176l12 -14zM99 149l15 -14zM340 149l14 -14zM327 135l13 -13zM420 135l14 -13zM32 122l14 -13z
M153 109l-14 13zM314 122l13 -13zM167 109l13 -14zM300 109l14 -14zM407 109l13 -14zM273 95l14 -12zM393 95l14 -12zM86 69l-14 14zM207 83l13 -14zM246 83l14 -14zM380 83l13 -14zM99 56l-13 13zM114 56l-15 13zM366 69l14 -13zM125 41l-11 15zM139 41l-14 15zM354 56
l12 -15zM153 28l-14 13zM327 41l13 -13zM153 28l14 -14zM180 14l-13 14zM314 28l13 -14zM180 14l14 -13zM194 14l13 -13zM287 14l13 -13z" />
    <glyph glyph-name="nine" unicode="9" horiz-adv-x="421" 
d="M133 651l14 -15zM320 -2q-17 71 -17 174q0 30 2 87t2 87l2 -2h-34q-82 0 -107 4q-85 15 -121 69q-44 63 18 154q23 35 59.5 58.5t78.5 19.5q44 -6 75.5 -23.5t50 -44t30 -60.5t15 -74.5t5.5 -86t0 -94.5v-51q0 -15 1 -44.5t1 -46.5t-2.5 -41t-8.5 -38.5t-18.5 -27.5
t-31.5 -19zM236 649l15 -15zM120 634l15 -14zM251 634l14 -14zM106 620l14 -15zM265 620l15 -15zM91 605l15 -14zM294 605l15 -14zM77 591l14 -15zM323 591l15 -15zM62 576l15 -14zM162 575q-29 -29 -29 -42q3 3 12.5 9.5t14 14t4.5 19.5zM278 417q0 41 -15 77t-42 51
t-65 -11q-29 -21 -52 -75l-1 1q86 -43 175 -43zM349 576l15 -14zM45 562l14 -15zM364 562l14 -15zM233 547l15 -14zM248 547l14 -14zM30 533l15 -15zM262 533l15 -15zM117 518l15 -14zM103 504l14 -15zM117 460l15 -14zM146 446l15 -15zM30 431l15 -14zM161 431l14 -14z
M132 359l14 -15zM146 359l15 -15zM306 26l14 -15zM364 11l14 -14z" />
    <glyph glyph-name="colon" unicode=":" horiz-adv-x="210" 
d="M67 485l13 -13zM79 471q53 27 81 -36q11 -24 6.5 -51.5t-21.5 -41.5q-42 -23 -72.5 0t-30.5 68q0 41 38 62zM144 484l13 -13zM53 471l13 -13zM157 471l14 -13zM40 458l13 -13zM40 354l13 -14zM157 354l14 -14zM144 340l13 -12zM66 132l13 -13zM169 50q0 -33 -19 -54.5
t-48 -18.5q-27 1 -44 25t-17 55q0 41 38 62l2 -1q35 19 61.5 -4.5t26.5 -63.5zM146 131l13 -13zM55 118l13 -13zM159 118l14 -13zM42 105l13 -13zM42 1l13 -14zM159 1l14 -14zM146 -13l13 -12z" />
    <glyph glyph-name="semicolon" unicode=";" horiz-adv-x="257" 
d="M104 470l12 -11zM115 457q38 18 62.5 -10.5t19.5 -70.5q-3 -26 -21 -39q-41 -24 -72 4.5t-21 76.5q6 28 33 41zM91 457l12 -12zM78 445l13 -13zM78 347l13 -12zM187 347l12 -12zM176 335l11 -11zM115 190l11 -12zM104 56q0 57 13 95q0 18 14.5 26.5t33.5 -0.5
q25 -8 35.5 -31t-0.5 -54q-9 -27 -24 -57l-16 -30q-44 -82 -105 -118l1 -1q-1 27 -1.5 41.5t7 36t12.5 32.5t15 30.5t15 29.5zM177 189l11 -12zM104 177l12 -12zM188 177l12 -12zM200 152l13 -11zM104 104l12 -12zM200 104l13 -12zM104 92l12 -13zM200 92l13 -13zM104 79
l12 -11zM188 79l12 -11zM177 68l11 -12zM92 56l12 -13zM164 43l13 -12zM152 31l12 -12zM79 19l13 -12zM67 7l12 -12zM140 7l12 -12zM140 -5l12 -12zM56 -17l11 -12zM127 -17l13 -12zM116 -29l11 -13zM43 -42l13 -11zM116 -42l11 -11zM104 -53l12 -12zM31 -65l12 -13z
M104 -65l12 -13zM31 -78l12 -12zM92 -78l12 -12zM31 -90l12 -12zM92 -90l12 -12zM43 -102l13 -12zM67 -102l12 -12zM79 -102l13 -12z" />
    <glyph glyph-name="less" unicode="&#x3c;" horiz-adv-x="412" 
d="M324 504l-7 6zM352 108q-28 -7 -70 12q-17 7 -64 36q-123 59 -147 72q-16 9 -27 23q-6 13 -6.5 25t4.5 22.5t11 18.5t15 17q17 13 47.5 29t41.5 23q49 33 114 89q63 50 86 9q-63 -31 -117 -74l-57 -42q-25 -19 -60 -37q-29 -5 -43.5 -31.5t12.5 -48.5q11 -8 64 -29
q22 -9 68 -32t68 -32q19 -11 33 -18q12 -8 27 -32zM352 499l-6 6zM314 492l-7 7zM359 492l-7 7zM301 492l6 -6zM288 486l7 -6zM282 480l6 -7zM359 473l-7 7zM269 473l6 -6zM333 467l-6 6zM263 467l6 -7zM327 460l-7 7zM256 460l7 -6zM314 454l-7 6zM250 448l-7 6zM307 448
l-6 6zM243 441l-6 7zM295 441l-7 7zM230 435l-6 6zM288 435l-6 6zM224 428l-6 7zM211 422l-6 6zM282 422l-7 6zM205 416l-7 6zM263 416l-7 6zM250 409l-7 7zM192 409l6 -6zM243 403l-6 6zM186 396l-7 7zM230 396l-6 7zM173 396l6 -6zM166 384l-6 6zM224 384l-6 6zM160 377
l-6 7zM218 377l-7 7zM147 371l-6 6zM205 371l-7 6zM134 371l7 -7zM198 364l-6 7zM122 358l-7 6zM186 358l-7 6zM109 358l6 -6zM179 352l-6 6zM96 345l-6 7zM166 345l-6 7zM83 339l-6 6zM160 339l-6 6zM77 332l-7 7zM147 332l-6 7zM134 326l-6 6zM64 320l-6 6zM122 320l-7 6z
M58 313l-7 7zM102 313l-6 7zM51 307l-6 6zM45 300l-7 7zM83 294l-6 6zM77 287l-7 7zM45 249l-7 6zM102 243l-6 6zM51 236l-6 7zM115 236l-6 7zM58 230l-7 6zM128 230l-6 6zM64 223l-6 7zM134 230l7 -7zM77 217l-7 6zM166 217l-6 6zM96 211l-6 6zM102 204l-6 7zM109 204l-7 7
zM179 211l7 -7zM122 198l-7 6zM205 198l-7 6zM128 191l-6 7zM134 191l-6 7zM154 185l-7 6zM230 185l-6 6zM166 179l-6 6zM173 172l-7 7zM179 172l-6 7zM243 179l7 -7zM192 166l-6 6zM269 166l-6 6zM198 159l-6 7zM205 159l-7 7zM218 153l-7 6zM282 159l6 -6zM230 147l-6 6z
M295 153l6 -6zM237 140l-7 7zM307 147l7 -7zM250 140l6 -6zM333 134l-6 6zM263 134l6 -7zM346 127l-7 7zM275 121l-6 6zM275 127l7 -6zM352 121l-6 6zM288 121l7 -6zM301 108l-6 7zM307 108l-6 7zM320 102l-6 6zM327 102l-7 6zM352 102l-6 6z" />
    <glyph glyph-name="equal" unicode="=" horiz-adv-x="489" 
d="M45 292l10 -11zM451 249q-51 -10 -111 -10h-162q-10 0 -28.5 -2.5t-27.5 -2.5h-15q-13 0 -31 5q-11 0 -21.5 9.5t-10.5 22.5q4 7 10.5 11.5t12 6.5t16.5 3t16.5 1h19h19.5h12q24 0 79 4t84 3q112 -5 139 -51h-1zM430 292l10 -11zM33 281l11 -11zM440 281l11 -11zM33 260
l11 -11zM440 249l11 -11zM44 463l10 -11zM450 420q-51 -10 -111 -10h-162q-10 0 -28.5 -2.5t-28.5 -2.5h-14q-13 0 -31 5q-11 0 -21.5 9.5t-10.5 22.5q4 7 10.5 11.5t12 6.5t16.5 3t16.5 1h19h18.5h13q24 0 79 4t84 3q112 -5 139 -51h-1zM429 463l10 -11zM32 452l11 -11z
M439 452l11 -11zM32 431l11 -11zM439 420l11 -11z" />
    <glyph glyph-name="greater" unicode="&#x3e;" horiz-adv-x="407" 
d="M51 516l-7 7zM44 512q31 5 75 -13l18 -8q27 -12 75.5 -36.5t69.5 -34.5q15 -7 30 -15q46 -16 61 -43q7 -20 7.5 -34t-7.5 -26.5t-18.5 -21t-25.5 -17.5t-28.5 -15t-28 -13.5t-22.5 -14.5q-30 -21 -124 -97q-14 -11 -28.5 -19t-33 -7t-27.5 20q35 18 63 37q60 44 120 89
q32 24 63 41q23 5 42.5 25.5t5.5 42.5q-10 20 -37 30l-24 9q-59 20 -94 39q-6 4 -32 17.5t-39 21.5l-36 18q-14 7 -25 29v-4zM78 512l-6 7zM84 512l-6 7zM99 505l-7 7zM106 505l-7 7zM113 499l-7 6zM51 492l-7 7zM126 492l-7 7zM133 492l-7 7zM57 484l-6 8zM141 484l-8 8z
M72 478l-8 6zM147 484l6 -6zM92 472l-8 6zM175 472l-7 6zM106 464l-7 8zM181 464l-6 8zM119 457l-6 7zM188 464l8 -7zM202 457l6 -7zM216 450l-8 7zM141 443l-8 7zM216 450l7 -7zM161 437l-8 6zM230 443l7 -6zM243 437l-6 6zM243 437l7 -7zM181 423l-6 7zM257 430l7 -7z
M284 415l-7 8zM292 415l-8 8zM208 409l-6 6zM298 409l-6 6zM230 403l-7 6zM312 403l-8 6zM319 403l-7 6zM326 395l-7 8zM250 388l-7 7zM347 388l-8 7zM277 381l-5 7zM361 381l-8 7zM292 375l-8 6zM367 375l-6 6zM304 368l-6 7zM373 368l-6 7zM319 360l-7 8zM381 354l-8 6z
M339 319l8 -6zM333 313l6 -7zM381 299l-8 7zM373 292l-6 7zM312 292l7 -8zM367 284l-6 8zM292 284l6 -5zM361 279l-8 5zM277 279l7 -7zM264 272l8 -8zM347 264l-8 8zM250 264l7 -6zM339 258l-6 6zM243 258l7 -6zM326 252l-7 6zM237 244l-7 8zM304 244l-6 8zM223 244l7 -7z
M298 237l-6 7zM216 230l-8 7zM277 230l-5 7zM208 223l-6 7zM272 223l-8 7zM196 217l-8 6zM257 217l-7 6zM188 209l-7 8zM250 209l-7 8zM237 203l-7 6zM175 203l6 -8zM230 195l-7 8zM161 195l7 -6zM216 189l-8 6zM153 189l8 -6zM141 183l6 -8zM208 175l-6 8zM126 168l-7 7z
M202 168l-6 7zM188 160l-7 8zM113 160l6 -5zM181 155l-6 5zM106 155l7 -7zM168 148l-7 7zM92 148l7 -8zM161 140l-8 8zM84 140l8 -6zM147 134l-6 6zM72 134l6 -6zM141 128l-8 6zM64 128l8 -8zM133 120l-7 8zM44 113l-7 7zM119 113l-6 7zM113 106l-7 7zM99 99l-7 7zM44 93
l-7 6zM92 93l-8 6zM51 85l-7 8zM78 85l-6 8z" />
    <glyph glyph-name="question" unicode="?" horiz-adv-x="300" 
d="M86 608l7 -6zM50 513q-4 45 31.5 71.5t85.5 24.5q31 -2 53 -18q29 -27 39.5 -82.5t-11.5 -101.5q-7 -10 -15 -19t-19 -19.5t-16.5 -15.5t-20.5 -18t-18 -16q-34 -29 -36 -56l-3 -30q-2 -14 -3.5 -20.5t-7 -13t-15.5 -9.5q-7 31 -6 64t18 55q14 20 31 35l36 30
q21 18 33 34t17 40q11 26 7.5 51.5t-16 45t-36 28.5t-52.5 2q-15 -5 -34.5 -30t-37.5 -29zM201 605l7 -6zM76 599l6 -7zM69 592l7 -7zM220 592l7 -7zM227 585l7 -7zM62 573l7 -7zM187 573l7 -7zM240 566l-6 7zM57 566l5 -7zM102 559l-6 7zM240 566l7 -7zM96 559l6 -7z
M201 559l7 -7zM247 559l7 -7zM50 552l7 -7zM89 552l7 -7zM208 552l6 -7zM247 552l7 -7zM43 545l7 -6zM82 545l7 -6zM214 545l6 -6zM254 539l6 -6zM76 533l6 -7zM220 533l7 -7zM43 526l7 -6zM69 520l7 -7zM227 434l-7 7zM214 434l6 -7zM254 434l6 -7zM208 420l6 -5zM247 420
l7 -5zM201 415l7 -7zM194 408l7 -7zM240 408l7 -7zM187 401l7 -7zM240 401l7 -7zM181 394l6 -6zM227 394l7 -6zM175 388l6 -7zM220 388l7 -7zM220 375l-6 6zM168 375l7 -7zM208 375l6 -7zM161 368l7 -6zM201 368l7 -6zM155 362l6 -7zM141 355l7 -7zM194 355l7 -7zM136 348
l5 -7zM187 348l7 -7zM122 341l7 -5zM181 341l6 -5zM115 336l7 -7zM175 336l6 -7zM161 329l7 -7zM102 322l6 -7zM96 315l6 -6zM155 315l6 -6zM89 296l7 -7zM82 289l7 -6zM122 289l7 -6zM122 269l-7 7zM82 204l7 -7zM108 197l7 -7zM82 92l7 -7zM96 92q7 0 0 -7q-7 0 0 7z
M102 92l6 -7zM69 85l7 -7zM61 36q0 24 11 39t31 2q16 -10 12.5 -22t-12.5 -20t-20 -13l-21 -9v1q-1 5 -1 22zM108 86l7 -7zM62 79l7 -6zM108 47l7 -7zM108 40l7 -7zM96 33l6 -7zM102 33l6 -7zM57 26l5 -5zM82 21l7 -7z" />
    <glyph glyph-name="at" unicode="@" horiz-adv-x="671" 
d="M220 602l15 -14zM288 47q50 -12 110 -12q58 0 100 12q10 0 24 6l27 12q2 1 10.5 5t12 5.5t13 3t13.5 -2.5q28 0 28 -30q0 -12 -4 -24.5t-10 -16.5q-7 -14 -17.5 -24t-25 -16.5t-27.5 -11t-33.5 -5.5t-33.5 -1.5t-37.5 2t-36 3.5t-37.5 4.5t-34 4.5q-18 4 -59.5 9.5
t-61.5 10.5q-80 18 -120 50q-41 36 -60 101t-11 143q5 46 15 83q42 121 129.5 188t224.5 55q184 0 215 -137q20 -85 -1 -246q-9 -41 -35.5 -67t-65.5 -24t-68.5 28t-43.5 63q-10 0 -27.5 -3t-27.5 -3h-13q-12 0 -30 5q-29 0 -42 14q-47 29 -57 61q-21 64 47 116
q66 49 137 34q35 -8 56 -39q14 -19 22 -46.5t10.5 -47.5t5.5 -64q1 -29 6 -54h-5q43 29 59.5 94.5t-0.5 134.5q-11 43 -31 69q-35 35 -98.5 43t-123 -8.5t-89.5 -48.5q-31 -26 -57.5 -73t-37.5 -93q-27 -116 23 -176q45 -59 128 -80q24 -6 45 -6zM427 602l15 -14zM188 588
l13 -14zM498 588l14 -14zM172 574l16 -15zM527 574l14 -15zM144 559l14 -14zM541 559l14 -14zM130 545l14 -15zM570 530l-15 15zM115 530l15 -14zM258 530l14 -14zM399 530l13 -14zM412 530l15 -14zM570 530l15 -14zM102 516l13 -13zM230 516l14 -13zM470 516l15 -13z
M88 503l14 -15zM201 488l-13 15zM201 503l14 -15zM585 503l13 -15zM172 488l16 -14zM73 474l15 -14zM172 460l-14 14zM512 474l15 -14zM59 460l14 -14zM158 446l-14 14zM144 446l14 -16zM272 446l15 -16zM287 446l13 -16zM315 446h15h-15zM399 446l13 -16zM44 430l15 -14z
M244 430l14 -14zM412 430l15 -14zM130 416l14 -13zM215 416l15 -13zM30 403l14 -15zM188 403l13 -15zM427 403l15 -15zM115 388l15 -14zM172 388l16 -14zM287 374l13 -14zM315 374h15h-15zM330 374l13 -14zM442 374l14 -14zM16 360l14 -14zM102 360l13 -14zM258 360l14 -14z
M272 360l15 -14zM244 330q13 -13 22.5 -20.5t26 -14.5t35.5 -7h30v72h-30q-38 0 -84 -29v-1zM88 345l14 -15zM244 345l14 -15zM357 345l13 -15zM88 330l14 -13zM357 330l13 -13zM244 317l14 -15zM442 317l14 -15zM172 287l16 -13zM287 287l13 -13zM315 287l15 -13zM188 260
l13 -13zM442 247l14 -15zM215 232l15 -14zM230 232l14 -14zM370 218h15h-15zM470 205l-14 13zM512 218l15 -13zM485 205h13h-13zM585 205l13 -15zM385 190l14 -15zM585 190l13 -15zM399 161l13 -14zM570 161l15 -14zM88 147l14 -15zM555 147l15 -15zM527 132l14 -13zM16 119
l14 -14zM102 119l13 -14zM115 105l15 -15zM611 89q-10 14 -26 14l-15 2h16q13 0 25 -16zM29 88l14 -14zM143 88l14 -14zM554 88l15 -14zM611 88l15 -14zM171 74l16 -14zM200 60l14 -15zM58 45l14 -15zM243 45l14 -15zM526 45l14 -15zM171 -12l16 -13zM187 -12l13 -13z
M214 -25l15 -15zM229 -25l14 -15zM329 -40l13 -14zM342 -40l14 -14zM540 -40l14 -14z" />
    <glyph glyph-name="A" unicode="A" horiz-adv-x="420" 
d="M195 613l-11 10zM220 148q-14 0 -45.5 -3t-43.5 -3l-3 -3q0 -47 -32 -97q-5 -5 -12.5 -9t-15.5 -6t-15.5 2t-10.5 14q-8 11 12 50l8 15q12 25 12 42q13 46 27 86l30 84q35 92 49 170v35q0 17 1 30.5t5 30t13.5 23t24.5 0.5q16 -5 27.5 -19t16 -28.5t11 -37t11.5 -33.5
q4 -20 10.5 -38t17 -42t14.5 -33q18 -47 22 -69q10 -59 10 -111v-39q0 -13 6 -32l6 -20q12 -40 12 -60q0 -19 -12 -26q-10 -11 -34 13l-9 10q-3 6 -10.5 34.5t-20.5 41.5q-21 28 -82 28zM236 620l11 -10zM257 588l-10 11zM257 578l10 -11zM279 525l-12 10zM279 503l10 -11z
M181 460l-10 10zM300 449l-11 11zM247 438l-11 11zM160 438l11 -11zM236 438q-11 -11 0 -11q11 11 0 11zM310 427l-10 11zM309 192q0 70 -15.5 125t-46.5 110h-23q-22 -87 -87 -235h172zM256 416l-10 11zM309 416l12 -10zM212 406l12 -11zM266 395l-10 11zM331 395l-10 11z
M149 384l10 -10zM266 384l12 -10zM212 363l-10 11zM331 374l10 -11zM202 363l10 -10zM288 353l-10 10zM149 341l-12 12zM341 353l11 -12zM191 341l11 -10zM299 331l-11 10zM127 331l10 -11zM191 331l11 -11zM191 310l-11 10zM362 310l-10 10zM116 310l11 -10zM180 310
l11 -10zM299 310l10 -10zM170 300l10 -12zM180 278l-10 10zM116 267l-10 11zM95 267l11 -10zM159 267l11 -10zM170 245l-11 12zM84 245l11 -10zM149 235l10 -10zM149 203l-12 11zM84 150l-10 10zM137 129l-10 10zM374 117l-12 12zM63 117l11 -10zM321 107l-12 10zM63 85
l-11 11zM127 74l-11 11zM41 74l11 -11zM384 63l-10 11zM41 53l-10 10zM116 53l-10 10zM331 53l-10 10zM395 53l-11 10zM106 42l-11 11zM41 31l-10 11zM95 20l-11 11zM341 20l-10 11zM384 20l11 -10z" />
    <glyph glyph-name="B" unicode="B" horiz-adv-x="389" 
d="M67 637q24 -12 30 -14q-25 10 -31 16zM56 626l11 -10zM65 7q-18 80 -18 225q0 38 3 115.5t3 115.5q0 9 -3 38t-3 41q0 33 11 54.5t38 15.5q13 -3 27 -9q17 -7 46.5 -21t38.5 -18q21 -9 37 -25q38 -27 58.5 -54t22.5 -67q1 -27 -7.5 -55t-17 -45.5t-24.5 -44.5
q42 -24 62.5 -78.5t3.5 -112.5q-11 -35 -42 -54q-36 -18 -117 -18h-32q-73 0 -85 -2zM118 604l11 -11zM140 593l10 -10zM172 583l10 -11zM204 572l10 -11zM236 561l10 -10zM246 551l11 -11zM112 284q23 8 57 12l31 4q15 1 27 6q4 4 14.5 20.5t15.5 21.5q10 21 12 40t-1.5 34
t-14.5 29t-22 23.5t-29.5 20.5t-30 17t-31.5 14q-16 8 -32 14zM122 540l11 -11zM133 540l11 -11zM261 540l11 -11zM154 529l11 -10zM165 529l11 -10zM272 529l10 -10zM186 519l11 -11zM197 519l11 -11zM293 497l-11 11zM304 497l10 -10zM229 487l11 -11zM314 487l11 -11z
M325 476l11 -11zM272 391l10 -11zM325 380l11 -11zM325 369l11 -10zM261 359l11 -11zM314 348l11 -11zM250 337l11 -10zM314 337l11 -10zM304 327l10 -11zM229 316l11 -11zM304 316l10 -11zM208 305l10 -10zM293 305l11 -10zM122 295l11 -11zM293 295l11 -11zM112 284
l10 -11zM282 284l11 -11zM304 273l10 -10zM314 263l11 -11zM325 252l11 -11zM112 241l10 -10zM176 241l10 -10zM132 70q6 0 20.5 -1t21.5 -1h21q49 0 80 14q28 17 29 55.5t-19 65.5q-16 22 -40.5 30t-62.5 6l-18 -2q-1 0 -21.5 -3t-30.5 -3l3 -161h17zM339 230l10 -11z
M285 208l11 -10zM349 198l11 -11zM296 187l11 -11zM296 123l11 -11zM349 112l11 -10zM349 102l11 -11zM285 91l11 -11zM275 80l10 -10zM339 59l10 -11zM328 48l11 -10zM317 38l11 -11zM72 16l-11 11zM307 27l10 -11zM104 16l11 -10z" />
    <glyph glyph-name="C" unicode="C" horiz-adv-x="419" 
d="M172 600l11 -11zM339 544q-5 -5 -44 -5h-23q-72 0 -102 -30q-31 -20 -43.5 -53t-12.5 -86v-25q0 -112 22.5 -176.5t89.5 -90.5q13 -7 25 -8t22 4t17.5 11t18 15.5t16.5 14.5q14 11 35 6q29 -12 1 -75q-2 -3 -2 -4q-30 -40 -83 -40q-48 0 -92 25t-71 59
q-52 61 -60.5 186.5t27.5 215.5q12 36 45.5 67t71.5 41q96 25 142 -52zM271 599l11 -11zM149 588l11 -11zM316 588l11 -11zM126 577l11 -11zM327 577l11 -11zM115 566l11 -11zM104 555l11 -12zM93 543l11 -11zM204 543l11 -11zM249 543l11 -11zM260 543l11 -11zM327 543
l11 -11zM171 532l11 -11zM82 521l11 -11zM160 521l11 -11zM149 510l11 -11zM70 499l12 -11zM137 488l12 -12zM126 465l11 -11zM59 454l11 -11zM115 443l11 -11zM115 432l11 -11zM115 209l11 -12zM59 186l11 -11zM126 175l11 -11zM70 164l12 -11zM137 153l12 -11zM371 131
q-16 0 -21 1.5t-12 9.5l-1 -1h8q16 0 26 -10zM81 130l11 -12zM148 130l11 -12zM326 130l11 -12zM371 130l11 -12zM159 118l11 -11zM315 118l11 -11zM92 107l11 -11zM181 107l11 -11zM304 85l11 -11zM371 85l11 -11zM214 74l12 -11zM159 51l11 -11zM360 51l11 -11zM181 29
l-11 11zM348 40l12 -11zM337 18l11 -11z" />
    <glyph glyph-name="D" unicode="D" horiz-adv-x="432" 
d="M74 606q10 0 0 -10q-12 0 0 10zM93 606q10 0 0 -10q-10 0 0 10zM49 90q0 3 1 11t1 12v210q0 20 -2.5 64.5t-3 73t5.5 62t20 53.5q12 17 33 20l-2 -4q85 15 175 -85q78 -88 106 -177v-173q0 -72 -28.5 -107.5t-95.5 -35.5h-23q-19 0 -55.5 3t-55.5 3q-53 0 -63 22
q-13 11 -13 37v11zM134 602l10 -10zM50 592l11 -11zM165 592l11 -11zM186 581l11 -10zM207 571l10 -11zM227 560l11 -9zM101 68q15 0 50.5 -3t52.5 -3q108 0 124 73l4 18q1 7 1 56v16q0 124 -62 205.5t-169 120.5zM248 550l10 -11zM258 539l11 -10zM269 518l10 -10zM279 508
l11 -11zM226 487l11 -11zM290 487l10 -11zM300 466l11 -11zM248 455l10 -11zM311 455l10 -11zM321 444l11 -10zM258 434l11 -10zM332 434l9 -10zM341 414l11 -11zM352 403l10 -10zM300 382l11 -10zM362 372l11 -11zM311 361l10 -10zM373 351l10 -11zM321 330l11 -11z
M321 121l11 -11zM311 100l10 -11zM373 89l10 -10zM290 79l10 -11zM362 68l11 -9zM352 48l10 -10zM49 38l11 -11zM341 38l11 -11zM321 27l11 -10z" />
    <glyph glyph-name="E" unicode="E" horiz-adv-x="443" 
d="M344 609l-12 13zM357 609l-13 13zM369 609l-12 13zM93 597l-12 12zM383 12q-37 -16 -101 -16q-19 0 -56 2t-56 2h-11q-3 0 -11 -1t-12 -1h-12q-32 0 -45 16q-24 16 -27 52t5.5 90.5t8.5 71.5q-11 64 -11 179v59q0 75 13 114q17 17 33.5 21t53.5 4q20 0 57 2t57 2
q66 0 114 -15q-21 -31 -58.5 -42.5t-96.5 -11.5q-17 0 -55.5 2.5t-54.5 2.5v-151q24 0 77 4.5t82 3.5q50 -2 81.5 -15t49.5 -43q-55 -15 -145 -15q-25 0 -72.5 2t-72.5 2q9 -56 12.5 -91t1.5 -83.5t-14 -89.5q14 0 50.5 2.5t52.5 2.5q61 0 100.5 -11.5t60.5 -42.5zM383 589
l-13 12zM69 564l-12 12zM383 564l-13 12zM383 551l-13 13zM358 539l-13 12zM370 539l-12 12zM395 376l-12 12zM408 363l-13 13zM408 325l-13 13zM132 263l-13 12zM69 250l-12 13zM57 112l12 -13zM119 74l13 -12zM370 49l-12 13zM383 37l-13 12zM69 12l-12 12zM383 -1l-13 13
z" />
    <glyph glyph-name="F" unicode="F" horiz-adv-x="439" 
d="M68 9q-16 52 -18.5 118t2.5 161t5 131v18q0 7 -1 21.5t-1 22.5v23q0 57 15 85q2 7 7 11.5t9.5 7t14 3.5t14.5 1.5t17.5 0t16.5 -0.5h14q12 0 45.5 2.5t48.5 2.5q115 0 146 -49q-58 -15 -142 -15q-24 0 -71 2t-71 2v-181h194v-58h-194v-237q0 -56 -44 -69zM374 610l11 -11
zM385 599l12 -11zM385 565l12 -11zM57 32l11 -11zM102 21l11 -12z" />
    <glyph glyph-name="G" unicode="G" horiz-adv-x="495" 
d="M207 607l12 -11zM91 192q95 39 211 39q64 0 108 -21t48 -68q0 -79 -110 -122q-38 -9 -82 -9q-79 0 -139 30.5t-84 85.5q-50 133 61 334q30 53 62 95q24 29 67 42t87.5 3t67.5 -44q-20 -5 -38 -5q-79 0 -107 -18q-50 -34 -74 -99q-36 -64 -54 -116.5t-18 -126.5h-6z
M360 607l12 -11zM177 596l12 -12zM372 596l12 -12zM164 584l13 -13zM152 559l12 -12zM372 559l12 -12zM139 547l13 -12zM238 535l-12 12zM128 535l11 -13zM226 522l-13 13zM213 510l-12 12zM115 497l13 -11zM189 497l12 -11zM103 486l12 -13zM177 486l12 -13zM177 473
l12 -12zM91 449l12 -13zM164 449l13 -13zM78 436l13 -11zM152 436l12 -11zM152 425l12 -13zM67 400l11 -13zM139 400l13 -13zM128 387l11 -11zM54 376l13 -13zM128 376l11 -13zM115 363l13 -12zM42 351l12 -12zM115 351l13 -12zM29 339l13 -13zM115 326l-12 13zM103 326
l12 -11zM103 290l-12 12zM152 229l12 -13zM409 229l12 -13zM115 216l13 -11zM421 216l12 -11zM103 192l-12 13zM433 205l13 -13zM446 192l12 -12zM164 167l13 -12zM177 167l12 -12zM127 129q26 -21 67.5 -36.5t81.5 -15.5q46 0 77 20t44 57q-66 20 -144.5 14t-124.5 -37z
M28 153l13 -12zM151 153l12 -12zM127 141l11 -12zM114 129l13 -13zM383 129l13 -13zM41 116l12 -12zM138 116l13 -12zM176 104l12 -11zM359 104l12 -11zM200 93l12 -13zM322 93l13 -13zM445 93l12 -13zM90 68l12 -13zM102 68l12 -13zM432 68l13 -13zM114 55l13 -12zM127 55
l11 -12zM396 55l12 -12zM408 55l12 -12zM371 43l12 -12zM383 43l13 -12zM359 31l12 -12z" />
    <glyph glyph-name="H" unicode="H" horiz-adv-x="421" 
d="M53 3q-11 43 -11 95q0 26 5.5 76.5t5.5 78.5q0 38 -6 106t-6 106v16q0 6 -1 20.5t-1 21.5v23q0 56 15 71q15 8 35 -9q17 -19 17 -27q13 -62 13 -212h47q88 0 139 -11v112q0 89 14 126l10 10q22 22 43 1q11 -11 11.5 -36t-4.5 -57.5t-5 -42.5v-332q0 -5 0.5 -17t0 -20
t-2.5 -16q-11 -38 -49 -53q-15 55 -15 132q0 23 2 66t2 66q-66 14 -186 14q0 -17 2 -51.5t2 -53.5q0 -175 -70 -193zM303 554l13 -13zM379 529l-12 12zM367 529l12 -13zM116 429l-12 13zM40 416l13 -13zM291 366l12 -12zM40 203l13 -12zM104 165l12 -12zM303 52l13 -12z
M354 40l13 -13zM40 27l13 -12zM91 15l13 -12z" />
    <glyph glyph-name="I" unicode="I" horiz-adv-x="373" 
d="M45 627l13 -12zM57 61q26 14 76 14h23v491l-3 1h-31q-71 0 -76 20q-2 6 7 15q11 22 65 22h21q10 0 56 3t57 0q63 -7 85 -51q-34 -13 -93 -13h-28v-491h18q81 0 105 -50q-38 -15 -100 -15q-19 0 -54.5 2t-54.5 2q-15 0 -30 1t-34 4.5t-28.5 11.5t-4.5 19q6 14 24 14z
M313 628l11 -12zM31 616l11 -12zM324 616l13 -12zM31 591l11 -11zM324 580l13 -13zM31 76l11 -13zM313 76l11 -13zM18 63l13 -11zM324 63l13 -11zM18 39l13 -12zM324 27l13 -12z" />
    <glyph glyph-name="J" unicode="J" horiz-adv-x="398" 
d="M40 604l13 -13zM349 448v-19q0 -20 1.5 -64t1 -76.5t-4.5 -61.5q-9 -71 -41 -114t-92 -75q-21 -11 -45 -18t-50.5 -3t-39.5 24q-19 26 -32 76t-11 94q2 29 16 39q16 5 26.5 0.5t16.5 -15.5q4 -8 9 -12q14 -53 14 -141q87 27 127.5 95.5t43.5 181.5q1 34 -0.5 95.5
t-1.5 83.5q-10 0 -62 -2.5t-76 -0.5q-84 7 -109 56l-5 -6q63 10 101.5 15t98 0t88.5 -28q7 -5 11.5 -11t7.5 -15t4.5 -15.5t2 -19t0.5 -19v-22v-22.5zM308 598l14 -13zM322 585l13 -14zM35 559l13 -14zM347 545l-12 14zM282 520l-13 13zM269 234l13 -14zM257 207l12 -12z
M113 181l-13 14zM335 195l12 -14zM257 169l-14 12zM35 169l13 -13zM335 156l-13 13zM231 156l12 -13zM308 143l14 -14zM231 117l-14 12zM204 103l-13 14zM295 117l13 -14zM165 103l14 -12zM126 78l-13 13zM139 91l14 -13zM282 91l13 -13zM269 78l13 -13zM48 65l13 -14z
M257 65l12 -14zM243 38l-12 13zM217 25l-13 13zM191 13l-12 12z" />
    <glyph glyph-name="K" unicode="K" horiz-adv-x="487" 
d="M455 538q-10 -17 -25 -33t-28 -27.5t-36 -25t-36 -21t-42 -20t-39 -17t-43 -17t-40 -15.5q29 -38 68 -68l40 -30q66 -50 115 -97q34 -35 54 -81q-11 -2 -20.5 -2t-17 1t-16 4.5t-13.5 6.5t-12.5 9t-11 9.5t-11 11.5t-9.5 10l-14 14q-25 21 -86.5 62t-89.5 67
q-12 11 -24 23q0 -25 4.5 -80t4.5 -83q0 -110 -58 -126l-6 -6q-31 117 -16 334q3 55 3 108v16q0 6 -1 20.5t-1 22.5v22q0 56 15 71q14 7 26.5 -1.5t19.5 -22.5q5 -10 5 -13v-152q33 12 93 46.5t73 40.5q15 8 25 12.5t26 11.5t29 10.5t29.5 6.5t33 2.5t32.5 -4.5zM403 562
l12 -13zM415 562l13 -13zM428 562l13 -13zM378 549l12 -13zM441 549l12 -13zM352 536l13 -12zM352 511l-12 13zM453 511l-12 13zM327 499l-12 12zM453 499l-12 12zM302 486l-13 13zM441 486l-13 13zM277 473l-13 13zM415 486l13 -13zM226 473l13 -12zM403 461l-13 12z
M226 448l-12 13zM352 461l13 -13zM365 461l13 -13zM189 448l12 -12zM327 448l13 -12zM340 448l12 -12zM151 436l13 -13zM302 436l13 -13zM315 436l12 -13zM138 423l13 -13zM277 423l12 -13zM252 410l12 -12zM226 398l13 -13zM239 398l13 -13zM201 385l13 -12zM214 385
l12 -12zM176 373l13 -13zM164 360l12 -12zM164 348l12 -13zM201 310l-12 12zM214 310l12 -13zM239 297l13 -12zM126 285l12 -13zM252 285l12 -13zM138 272l13 -13zM289 247l-12 12zM302 234l-13 13zM327 222l-12 12zM239 209l-13 13zM340 222l12 -13zM352 209l13 -13z
M365 196l13 -12zM378 184l12 -13zM390 171l13 -12zM403 159l12 -13zM415 133l13 -12zM428 121l13 -13zM352 108l13 -12zM428 83l13 -13zM50 33l13 -13zM113 7l-12 13z" />
    <glyph glyph-name="L" unicode="L" horiz-adv-x="438" 
d="M416 26q-48 -15 -127 -15q-22 0 -63 2t-62 2q-65 0 -90 25q-14 19 -18 51q-4 39 -3 63t4.5 64.5t3.5 62.5q0 37 -6 120t-6 120v22q0 53 25 53q19 4 27 -9q4 -8 6 -20.5t2.5 -20.5t0 -26.5t-0.5 -24.5v-12q16 -83 16 -201v-49q0 -17 -1 -50.5t-1 -50.5v-51q24 0 77 4.5
t82 3.5q52 -2 83 -16t51 -47zM114 478l13 -12zM64 453l-12 13zM391 76l12 -12zM403 64l13 -13zM64 38l13 -12zM403 26l13 -13z" />
    <glyph glyph-name="M" unicode="M" horiz-adv-x="585" 
d="M75 12q-27 97 -27 227q0 87 13 227q0 56 19 95.5t59 46.5q18 2 33.5 -3t24 -12t19.5 -19q10 -12 36 -51.5t45 -55.5q15 -12 38 -12q10 0 18.5 4t14.5 8.5t13 14t10.5 14.5t9.5 17t8 14q5 9 15.5 30.5t14.5 28.5q35 35 64 12q6 -4 10 -9.5t7 -10.5t5 -13t3 -13t1.5 -16
t0.5 -15.5v-18v-18.5v-340q0 -101 -64 -117q-13 49 -13.5 113.5t6.5 120.5q6 55 6 120.5t-13 113.5q-4 -10 -8 -18l-12 -30q-4 -8 -8 -18q-22 -30 -46 -43.5t-58 -4.5q-18 6 -34 15t-33 25.5t-25.5 25.5t-27 32t-22.5 27q-27 32 -37 42q0 -68 -7 -194t-7 -194v-24
q0 -28 -1 -42.5t-5.5 -32t-15 -28t-28.5 -16.5zM230 557l-13 14zM413 557l12 -13zM166 532l-12 12zM230 544l14 -12zM399 532l14 -14zM62 518l13 -13zM166 518l12 -13zM256 505l-12 13zM269 493l-13 12zM387 505l12 -12zM452 493l12 -14zM126 479l14 -12zM191 479l14 -12z
M373 479l14 -12zM452 479l12 -12zM307 453l-12 14zM360 467l13 -14zM438 467l14 -14zM334 453q-12 -13 0 -13q13 13 0 13zM438 453l14 -13zM230 427l-13 13zM230 427l14 -13zM425 427l13 -13zM244 414l12 -12zM413 414l12 -12zM399 402l14 -15zM373 387l14 -12zM464 102
l-12 14zM528 90l-11 12zM528 77l-11 13zM464 36l-12 15zM75 26l-13 10zM517 26l-14 10zM126 12l-12 14z" />
    <glyph glyph-name="N" unicode="N" horiz-adv-x="454" 
d="M314 220q0 27 6 89.5t6 89.5q0 21 -6 55t-6 55q0 9 -2 25t-2 25q0 35 17 60q10 19 27 12q16 -8 27 -27q18 -60 18 -159q0 -46 -8.5 -134t-8.5 -133q0 -11 1.5 -33.5t1.5 -34.5q0 -84 -44 -84q-31 0 -51 53l-6 16q-1 3 -4.5 12.5t-5.5 14.5q-29 56 -75.5 165.5
t-74.5 164.5q0 -58 7 -165t7 -165v-21q0 -43 -12 -68.5t-42 -32.5q-13 47 -19.5 115t-7.5 106t0 139t1 119v14q0 7 -1 22.5t-1 22.5q0 21 3 38t13.5 29.5t27.5 9.5q31 0 51 -53l6 -16l6 -15t5 -12q41 -74 75 -151q34 -80 75 -150zM136 589l-14 14zM150 562l-14 14zM163 534
l-13 14zM163 521l14 -14zM177 493l14 -13zM382 493l14 -13zM314 480l13 -14zM204 452l-13 14zM136 439l-14 13zM204 439l14 -14zM136 425l14 -14zM218 411l14 -13zM150 384l13 -14zM232 384l13 -14zM245 357l14 -14zM177 329l14 -14zM259 329l14 -14zM327 302l-13 13z
M191 302l13 -14zM273 288l13 -14zM204 274l14 -13zM396 261l-14 13zM300 247l-14 14zM218 247l14 -14zM300 233l14 -13zM136 206l-14 14zM54 206l13 -14zM232 206l13 -14zM245 179l14 -14zM259 137l14 -13zM273 110l13 -14zM286 69l14 -14zM300 42l14 -14zM81 14l-14 14z
M382 14l-13 14zM136 1l-14 13z" />
    <glyph glyph-name="O" unicode="O" horiz-adv-x="459" 
d="M211 577l-12 12zM406 268q0 -107 -41.5 -176t-129.5 -74q-46 -3 -79.5 12t-53 41t-30.5 67.5t-14.5 81t-3.5 92.5v83q0 100 35 145q24 23 49.5 30t72.5 7l-1 -5q39 4 69.5 -6.5t49.5 -29t33.5 -50t21.5 -60t14 -67.5q8 -46 8 -91zM271 572l-12 12zM126 560l-12 12z
M307 560l-12 12zM114 548l-13 12zM331 548l-12 12zM101 536l-12 12zM342 536l-11 12zM89 523l-12 13zM355 511l-13 12zM77 499l-12 12zM137 487q2 2 5.5 5t4 4t2 3t1.5 4.5v7.5zM208 513q-24 0 -47 -14q-31 -31 -52 -90q-11 -60 -7 -137.5t21 -126.5q19 -37 59 -56.5
t87 -2.5q41 25 60 90t14.5 136t-26.5 125q-12 32 -41 54t-68 22zM277 494l12 -12zM349 494l12 -12zM120 470l12 -12zM373 458l-12 12zM59 446l-12 12zM301 458l12 -12zM108 446l12 -12zM108 434l12 -12zM385 422l-12 12zM325 409l-12 13zM397 385l-12 12zM325 385l11 -12z
M325 193l11 -12zM397 168l-12 13zM108 168l12 -12zM397 156l-12 12zM59 144l-12 12zM313 156l12 -12zM120 144l12 -12zM301 132l12 -12zM71 108l-12 12zM132 120l12 -12zM385 108l-12 12zM289 108l12 -12zM83 84l-12 12zM156 96l12 -12zM277 96l12 -12zM373 84l-12 12z
M180 84l12 -12zM253 84l12 -12zM361 72l-12 12zM108 47l-13 12zM349 47l-13 12zM336 35l-11 12zM301 23l-12 12zM313 23l-12 12zM277 11l-12 12zM289 11l-12 12z" />
    <glyph glyph-name="P" unicode="P" horiz-adv-x="404" 
d="M89 615l12 -12zM73 7q-16 63 -16 157q0 32 5 105t4 113q-1 28 -3 56q0 13 -4.5 50t-1.5 60.5t18 38.5q37 25 124 25q12 0 36 2t37 2q44 0 68 -13t34 -45q12 -41 12.5 -91.5t-14.5 -87.5q-10 -16 -23.5 -27.5t-36.5 -20t-35.5 -12.5t-46 -10.5t-41.5 -8.5q-32 -8 -50 -30
q-17 -28 -17 -67q0 -12 1 -25l3 -51q7 -95 -50 -115zM343 610l12 -12zM60 598l13 -13zM355 598l14 -13zM48 585l12 -13zM369 572l12 -12zM109 543q0 -31 6 -98.5t6 -98.5q57 0 104.5 16.5t73.5 47.5q20 25 20 61q0 27 -4.5 41t-20.5 22q-17 17 -46.5 20t-76.5 -1.5t-61 -4.5
zM306 543l12 -12zM109 494l12 -13zM47 481l12 -12zM306 409l12 -13zM281 396l12 -13zM256 383l13 -12zM219 371l12 -12zM368 371l12 -12zM171 359l12 -13zM354 359l14 -13zM342 346l12 -12zM318 334l12 -12zM293 322l13 -12zM256 310l13 -12zM208 298l11 -14zM146 284
l12 -12zM59 27l13 -13zM109 14l12 -12z" />
    <glyph glyph-name="Q" unicode="Q" horiz-adv-x="619" 
d="M193 605l-11 11zM587 37q-43 -21 -101 22q-2 2 -8.5 6.5t-9.5 6.5t-10 7t-10.5 6t-11.5 5t-12 3.5t-12.5 1.5t-13.5 -1q-15 -5 -46 -18t-46 -18q-46 -8 -113 20q-51 23 -105 62q-31 27 -43 75.5t-6 101t19.5 101t31.5 82.5q5 16 16 32t18.5 24.5t23.5 24.5q27 24 67 29.5
t79.5 -5t73 -25.5t58.5 -33q66 -48 93 -104q29 -79 12 -155q-5 -23 -13 -47t-19 -54.5t-16 -45.5q69 -35 104 -104zM293 603l-11 11zM166 591l-12 12zM305 603l12 -12zM143 579l-12 12zM328 591l12 -12zM131 568l-11 11zM351 579l12 -11zM120 556l-12 12zM375 568l11 -12z
M332 142q-1 1 -7.5 7t-9.5 9t-7.5 9.5t-5.5 11t1 11t7 11.5q17 11 30.5 5t37 -14.5t38.5 -3.5q29 15 42.5 55t10.5 85t-18 82q-8 29 -26 44.5t-51 30.5q-11 4 -47 27.5t-61 28.5q-18 3 -33 -1q-19 0 -35 -8t-26.5 -18.5t-21.5 -28.5t-16.5 -31t-14 -34t-12.5 -29
q-8 -27 -12 -55.5t-2 -61.5t13 -55q18 -41 67.5 -68.5t106.5 -29.5q36 -2 60 7zM390 547l11 -11zM204 536l12 -12zM413 536l11 -12zM100 512l-11 12zM158 524l12 -12zM436 524l12 -12zM146 512l12 -11zM459 512l12 -11zM89 489l-12 12zM146 501l12 -12zM355 489l-12 12z
M355 501l12 -12zM471 501l11 -12zM135 489l11 -11zM367 489l11 -11zM378 489l12 -11zM77 466l-12 12zM135 478l11 -12zM390 478l11 -12zM482 478l12 -12zM123 466l12 -11zM65 443l-11 12zM123 455l12 -12zM494 455l12 -12zM112 443l11 -12zM436 443l12 -12zM54 420l-12 11z
M112 431l11 -11zM506 431l11 -11zM100 420l12 -12zM448 420l11 -12zM100 408l12 -11zM42 385l-11 12zM517 373l12 -11zM89 362l11 -12zM459 362l12 -12zM459 292l12 -11zM459 246l-11 12zM529 246l-12 12zM448 223l-12 11zM517 211l-11 12zM89 211l11 -11zM367 188l-12 12z
M436 188l-12 12zM494 200l12 -12zM31 188l11 -11zM100 188l12 -11zM390 177l-12 11zM424 177l-11 11zM482 188l12 -11zM135 165l-12 12zM297 165l-12 12zM413 165l-12 12zM494 165l-12 12zM54 153l-12 12zM146 165l12 -12zM170 153l11 -11zM320 142l-11 11zM471 153l11 -11z
M181 142l12 -12zM482 130l-11 12zM216 130l12 -11zM332 130l11 -11zM506 119l-12 11zM239 107l-11 12zM320 107l-11 12zM506 119l11 -12zM517 107l12 -12zM401 84l-11 11zM414 96q5 0 5 -3t-5 -8q-11 0 -1 10zM541 85l-11 11zM171 73l-12 12zM171 85l11 -12zM379 73l-11 12z
M391 73l-12 12zM541 85l12 -12zM356 62l-12 11zM368 62l-12 11zM553 73l11 -11zM217 50l-12 12zM229 50l-12 12zM333 50l-12 12zM344 50l-11 12zM564 62l12 -12zM495 39l12 -12zM564 27l12 -12z" />
    <glyph glyph-name="R" unicode="R" horiz-adv-x="463" 
d="M62 3q-16 58 -18.5 127.5t2.5 170t5 140.5v15v22v23t0.5 21t2 21t4.5 17.5t7.5 16t11.5 10.5q15 15 50 15h15q5 0 15 -1t15 -1h14q173 0 216 -91q16 -35 3 -90q-9 -28 -33.5 -47.5t-62.5 -40.5q-17 -9 -62 -28.5t-62 -29.5q14 -6 57.5 -25.5t64 -30t49.5 -31t47 -43.5
q24 -32 24 -76q-41 13 -81 33q-29 14 -63 32.5t-55.5 31.5t-61.5 38t-55 34q0 -13 2.5 -48t2.5 -50q0 -54 -11 -88t-42 -44zM306 599l13 -12zM331 587l12 -12zM355 575l12 -12zM379 551l-12 12zM379 551l12 -12zM233 539h-122l-4 -221q18 8 52.5 19.5t52.5 19.5
q65 27 105 60q22 22 21 45q-3 32 -35.5 54.5t-69.5 22.5zM400 525l-13 13zM302 525l13 -12zM327 440l12 -12zM327 404l-12 12zM290 404l12 -13zM400 391l-13 13zM278 379l-12 12zM242 379l12 -12zM375 379l12 -12zM216 367l13 -13zM363 367l12 -13zM192 342l-12 12zM339 342
l-12 12zM339 354l12 -12zM168 330l-12 12zM315 330l-13 12zM315 342l12 -12zM131 318l-12 12zM278 330l12 -12zM290 330l12 -12zM254 318l12 -12zM266 318l12 -12zM229 306l13 -12zM242 306l12 -12zM216 294l13 -13zM191 268q-3 5 -5 5q-1 0 -6 -5q-1 -4 0 -5q1 -5 11 5z
M192 280l12 -12zM204 256l-12 12zM229 244l-13 12zM242 244l12 -12zM266 232l12 -12zM278 220l12 -12zM302 208l13 -13zM339 183l-12 12zM351 171l-12 12zM387 159l-12 12zM387 159l13 -12zM400 147l12 -12zM375 86l12 -12zM387 74l13 -12zM58 13l-12 12zM107 1l-12 12z" />
    <glyph glyph-name="S" unicode="S" horiz-adv-x="448" 
d="M168 610l-13 13zM169 603q27 14 82 14q24 0 88 -17q7 -2 13.5 -5t12.5 -8t4 -10q-3 -5 -23 -13q-18 -11 -56 -17t-68 -9.5t-53.5 -23t-23.5 -56.5q0 -25 21 -42.5t56 -32t44 -20.5q31 -17 58 -43q58 -60 74 -124q16 -62 -11 -105.5t-80 -63.5q-29 -16 -101 -16
q-17 0 -50.5 2t-50.5 2q-11 0 -22 2.5t-19 8t-8.5 13t8.5 17.5q22 32 89 32q8 0 42.5 -1t47 0t33 6.5t32.5 16.5q19 17 26 54q3 43 -17.5 70t-58.5 53q-16 11 -65 36t-77.5 49t-42.5 58q-14 33 3 84q0 12 8.5 28.5t17.5 25.5q10 4 18 12l8 8q22 22 40 22zM142 589l-13 14z
M129 576l-14 13zM115 562l-13 14zM102 549l-14 13zM371 549l-13 13zM196 549l14 -14zM88 522l-13 13zM183 522l-14 13zM169 508l-13 14zM75 495l-14 13zM156 481l-14 14zM129 468l13 -14zM142 427l14 -13zM75 400l-14 14zM169 414l14 -14zM223 387l-13 13zM88 374l-13 13z
M237 374l-14 13zM102 360l-14 14zM115 360l-13 14zM263 360l-13 14zM129 347l-14 13zM142 347l-13 13zM290 347l-13 13zM156 333l-14 14zM169 333l-13 14zM317 333l-13 14zM331 320l-14 13zM210 306l-14 14zM223 306l-13 14zM344 306l-13 14zM237 293l-14 13zM237 306
l13 -13zM358 293l-14 13zM263 279l-13 14zM371 266l-13 13zM385 252l-14 14zM317 225l-13 14zM398 225l-13 14zM331 198l-14 14zM331 118l-14 13zM317 104l-13 14zM398 104l-13 14zM304 91l-14 13zM398 91l-13 13zM277 77l-14 14zM61 64l-13 13zM385 64l-14 13zM48 50
l-14 14zM371 50l-13 14zM358 37l-14 13zM48 23l-14 14zM331 23l-14 14zM317 10l-13 13z" />
    <glyph glyph-name="T" unicode="T" horiz-adv-x="469" 
d="M33 611l15 -15zM250 6q-41 175 -41 404v132h-66l-1 -2h-33q-33 0 -59.5 10t-4.5 32q3 5 6.5 8.5l6.5 6.5t8 5t8.5 3.5t10 2.5t10 1.5t11.5 0.5h11.5h13h12.5h11q12 0 68 2.5t84 0.5q101 -8 132 -58q-48 -13 -122 -13h-40q0 -129 5.5 -221t23.5 -168v-25q0 -6 0.5 -21
t0 -25t-2.5 -18q-11 -41 -53 -58zM410 609l13 -15zM19 594l13 -13zM423 594l13 -13zM32 553l-13 16zM423 553l13 -13zM275 378l14 -12zM208 366l15 -14zM275 366l14 -14zM208 352l15 -15zM304 150l-15 15zM235 137l-12 13zM235 29l14 -14zM289 15l15 -12z" />
    <glyph glyph-name="U" unicode="U" horiz-adv-x="541" 
d="M102 592l-14 14zM101 586q17 7 28 1.5t17 -24.5t8.5 -37t2.5 -37v-15q-13 -59 -19.5 -99t-10 -101t12.5 -104t52 -64q30 -18 80 -18q76 0 105 51t29 143q0 22 -3 69.5t-3 67.5v13q0 25 0.5 38t4.5 32t13.5 29t24.5 14q8 -1 14.5 0.5t11 -4.5t7.5 -8.5t5 -12t3.5 -14
t1.5 -15.5v-16v-16v-15v-13q0 -46 -7 -129t-7 -129v-34q0 -64 -29 -93q-60 -39 -170.5 -36t-163.5 45q-26 19 -36 48q-9 14 -14.5 30t-6.5 38t-1.5 36t3.5 43t5 37.5t7 41.5t6 34v24q0 7 -0.5 44t0 51t3 40.5t9.5 42.5t18 27zM416 514l-15 15zM87 500l-14 14zM158 457
l-14 15zM73 300l-15 15zM144 285l-14 15zM144 271l-14 14zM487 214l-14 14zM473 214l14 -14zM387 171l14 -14zM373 143l14 -14zM144 115l-14 14zM172 100l-14 15zM359 115l14 -15zM73 86l-15 14zM215 86l-14 14zM359 86l-15 14zM458 58l15 -15zM416 29l-15 14zM387 29
l14 -14z" />
    <glyph glyph-name="V" unicode="V" horiz-adv-x="561" 
d="M70 596l-12 13zM84 596l-14 13zM97 596l-13 13zM58 584l-13 12zM499 532q0 -10 -3 -34.5t-3 -32.5q-14 -46 -20 -86l-6 -42q-2 -14 -5 -42t-5 -42l-6 -42q-3 -20 -16 -61.5t-16 -64.5q-7 -55 -28 -63q-41 -18 -77 35q-24 33 -38 83q-35 86 -72 150q-44 72 -83 150
q-6 13 -25 43t-28.5 55.5t-9.5 57.5l-9 -4q80 -11 117 -116q10 -28 26 -52q37 -74 83 -145q47 -72 73 -153q34 75 43 169l9 84q5 43 15 86q5 11 15 44.5t19 47.5q7 12 18 12q18 5 25 -5.5t7 -31.5zM49 566l-13 14zM113 566l-12 14zM49 553l-13 13zM127 553l-14 13zM140 540
l-13 13zM61 528l-12 12zM153 514l-13 14zM166 501l-13 13zM426 514l13 -13zM505 488l-14 13zM88 488l13 -13zM426 475l-13 13zM491 488l14 -13zM179 462l-13 13zM101 462l12 -13zM179 449l13 -14zM491 435l-13 14zM113 435l14 -12zM413 423l-12 12zM192 423l14 -13zM465 423
l13 -13zM127 410l13 -13zM465 410l13 -13zM218 383l-12 14zM140 383l13 -12zM231 358l-13 13zM166 345l-13 13zM244 345l-13 13zM258 331l-14 14zM179 319l-13 12zM258 331l12 -12zM283 293l-13 13zM218 267l-12 14zM296 267l-13 14zM231 240l-13 14zM310 240l-14 14z
M244 215l-13 13zM322 215l-12 13zM387 228l14 -13zM465 202l-12 13zM244 202l14 -14zM335 188l-13 14zM387 188l-13 14zM465 188l-12 14zM258 176l12 -13zM374 163l-14 13zM453 150l-14 13zM335 150l13 -14zM439 136l-13 14zM283 124l-13 12zM360 124l-12 12zM283 111
l13 -13zM426 98l-13 13zM426 84l-13 14zM310 59l-14 13zM322 32l-12 14zM413 32l-12 14zM335 7l-13 13zM335 20l13 -13zM387 20l14 -13z" />
    <glyph glyph-name="W" unicode="W" horiz-adv-x="588" 
d="M37 580l-7 13zM45 580l-8 13zM52 580l-7 13zM30 569l-8 11zM196 126q33 92 33 204q0 48 1.5 77.5t8 66t19.5 59.5q7 17 19 18.5t22.5 -6.5t18 -20t15 -28t11.5 -27.5t11.5 -31.5t11.5 -29q61 -156 88 -296q29 82 29 198v27q0 35 7 73q0 18 2 36.5t6.5 42.5t5.5 33
q12 18 21.5 12.5t14.5 -25.5q0 -16 -3 -36.5t-6 -34l-8 -36t-7 -29.5q-5 -80 -5 -130q0 -67 -16 -130q-2 -8 -5 -30l-2 -16q-6 -51 -29 -51q-20 0 -34 47l-6 20q-3 10 -5 21l-7 35q-11 49 -26 95l-32 96q-12 36 -70 181q0 -36 -8.5 -98.5t-8.5 -98.5q0 -30 -2 -60l-2 -30
q-3 -49 -14 -92q-3 -9 -5.5 -33.5t-8 -41.5t-16.5 -22q-18 -6 -29 14.5t-19 57t-11 42.5q-13 60 -47 157t-43 127l-6 18q-3 9 -6 17l-12 33q-12 32 -12 78l-6 -10q21 -5 35.5 -24.5t20.5 -40t13.5 -51.5t12.5 -45q5 -19 11 -36q12 -34 36 -100l12 -34q13 -36 31 -113z
M24 546l-8 13zM62 546l-8 13zM259 546l-8 13zM24 534l-8 12zM69 534l-7 12zM319 534l-8 12zM516 534l-8 12zM69 534l8 -13zM326 521l-7 13zM24 521l7 -13zM334 508l-8 13zM85 497l-8 11zM289 497l-8 11zM85 497l7 -13zM251 484l-7 13zM342 484l-8 13zM349 471l-7 13z
M501 484l7 -13zM46 471l8 -12zM244 459l-8 12zM539 471l7 -12zM92 459l8 -12zM311 447l-7 12zM501 447l-8 12zM539 459l7 -12zM62 435l-8 12zM349 447l8 -12zM100 435l7 -13zM281 422l-7 13zM311 435l8 -13zM62 422l7 -13zM236 409l-8 13zM364 409l-7 13zM531 422l8 -13z
M114 398l-7 11zM266 409l8 -11zM326 398l-7 11zM493 398l-7 11zM69 398l8 -13zM274 385l-8 13zM364 398l8 -13zM523 398l8 -13zM122 373l-8 12zM334 373l-8 12zM523 385l8 -12zM77 373l8 -13zM372 373l8 -13zM129 347l-7 13zM342 347l-8 13zM92 336l-7 11zM137 336l-8 11z
M387 336l-7 11zM137 336l7 -13zM349 323l-7 13zM395 323l-8 13zM100 310l-8 13zM152 310l-8 13zM395 323l7 -13zM357 298l-8 12zM410 298l-8 12zM160 286l-8 12zM410 286l8 -12zM114 274l8 -13zM167 261l-7 13zM380 248l-8 13zM418 261l7 -13zM122 248l7 -11zM175 237l-8 11
zM387 224l-7 13zM433 224l-8 13zM129 224l8 -13zM183 211l-8 13zM228 211l-7 13zM266 199l-7 12zM395 199l-8 12zM441 199l-8 12zM486 199l-8 12zM137 199l7 -13zM190 186l-7 13zM221 186l-8 13zM266 186l-7 13zM516 199l7 -13zM402 175l-7 11zM448 175l-7 11zM478 175
l-7 11zM523 175l-7 11zM144 175l8 -13zM213 162l-8 13zM259 149l-8 13zM410 149l-8 13zM471 149l-8 13zM198 137l-8 12zM251 137l-7 12zM516 137l-8 12zM152 137l8 -12zM198 137l7 -12zM456 125l-8 12zM508 125l-7 12zM410 125l8 -12zM463 113l-7 12zM160 113l7 -13z
M244 100l-8 13zM244 87l-8 13zM425 87l-7 13zM501 87l-8 13zM501 76l-8 11zM175 63l-8 13zM433 50l-8 13zM183 38l-8 12zM236 38l-8 12zM441 25l-8 13zM493 25l-7 13zM190 14l-7 11zM190 25l8 -11zM221 25l7 -11zM441 14l7 -13zM448 14l8 -13zM478 14l8 -13z" />
    <glyph glyph-name="X" unicode="X" horiz-adv-x="622" 
d="M28 597l13 -13zM582 83q0 -66 -53 -86q-6 20 -20.5 86.5t-26.5 98.5q-18 50 -42.5 86t-64.5 68q-30 -66 -49 -103.5t-52.5 -87t-69.5 -82.5q-39 -36 -87 -51q-8 47 28 95q12 17 44.5 52t46.5 55q42 64 89 176q-30 12 -63 31.5t-50 31.5t-55 40q-9 4 -36.5 17t-39 19.5
t-28 21t-25.5 33.5l-11 -11q20 6 38 8t36 -2t30.5 -7t31 -13t26.5 -15t27.5 -18t24.5 -16q8 -6 36 -25.5t47.5 -31.5t40.5 -21q3 7 9.5 24.5t10.5 26.5t12 24.5t14.5 24t17 19t21.5 15.5t26.5 8t32.5 1q-3 -13 -29 -65l-12 -24q-30 -59 -23 -91q0 -7 3.5 -15t7 -12
t10.5 -11.5t9 -8.5q21 -24 23 -29q50 -60 84 -171q10 -33 10 -65zM121 573l13 -13zM17 560l13 -13zM160 547l-13 13zM406 560l13 -13zM173 547l12 -13zM484 547l12 -13zM56 521l-13 13zM56 534l13 -13zM198 534l13 -13zM406 521l-13 13zM82 508l-13 13zM82 521l13 -13z
M471 521l13 -13zM108 495l-13 13zM121 495l-13 13zM237 495l-13 13zM380 508l13 -13zM134 482l-13 13zM147 482l-13 13zM250 482l-13 13zM458 495l13 -13zM160 469l-13 13zM173 469l-13 13zM263 469l-13 13zM367 482l13 -13zM445 482l13 -13zM173 469l12 -12zM315 444
l-13 13zM354 457l13 -13zM211 431l-13 13zM432 444l13 -13zM224 418l-13 13zM432 418l-13 13zM224 418l13 -13zM419 405l-13 13zM263 392l-13 13zM419 392l-13 13zM276 392l13 -13zM289 379l13 -13zM302 379l13 -13zM432 366l-13 13zM458 353l-13 13zM302 353l13 -13z
M471 340l-13 13zM289 340l13 -13zM471 340l13 -13zM367 327l13 -13zM484 327l12 -13zM276 314l13 -13zM367 301l-13 13zM341 301l13 -13zM509 288l-13 13zM263 288l13 -13zM341 288l13 -13zM432 275l13 -13zM522 262l-13 13zM263 249l-13 13zM328 249l13 -13zM535 236
l-13 13zM250 223l-13 13zM315 236l13 -13zM458 236l13 -13zM224 223l13 -13zM548 210l-13 13zM484 197l-13 13zM211 197l13 -13zM302 197l13 -13zM198 184l13 -13zM302 171l-13 13zM185 171l13 -13zM289 158l-13 13zM173 158l12 -12zM263 158l13 -12zM561 146l-13 12z
M160 146l13 -13zM263 133l-13 13zM147 133l13 -13zM484 133l12 -13zM134 120l13 -13zM237 120l13 -13zM574 107l-13 13zM121 107l13 -13zM224 107l13 -13zM108 94l13 -13zM211 94l13 -13zM496 94l13 -13zM198 81l13 -13zM95 68l13 -13zM185 68l13 -13zM173 55l12 -13z
M108 16l-13 13zM173 16l-13 13zM160 3l-13 13zM522 3l-13 13zM574 -10l-13 13z" />
    <glyph glyph-name="Y" unicode="Y" horiz-adv-x="434" 
d="M212 224q0 13 2 35t2 34q0 40 -16 69q-10 26 -27 47t-50 51t-38 35q-49 49 -63 85q39 5 71 -9t67 -40q42 -32 102 -116l-5 -3q9 17 26.5 53.5t32 63.5t31.5 49q13 13 31 13q21 0 21 -25q0 -30 -15 -65t-34 -61q-3 -7 -16.5 -32.5t-18 -35.5t-14.5 -34t-14 -40t-7.5 -39.5
t-3.5 -47.5q17 -101 11 -138q-8 -51 -49 -66q-26 122 -26 217zM16 589l13 -12zM67 589l12 -12zM333 589l13 -12zM92 577l13 -13zM117 551l-12 13zM16 551l13 -12zM320 551l13 -12zM396 551l13 -12zM308 539l12 -13zM384 539l12 -13zM396 513l-12 13zM181 501l-13 12z
M308 501l-13 12zM79 501l13 -13zM193 488l-12 13zM384 488l-13 13zM105 475l-13 13zM206 475l-13 13zM295 475l-13 13zM105 475l12 -12zM219 463l-13 12zM371 463l-13 12zM117 463l13 -13zM232 450l-13 13zM270 463l12 -13zM244 437l-12 13zM346 450l12 -13zM270 425l-13 12
zM168 412l-13 13zM257 412l-13 13zM333 425l13 -13zM333 386l-13 13zM193 374l13 -13zM308 374l12 -13zM308 336l-13 12zM206 336l13 -13zM282 336l13 -13zM282 310l-12 13zM206 285l13 -13zM270 247l12 -13zM270 196l12 -12zM206 171l13 -13zM219 32l13 -13zM282 6l-12 13z
" />
    <glyph glyph-name="Z" unicode="Z" horiz-adv-x="547" 
d="M29 611l11 -11zM17 595q53 15 140 15h37q13 0 38 -1t37 -1h61q62 0 74 -22q2 -6 2 -13t-1 -12.5t-3.5 -13t-4 -11.5t-5 -11l-4.5 -9q-5 -10 -15.5 -29.5t-15.5 -31.5q-14 -40 -56 -82l-34 -34q-17 -17 -30 -39q-21 -31 -48.5 -97t-43.5 -92q-7 -13 -16 -27h273
q41 0 66.5 -11.5t45.5 -36.5q-68 -24 -166 -19l-42 2q-13 1 -38.5 2.5t-46.5 2.5t-39 1h-30q-42 0 -64.5 17t-11.5 56q6 19 24 55t23 50q36 71 115.5 190t101.5 156q-20 0 -83.5 -3.5t-99.5 -3t-75.5 14t-52.5 43.5zM388 606l13 -11zM412 582l-11 13zM17 570l11 -12z
M412 546l-11 12zM317 546l11 -12zM388 546l13 -12zM388 522l-12 12zM304 522l13 -11zM376 522l12 -11zM292 498l12 -12zM376 474l-12 12zM280 474l12 -11zM364 450l-11 13zM269 450l11 -12zM340 438l13 -11zM256 427l13 -13zM328 414l12 -12zM233 402l11 -12zM221 390
l12 -11zM317 390l11 -11zM196 379l12 -13zM185 366l11 -12zM304 366l13 -12zM292 354l12 -11zM173 343l12 -12zM269 343l11 -12zM244 331l12 -13zM160 318l13 -12zM233 318l11 -12zM148 283l12 -13zM221 283l12 -13zM137 270l11 -12zM208 270l13 -12zM208 258l13 -11z
M124 234l13 -12zM196 234l12 -12zM185 222l11 -11zM112 211l12 -12zM185 211l11 -12zM173 199l12 -13zM101 186l11 -12zM173 186l12 -12zM160 174l13 -11zM89 163l12 -12zM160 163l13 -12zM76 138l13 -11zM148 127l12 -12zM64 115l12 -12zM137 103l11 -13zM53 90l11 -11z
M137 79l-13 11zM485 79l11 -12zM496 67l12 -13zM53 54l11 -11zM76 19l-12 12zM89 19l-13 12zM508 19l-12 12z" />
    <glyph glyph-name="bracketleft" unicode="[" horiz-adv-x="398" 
d="M61 621l10 -12zM366 -92q-41 -13 -109 -13q-19 0 -55.5 2t-55.5 2h-8q-3 0 -9.5 -1t-9.5 -1h-10q-18 0 -30 7t-18.5 20.5t-9 26.5t-4.5 34q-1 5 0 31t1 31v414q0 6 -1 19.5t-1 19.5v21q0 45 14 77q14 14 33.5 18.5t52.5 4.5h45q94 0 120 -44q-45 -14 -103 -14h-27
q-9 0 -26 1t-25 1h-25v-609q21 0 69.5 4t73.5 3q37 -2 69 -12q31 -11 48 -39zM290 617l12 -12zM50 605l12 -10zM302 605l10 -10zM302 573l10 -12zM345 -48l11 -10zM356 -58l10 -12zM50 -80l12 -12zM356 -92l10 -10z" />
    <glyph glyph-name="backslash" unicode="\" horiz-adv-x="421" 
d="M48 641q71 -25 91 -124q4 -18 17 -52q19 -62 51 -120l63 -117q25 -46 40.5 -76t34 -76t28.5 -87q-73 -12 -113 87l-21 51q-9 19 -31 64t-33.5 70t-28.5 63t-31 72.5t-26 69.5q-4 10 -13.5 32t-13 32.5t-10.5 34.5t-5.5 37.5t3.5 41.5zM88 641l14 -14zM34 627l14 -13z
M102 614l14 -14zM34 573l14 -14zM116 573l13 -14zM129 559l14 -13zM129 546l14 -14zM48 532l13 -14zM61 518l14 -12zM143 506l14 -15zM143 491l14 -13zM75 478l13 -14zM157 464l12 -14zM88 450l14 -13zM169 411l15 -15zM102 396l14 -14zM184 396l13 -14zM116 369l13 -14z
M197 369l14 -14zM143 342l-14 13zM211 342l14 -13zM143 329l14 -14zM238 287l-13 14zM157 287l12 -14zM238 287l13 -14zM169 260l15 -13zM251 260l13 -13zM184 247l13 -13zM264 220l15 -14zM197 206l14 -14zM279 192l14 -14zM225 165l-14 13zM293 165l13 -13zM238 138
l-13 14zM306 138l14 -13zM251 111l-13 14zM320 111l13 -15zM333 96l13 -12zM251 84l13 -14zM264 70l15 -13zM346 70l14 -13zM279 57l14 -14zM360 43l13 -14zM360 29l13 -13zM293 16l13 -14zM306 -12l14 -13zM360 -12l13 -13zM329 -27q17 0 30 -13h-16q-8 0 -15 7l-8 8l-1 -2
h10z" />
    <glyph glyph-name="bracketright" unicode="]" horiz-adv-x="409" 
d="M37 621l11 -12zM33 607q43 15 107 15h29q9 0 28 -1t29 -1h46q39 0 60 -11q9 -7 14 -18t7 -27.5t2.5 -26.5t0 -34t-0.5 -31v-404q0 -13 2 -38t2 -38q0 -47 -14 -79q-22 -22 -88 -22h-25h-38t-31 2.5t-30.5 6.5t-22 12.5t-18.5 21.5q46 14 106 14h27q8 0 26.5 -1t27.5 -1
h25v619q-21 0 -59.5 -2.5t-65 -3t-57 2.5t-52 14.5t-33.5 32.5zM343 607l11 -10zM33 586l11 -11zM44 575l12 -12zM88 -56l12 -11zM88 -89l12 -11zM343 -89l11 -11zM100 -100l11 -11zM331 -100l12 -11z" />
    <glyph glyph-name="asciicircum" unicode="^" horiz-adv-x="510" 
d="M147 648l-18 18zM165 648q-7 0 -7 7q0 3 8 11q13 -1 -1 -18zM200 648l-18 18zM128 630l-17 18zM39 325q-8 48 -2.5 96.5t18.5 89.5q36 119 110 119q87 14 185 -70q39 -34 72 -78t47 -88q-47 -13 -83.5 1.5t-74.5 46.5q-11 9 -57.5 54.5t-72.5 60.5q-6 -13 -21 -52.5
t-23 -56.5t-23 -45t-33.5 -46t-41.5 -32zM219 629l-19 18zM111 611l-19 18zM254 611l-18 18zM271 611l19 -18zM92 575l-17 18zM325 575l-17 18zM200 540l-18 17zM344 557l18 -17zM182 522l-17 18zM219 522l-19 18zM219 540l17 -18zM75 503l-18 19zM236 522l18 -19zM254 522
l17 -19zM379 522l19 -19zM271 503l19 -17zM398 503l18 -17zM57 468l-18 18zM165 449l-19 19zM308 468l17 -19zM451 449l-18 19zM470 432l-19 17zM39 414l-18 18zM146 414l-18 18zM128 395l-17 19zM379 395l-17 19zM21 378l-18 17zM128 378l-17 17zM470 378l-19 17zM21 360
l-18 18zM111 360l-19 18zM21 343l-18 17zM111 343l-19 17zM39 324l-18 19zM75 324l-18 19zM92 324l-17 19z" />
    <glyph glyph-name="underscore" unicode="_" horiz-adv-x="600" 
d="M34 -164l8 -9zM569 -197q-17 -6 -36.5 -9t-33.5 -3t-40 1t-40 1h-264q-12 0 -32 -2t-35.5 -2t-30.5 4q-9 0 -16.5 7.5t-7.5 16.5q11 22 59 22q12 0 33.5 -2t31.5 -2h345q50 0 68 -32h-1zM553 -164l8 -9zM25 -173l8 -8zM561 -173l8 -8zM25 -189l8 -8zM561 -197l8 -9z" />
    <glyph glyph-name="grave" unicode="`" horiz-adv-x="223" 
d="M32 661l11 5zM35 670l13 5zM38 678l13 6zM36 648q6 -3 8 -5l6 -12l-13 17h-1zM181 513q-54 6 -100 65q-12 16 -19.5 33t-8.5 38.5t11 40.5q9 -11 33.5 -38t36.5 -43q40 -53 48 -96h-1zM49 684l14 6zM45 622l13 5zM67 677l13 5zM51 609l12 6zM77 672l13 6zM83 660l11 5z
M74 589l13 6zM96 644l13 6zM101 631l13 5zM89 572l13 6zM111 628l13 4zM117 614l12 7zM103 556l14 6zM125 611l14 6zM109 543l11 6zM130 598l13 5zM140 594l13 5zM122 527l13 6zM154 578l13 5zM137 511l12 5zM159 565l12 5zM145 508l14 5zM164 552l14 5zM156 503l13 6z
M173 549l14 5zM169 509l12 4zM176 527l12 5zM179 536l14 6z" />
    <glyph glyph-name="a" unicode="a" horiz-adv-x="405" 
d="M318 459l-13 15zM279 120q-62 -13 -114 -13q-72 0 -106 27q-24 28 -24 71q0 89 57 159q26 32 57 43q18 9 40 10t38 -2t41 -10.5t35 -9.5q0 39 18 60q16 19 34 -8q18 -16 11 -53l-6 -33q-3 -17 -3 -31q0 -22 5 -84t2 -97q-7 -116 -72 -133q-13 33 -13 76v28zM134 408
l-14 14zM120 395l-12 13zM303 395l-14 13zM95 395l13 -13zM82 382l13 -12zM354 370l13 -14zM68 356l14 -13zM172 343l-13 13zM172 343q-32 -16 -49.5 -47t-8.5 -72q7 -38 39 -48.5t69 10.5q18 10 24.5 36t2 53t-16.5 45q-25 37 -60 23zM130 341l13 -12zM232 329l-12 12z
M52 329l12 -13zM130 329l13 -13zM116 316l14 -14zM52 289l-13 13zM116 302l14 -13zM104 289l12 -12zM104 277l12 -13zM27 237l12 -12zM91 225l13 -13zM104 199l-13 13zM91 199l13 -14zM116 185l14 -13zM247 172l-15 13zM39 160l-12 12zM272 108l-13 13zM337 121l13 -13z
M272 44l13 -15zM324 29l13 -12z" />
    <glyph glyph-name="b" unicode="b" horiz-adv-x="502" 
d="M112 605q-8 4 -18 7.5t-16 6.5t-13 10zM52 617l12 -12zM320 351q72 0 108 -30t36 -98q0 -99 -55.5 -151.5t-154.5 -52.5h-14h-18h-19.5t-16 1t-16.5 3.5t-11.5 7t-10.5 11.5h-24l-10 -6q-18 -18 -31 -18q-15 0 -26 13.5t-16 35.5t-7 41.5t-2 39.5v11q0 55 6 156t6 156v15
q0 5 -1 16.5t-1 17.5v16q0 41 15 56q16 21 33 11t17 -35q5 -28 5.5 -56.5t-2 -65t-2.5 -58.5q0 -5 -6 -77l-2 -24q-2 -58 10 -91q16 62 84 108q11 10 29.5 20t28.5 14t37 13h31zM30 359l12 -11zM233 348l12 -12zM401 348l12 -12zM222 336l11 -13zM413 336l12 -13zM90 323
l12 -11zM210 323l12 -11zM437 312l-12 11zM186 312l11 -12zM161 300l13 -13zM450 287l-13 13zM150 287l11 -11zM281 287l13 -11zM294 287l11 -11zM393 214q0 38 -23.5 56t-64.5 6v3q-97 -22 -131 -72q-41 -74 6 -109q22 -18 57.5 -18.5t66 10t50.5 25.5q26 20 35 54
q4 20 4 45zM138 279l12 -12zM258 279l11 -12zM269 279l12 -12zM125 267l13 -12zM245 267l13 -12zM114 255l11 -12zM222 255l11 -12zM197 243l13 -12zM102 231l12 -12zM174 231l12 -12zM161 219l13 -13zM90 206l12 -11zM161 206l13 -11zM150 170l11 -11zM377 147l12 -13z
M366 134l11 -11zM437 134l13 -11zM437 123l13 -12zM341 111l12 -12zM150 99l11 -12zM330 99l11 -12zM425 99l12 -12zM161 87l13 -12zM294 87l11 -12zM413 87l12 -12zM401 75l12 -12zM389 63l12 -12zM30 51l12 -12zM377 51l12 -12zM120 31q0 3 5 8h1q9 -4 2 -10q-6 -3 -8 2z
M342 39l12 -12zM354 39l13 -12zM43 27l12 -12zM55 27l12 -12zM121 19q0 3 5 8h1q9 -4 2 -10q-6 -3 -8 2zM332 27l11 -12z" />
    <glyph glyph-name="c" unicode="c" horiz-adv-x="511" 
d="M185 435l15 -14zM285 103q21 0 63 3t64 3q35 0 66 -10l-2 -3q-21 -40 -63 -61.5t-99 -19.5q-88 2 -161 43t-105 105q-23 44 -12 95q15 58 77 115q18 16 37.5 28.5t46.5 23.5t52.5 10.5t54.5 -10.5q30 -14 53 -50q-16 -4 -47.5 -9t-46.5 -9q-59 -15 -94 -40
q-63 -52 -42 -118q10 -30 37.5 -53t63.5 -33q26 -10 57 -10zM330 432l14 -14zM154 418l15 -15zM344 418l15 -15zM125 403l14 -15zM110 388l15 -14zM95 374l15 -15zM344 374l15 -15zM81 359l14 -15zM227 359l15 -15zM198 344l15 -14zM66 330l15 -15zM169 330l14 -15zM52 315
l14 -15zM139 315l15 -15zM139 300l15 -14zM37 286l15 -15zM125 271l14 -14zM110 242l15 -15zM110 198l15 -15zM37 169l15 -15zM139 154l15 -14zM52 140l14 -15zM183 125l-14 15zM198 125l15 -15zM403 125l14 -15zM66 110l15 -14zM242 96l-15 14zM330 110l14 -14zM461 110
l15 -14zM95 81l-14 15zM139 66l15 -14zM169 52l-15 14zM476 52l-15 14zM169 52l14 -15zM183 52l15 -15zM447 52l14 -15zM198 37l15 -15zM227 22l-14 15zM388 22l-15 15z" />
    <glyph glyph-name="d" unicode="d" horiz-adv-x="432" 
d="M392 282q0 -46 -4.5 -83t-17 -71.5t-32 -57.5t-51.5 -36.5t-75 -13.5q-46 0 -73.5 5t-52.5 22q-70 59 -45 158q11 44 40.5 81.5t66.5 57.5q39 21 85 21q47 0 91 -31v112l-4 1v14q0 7 -1 25t-1 25q0 22 3 41.5t13 35.5t27 12q12 -3 19 -16.5t9.5 -36t2.5 -41t-1 -45.5
t-1 -35v-59q0 -14 1 -43t1 -42zM306 349l-14 14zM306 349l14 -14zM111 335l14 -13zM97 322l14 -14zM97 294l-14 14zM209 294q-63 -32 -82 -98q-12 -45 5 -75.5t58 -34.5q28 -3 71 14q32 14 47.5 50.5t8.5 83.5q-8 42 -36.5 60.5t-71.5 -0.5zM302 292l-14 14zM79 278l-12 14z
M53 264l14 -14zM53 208l-14 14zM135 208l-14 14zM107 182l14 -14zM302 154l14 -14zM384 126l-14 14zM302 112l-14 14zM370 126l14 -14zM107 112l14 -13zM356 112l14 -13zM39 99l14 -14zM135 85l-14 14zM288 85l-14 14zM370 85l-14 14zM356 71l-12 14zM67 57l-14 14zM356 57
l-12 14zM344 29l-14 14zM302 15l-14 14zM316 15l-14 14z" />
    <glyph glyph-name="e" unicode="e" horiz-adv-x="463" 
d="M157 418l-14 14zM271 18q-13 0 -36.5 -2t-36.5 -2q-47 0 -75 19q-62 20 -80.5 94t2.5 150t64 109q38 31 94.5 38.5t107.5 -16.5q31 -16 48 -50q42 -81 -5 -117q-29 -23 -78.5 -25t-94 10t-71.5 30q0 -62 14 -90q18 -45 54 -63.5t97 -14.5q65 2 102 -8.5t60 -44.5l-4 -3
q-56 -14 -162 -14zM300 415l-15 14zM139 399l-16 16zM330 399l-16 16zM109 385l-15 14zM345 385l-15 14zM94 370l-15 15zM359 370l-14 15zM79 356l-14 14zM374 356l-15 14zM182 356l15 -15zM300 282q-20 63 -69 63q-43 0 -92 -49zM65 326l-15 15zM153 341l15 -15zM139 326
l14 -14zM123 312v-30v30zM36 296l14 -14zM227 296l15 -14zM123 238l-14 15zM374 223l-15 15zM359 208l-14 15zM109 164l14 -14zM50 121l-14 14zM123 135l16 -14zM50 105l15 -15zM153 105l15 -15zM418 76l-15 14zM65 76l14 -15zM433 61l-15 15zM433 17l-15 15z" />
    <glyph glyph-name="f" unicode="f" horiz-adv-x="430" 
d="M170 602l15 -16zM245 261q-26 -14 -67 -14h-39q0 -10 2.5 -59.5t0.5 -73.5q-7 -79 -65 -99l-2 -3q-40 172 -15 386q1 4 4 13q8 33 13.5 50t16 41.5t25 40t33.5 25.5q55 39 126 30q72 -11 111 -61.5t10 -122.5q0 -10 -11 -14t-21 0q-6 3 -13 14q-15 9 -25.5 28.5
t-16.5 36.5t-22 30t-42 13q-31 0 -53.5 -18.5t-34 -49t-16.5 -63t-5 -68.5q44 0 66 -14.5t40 -47.5zM338 599l15 -16zM137 583l15 -15zM353 583l15 -15zM122 568l15 -16zM368 568l16 -16zM106 552l16 -15zM91 537l15 -15zM384 537l15 -15zM183 522l16 -16zM199 522l16 -16z
M75 506l16 -15zM183 491l-15 15zM306 506l16 -15zM152 459l16 -14zM399 459l16 -14zM322 429l16 -16zM60 413l15 -15zM137 398l15 -15zM399 398l16 -15zM137 383l15 -15zM45 321l15 -15zM215 321l14 -15zM29 306l16 -16zM229 306l16 -16zM29 275l16 -16zM229 259l16 -15z
M60 43l15 -15zM122 28l15 -16z" />
    <glyph glyph-name="g" unicode="g" horiz-adv-x="506" 
d="M405 461q-17 0 -21 1.5t-14 11.5l-1 -2h9q16 0 27 -11zM249 460l12 -12zM452 177q0 -16 2 -45t2 -45q0 -53 -15 -90q-9 -48 -38.5 -85.5t-70.5 -59.5q-41 -21 -87.5 -24t-93.5 15q-44 10 -78 31.5t-43 54.5q-14 23 -15 47.5t15.5 40t48.5 9.5q0 -69 53.5 -104.5
t130.5 -20.5q45 9 82 41q57 57 49 187q-1 17 -1 34v32l-1 -6h-23q-7 0 -32 -0.5t-35.5 0t-28.5 2.5t-29.5 7t-19.5 14q-46 46 -35 113q9 60 59 97t109 7q11 8 21.5 10.5t19 -0.5t15.5 -8t13 -15.5t10.5 -18.5t9 -23t7 -23t6.5 -22.5t5 -19.5q0 -25 -6 -66t-6 -66zM332 454
l12 -12zM356 454l12 -12zM404 454l12 -12zM235 442l13 -12zM344 442l12 -12zM416 442l12 -12zM223 418l12 -12zM356 418l12 -12zM428 418l12 -12zM211 406l12 -12zM361 401q0 3 -5 5h-1q-10 -10 -5 -11q1 -2 6 0q5 5 5 6zM283 394l12 -12zM257 307q0 -19 15 -34q6 -9 15 -15
t23 -7.5t23 -2t29.5 0t28.5 0.5v85q-16 58 -60 56q-29 -3 -51.5 -27.5t-22.5 -55.5zM198 382l12 -12zM271 382l12 -12zM367 382l12 -12zM439 382l12 -12zM259 370l12 -12zM186 358l12 -12zM259 358l12 -12zM379 358l12 -12zM451 334l12 -12zM247 322l12 -12zM247 274l12 -12
zM186 262l12 -13zM271 262l12 -13zM198 237l12 -12zM451 237l12 -12zM65 32q-17 0 -21 1.5t-14 11.5l-1 -2h9q16 0 27 -11zM17 31l12 -12zM65 31l12 -12zM5 19l12 -12zM378 19l12 -12zM76 -17q-2 5 -5 5q-1 0 -6 -5q-1 -4 0 -5q1 -5 11 5zM366 -16l12 -12zM438 -16l12 -12z
M426 -28l12 -12zM5 -40l12 -12zM354 -40l12 -12zM426 -40l12 -12zM77 -52l12 -12zM414 -52l12 -12zM89 -64l12 -12zM342 -64l12 -12zM414 -64l12 -12zM17 -76l12 -12zM137 -88l-12 12zM318 -76l12 -12zM402 -76l12 -12zM137 -88l12 -12zM294 -88l12 -12zM402 -88l12 -12z
M185 -112l-12 12zM282 -112l-12 12zM390 -100l12 -12zM378 -112l12 -12zM65 -124l12 -12zM89 -136l-12 12zM366 -124l12 -12zM354 -136l12 -12zM113 -148l12 -12zM125 -148l12 -12zM306 -148l12 -12zM318 -148l12 -12zM282 -160l12 -12zM294 -160l12 -12z" />
    <glyph glyph-name="h" unicode="h" horiz-adv-x="475" 
d="M82 689l-18 17zM76 22q-22 91 -22 234q0 40 2 117t2 117q0 16 -2 47.5t-2 47.5q0 57 23 80q11 17 24.5 14.5t26.5 -15.5l15 -15q8 -27 8 -51v-26q0 -22 -4 -64.5t-4 -64.5q86 12 149 -18t99 -89q25 -42 33 -101v-33q0 -159 -86 -193q-27 79 0 157q0 30 -16 87
q-17 59 -47 87q-33 31 -74 -17q-34 -34 -34 -104v-29q0 -35 -1 -52t-7.5 -39t-19.5 -37q-17 -20 -57 -34zM198 439l-18 18zM267 439l-17 18zM302 422l-18 17zM337 404l-18 18zM354 387l17 -17zM250 352l-18 18zM371 370l18 -18zM198 335l-18 17zM250 352l17 -17zM267 352
l17 -17zM163 335l17 -18zM302 317l-18 18zM389 335l17 -18zM302 300l17 -17zM406 283l18 -18zM337 248l-18 17zM337 126l-18 17zM424 74l-18 17zM76 39l-18 18zM163 39l-18 18zM145 22l-17 17zM337 22l-18 17zM389 22l17 -18z" />
    <glyph glyph-name="i" unicode="i" horiz-adv-x="245" 
d="M70 615l-14 14zM123 490q-27 0 -47 19.5t-27 45.5q-12 39 21 60v-1q33 21 67.5 0t40.5 -54q7 -36 -25 -56q-14 -14 -30 -14zM154 614l-14 14zM56 600l-13 14zM167 600l-13 14zM181 587l-14 13zM56 517l-13 14zM181 489l-14 14zM84 392l-14 14zM96 15q-13 38 -13 99v151
q-8 5 -8 51q0 28 6 53t21 25q12 0 22 -16.5t15 -35.5l6 -24q4 -12 8 -22q0 -12 2.5 -71.5t0.5 -88.5q-7 -102 -58 -118zM138 306l14 -14zM82 264l-14 14zM96 29l-14 13zM138 29l14 -14z" />
    <glyph glyph-name="j" unicode="j" horiz-adv-x="271" 
d="M161 574l-10 11zM158 571q21 5 37.5 -10t11.5 -37q-6 -21 -33.5 -20t-33.5 20q-6 16 1 30t20 20zM202 571l-11 11zM148 560l-12 11zM213 560l-11 11zM136 539l-10 10zM136 506l-10 10zM213 494l-11 12zM158 375l-10 11zM211 276q0 -44 6 -125.5t6 -125.5
q0 -66 -14 -109.5t-50 -62.5q-44 -21 -83 -3.5t-48 57.5l-3 -4q11 4 26 4h14q54 0 78.5 16t24.5 64v26q0 33 -6 104t-6 103q0 9 -5 49.5t-2 67t19 35.5q22 17 32.5 -8.5t10.5 -59.5v-28zM210 350l-11 10zM155 328l-10 11zM221 197l-11 11zM155 186l12 -10zM167 -75l-12 11z
M145 -75l10 -10zM221 -85l-11 10zM36 -97l-11 12zM79 -97l-11 12zM123 -85l10 -12zM210 -85l11 -12zM91 -107l-12 10zM113 -107l-12 10zM210 -118l-11 11zM36 -129l-11 11zM199 -129l-11 11zM188 -140l-10 11zM47 -151l-11 11zM155 -140l12 -11zM133 -151l12 -10z" />
    <glyph glyph-name="k" unicode="k" horiz-adv-x="353" 
d="M81 621l-14 14zM56 10q-10 50 -11.5 114t1.5 115.5t7 121.5t4 117v33q0 37 11 71.5t32 39.5q12 0 19 -6.5t13.5 -20t9.5 -17.5q0 -36 -7 -99t-7 -99q13 5 49.5 24.5t54.5 24.5q33 10 54.5 0.5t39.5 -36.5q-53 -36 -141 -56q15 -19 36 -40l39 -39q19 -20 36 -42
q16 -23 27 -48q-75 -25 -155 55l-43 43q0 -7 3 -73.5t-1 -73.5q-10 -88 -75 -107zM71 563l-15 13zM127 563l14 -15zM141 534l-14 14zM254 435l-13 14zM312 435l-15 14zM226 420l-14 15zM325 420l-13 15zM198 407l-14 13zM184 392l-15 15zM156 379l-15 13zM325 379l-13 13z
M297 364l-15 15zM269 350l-15 14zM241 336l-15 14zM198 322l-14 14zM198 336l14 -14zM198 307l14 -13zM212 294l14 -15zM226 279l15 -15zM127 264l14 -13zM241 264l13 -13zM141 251l15 -15zM269 236l-15 15zM297 223l-15 13zM312 208l-15 15zM325 194l-13 14zM325 151
l-13 15zM56 95l-13 14zM127 53l-14 14zM56 25l-13 13zM99 25l14 -15z" />
    <glyph glyph-name="l" unicode="l" horiz-adv-x="188" 
d="M56 659l-13 13zM56 252q0 26 1 82t1 82v83q0 82 -15 160l-1 -1q39 7 57 -11.5t26 -57.5l9 -48q5 -62 5 -97v-48q0 -41 -3 -121.5t-3 -121.5v-24v-18v-19t-1 -15.5t-2.5 -16.5t-4.5 -12.5t-8 -13.5q-11 -14 -36 -25q-25 100 -25 243zM107 658l-13 13zM120 645l-13 13z
M55 619l-13 13zM120 580l13 -13zM55 567l13 -13zM133 554l-13 13zM68 541l-13 13zM81 21l-13 13zM120 21l13 -13z" />
    <glyph glyph-name="m" unicode="m" horiz-adv-x="616" 
d="M45 433l11 -16zM78 41q-10 52 -16 109.5t-10.5 147.5t-6.5 119l-5 -1h22q4 0 8.5 -0.5t8.5 -2t6.5 -2.5t6.5 -4t6 -4t6 -4.5t5 -4.5l5.5 -5.5l4.5 -4.5q28 41 70.5 48t81.5 -30l9 -9q27 -27 45 -27t35.5 5.5t40.5 17t30 14.5q23 10 41.5 6.5t30.5 -13.5t26 -30
q41 -72 41 -196q0 -142 -51 -161q-4 31 -6 62l-3 60q0 4 -1 13q-2 39 -4.5 61t-11.5 50.5t-23 42.5q-16 14 -33 14q-36 0 -67 -42q-16 -30 -26.5 -103.5t-22.5 -100.5q-12 -28 -42 -40q-4 32 -4 64q0 128 -17 196q-18 59 -56 55q-37 -4 -56 -55q-22 -42 -22 -117v-24
q0 -86 -46 -104zM86 432l11 -16zM142 432l11 -16zM245 432l11 -16zM97 416l12 -17zM119 416l11 -17zM268 416l10 -17zM404 416l11 -17zM483 416l11 -17zM109 399l10 -16zM278 399l11 -16zM369 399l12 -16zM506 399l11 -16zM40 383l11 -18zM347 383l11 -18zM528 365l-11 18z
M312 350l-11 15zM335 350l-11 15zM528 365l12 -15zM176 350l12 -15zM540 350l11 -15zM165 318l-12 17zM268 302l-12 16zM404 318l11 -16zM551 318l12 -16zM142 285l-12 17zM381 302l11 -17zM358 285l11 -16zM494 285l12 -16zM51 269l12 -17zM119 269l11 -17zM358 252l-11 17
zM347 252l11 -16zM335 137l12 -16zM63 74l11 -17zM324 74l11 -17zM109 57l10 -16zM268 57l10 -16zM312 41l12 -17zM506 41l11 -17zM563 8l-12 16z" />
    <glyph glyph-name="n" unicode="n" horiz-adv-x="551" 
d="M65 408l-16 17zM434 11q-8 27 -8 59v58q0 19 -6 39q-12 95 -72 135q-23 17 -48 14.5t-44.5 -14t-37.5 -31.5q-4 -6 -8.5 -13.5t-8 -14t-7.5 -16t-6 -14.5t-6.5 -16.5t-6 -15.5t-6 -17t-5.5 -16l-24 -69q-10 -27 -31 -70q-43 24 -56.5 77.5t-8.5 133.5q3 43 3 82v33
q0 19 3 35t14 28.5t29 6.5q15 0 24 -24t14 -57t8 -40q9 23 15.5 35.5t18.5 27.5t28 24q30 25 60.5 38t65.5 10.5t68 -22.5q40 -25 67.5 -73.5t33.5 -105.5q0 -3 2.5 -15.5l3.5 -17.5t3 -16.5t2.5 -19t1 -17.5t0 -19t-2.5 -17q-9 -61 -72 -85zM265 404l-16 17zM374 421
l14 -17zM233 387l-15 17zM420 387l-16 17zM203 369l-16 18zM451 369l-16 18zM187 352l-16 17zM466 352l-15 17zM171 337l-16 15zM140 337l15 -19zM310 318l-14 19zM279 302l-14 16zM466 318l15 -16zM140 283l-15 19zM249 283l-16 19zM498 283l-17 19zM218 283l15 -16z
M404 267l-16 16zM218 251l-15 16zM203 216l-16 17zM187 181l-16 18zM498 181l15 -17zM420 164l15 -17zM171 113l-16 17zM435 78l-15 17zM155 62l-15 16zM140 44l-15 18zM63 27l-16 17zM140 27l-15 17zM435 27l-15 17zM513 27l-15 17zM78 9l-15 18zM125 9l-16 18zM481 27
l17 -18z" />
    <glyph glyph-name="o" unicode="o" horiz-adv-x="583" 
d="M274 442q108 0 179 -52q22 -22 41 -54t32 -69.5t11.5 -79.5t-21.5 -78q-49 -89 -211 -89q-147 0 -235 72q-34 48 -32.5 118.5t31.5 124.5q21 38 52 57q25 21 61 31l36 9q14 3 37 10h19zM382 442l16 -17zM116 425l17 -17zM415 425l17 -17zM100 408l16 -16zM432 408l17 -16
zM83 392l17 -16zM465 376l-16 16zM482 359l-17 17zM83 342l-17 17zM182 359l17 -17zM216 342l-17 17zM322 104q34 0 60 6q38 15 52 48t2 81q-7 26 -21 52q-56 77 -147 67q-40 -4 -53 -17q-26 -6 -48.5 -26t-34.5 -44q-30 -62 17 -96q17 -34 66.5 -52.5t106.5 -18.5zM65 325
l-16 16zM149 341l16 -16zM497 325l-16 16zM165 308l-16 17zM514 308l-17 17zM49 275l-16 16zM149 275l-17 16zM414 291l17 -16zM530 275l-16 16zM115 275l17 -16zM115 259l17 -17zM132 159l-17 16zM149 159l16 -17zM49 126l-16 16zM198 126l-17 16zM431 142l17 -16zM265 126
l16 -17zM414 109l-17 17zM49 109l16 -17zM514 92l16 -17zM497 75l17 -16zM448 59l16 -16zM464 59l17 -16zM431 26l-17 17zM448 26l-17 17z" />
    <glyph glyph-name="p" unicode="p" horiz-adv-x="537" 
d="M192 431l13 -13zM218 429q8 0 38 -12q-38 0 -51 14zM61 -182q-16 74 -16 187q0 32 2 94.5t2 94.5v16q0 7 -1 21t-1 21v22q0 55 17 80q5 11 17.5 18.5t35 14t28.5 8.5q180 60 256 2q46 -38 71.5 -104t1.5 -129q-17 -46 -76.5 -65.5t-130.5 -8.5q-70 11 -147 45
q0 -27 5 -84.5t5 -87.5q0 -115 -61 -134zM368 405l-15 13zM140 405l14 -14zM394 391l-13 14zM70 391q17 0 29 -11h-15q-12 0 -23 11h9zM126 391l12 -12zM406 379l-14 12zM45 379l14 -14zM112 379q-15 -15 -1 -15q2 2 3.5 4t3 4.5t0 4.5t-5.5 2zM418 364l-13 14zM431 350
l-13 14zM191 350l14 -12zM205 350l13 -12zM302 146q25 0 47 5q28 11 39.5 35.5t8 52t-18.5 57.5q-17 23 -41.5 37t-55.5 17.5t-63 -12.5l1 -2q-40 -10 -66 -57q-12 -22 -9 -43t21 -34q15 -27 52.5 -41.5t84.5 -14.5zM166 336l13 -14zM445 322l-13 14zM166 322l13 -14z
M459 308l-14 14zM152 295l14 -13zM379 295l13 -13zM473 282l-14 13zM138 282l14 -14zM138 268l14 -13zM138 202l14 -13zM166 189l13 -14zM192 175l14 -13zM392 175l14 -13zM259 162l13 -13zM366 162l13 -13zM459 135l14 -12zM445 123l14 -15zM406 108l13 -13zM419 108
l13 -13zM379 95l13 -13zM392 95l14 -13zM45 -158l14 -13zM98 -171l14 -14z" />
    <glyph glyph-name="q" unicode="q" horiz-adv-x="518" 
d="M122 449l12 -11zM146 450q7 0 11.5 -1.5t10.5 -5.5t8 -5q-31 0 -42 11zM328 193q-4 -1 -15 -4t-14.5 -4t-13 -3.5t-14.5 -3.5t-14 -2.5t-15.5 -2t-15.5 -1t-18 -0.5h-24q-77 0 -120 50t-19 127q11 35 34 63q51 44 125 30q41 -7 125 -42q4 -4 10 -7l12 -6q15 -7 22 -19
q10 -23 10 -58v-18q0 -33 -5 -97.5t-5 -97.5q4 -15 15 -25.5t29 -22.5l30 -21q16 -11 23 -27q-21 -5 -31.5 -5t-32 3t-34.5 3q0 -16 2.5 -49t3.5 -56t-2 -49t-15 -42.5t-33 -21.5q-13 46 -13 114v29q0 9 1 28t1 29v28q-58 0 -58 24q0 21 59 31q0 81 10 126zM263 444l11 -11z
M88 433l11 -10zM284 433l11 -10zM76 423l12 -11zM295 423l12 -11zM65 412l11 -12zM307 412l10 -12zM317 400l11 -11zM372 389q-16 0 -21 1.5t-12 9.5l-1 -1h8q16 0 26 -10zM54 388l10 -10zM131 388l10 -10zM141 388l11 -10zM221 220q24 0 39 4q33 13 37.5 50t-15.5 70
q-15 18 -34.5 29.5t-44.5 14.5t-51 -10l-1 1q-25 -7 -44.5 -30t-16.5 -51q2 -17 18 -29q12 -23 43.5 -36t69.5 -13zM326 389l11 -10zM370 389l10 -10zM42 379l11 -11zM107 379l11 -11zM107 368l11 -12zM30 346l12 -11zM97 346l10 -11zM282 346l11 -11zM86 335l11 -11z
M86 324l11 -10zM86 270l11 -12zM107 258l11 -11zM30 247l12 -10zM130 247l10 -10zM293 247l12 -10zM184 237l11 -12zM272 237l10 -12zM42 225l11 -11zM305 193l10 -12zM315 193l11 -12zM282 181l11 -10zM293 181l12 -10zM315 160l11 -11zM370 127l10 -11zM249 62l12 -11z
M403 51l-12 11zM238 51l11 -12zM435 51l12 -12zM447 39l10 -10zM238 29l11 -11zM457 29l11 -11zM457 -3l11 -12zM315 -201l11 -11zM359 -212l11 -10z" />
    <glyph glyph-name="r" unicode="r" horiz-adv-x="491" 
d="M63 7q-23 81 -23 198q0 34 2 101t2 101q0 105 42 84q39 -20 71 -103q19 40 59 63t93 23q52 0 92.5 -23t59.5 -62q-21 -6 -62.5 -9.5t-58.5 -6.5q-73 -14 -107 -61q-19 -23 -32 -55.5t-27.5 -81t-20.5 -66.5q-29 -81 -89 -101zM177 465l19 -19zM425 465l19 -19zM177 426
l-19 20zM444 446l19 -20zM158 388l-19 20zM444 388l19 -19zM234 350l19 -19zM215 312l19 -19zM196 293l19 -19zM196 217l-19 19zM177 179l-19 18zM158 140l-19 20zM139 140l19 -18zM63 26l-20 19zM139 7l-19 19z" />
    <glyph glyph-name="s" unicode="s" horiz-adv-x="400" 
d="M149 488l17 -18zM98 115q12 0 34 9t34 9l101 51v33l-7 -5q-26 13 -51 18q-26 4 -51 18q-64 64 -64 137q0 25 14 51q36 58 109 48q32 -5 57 -22.5t38 -42.5q-22 -8 -44.5 -12t-38.5 -4.5t-51 -0.5q3 -8 8 -16t9.5 -14t13 -14t12 -12t14.5 -12.5t13.5 -10.5t15.5 -11.5
t14 -10.5t13.5 -10t16.5 -12.5t15.5 -13.5t15.5 -15.5t12 -15.5t10 -18t3.5 -18.5t-1.5 -21t-10 -20.5q-44 -63 -166 -113q-71 -29 -107 -29q-26 0 -36 8.5t0 28.5q9 19 40 49zM277 483l17 -18zM108 465l17 -16zM294 465l17 -16zM91 449l17 -17zM294 415l17 -17zM176 398
l17 -17zM176 365l17 -17zM91 348l17 -17zM193 348l17 -17zM210 331l17 -17zM108 314l17 -17zM227 314l16 -17zM260 297l17 -17zM294 280l17 -17zM142 263l17 -17zM327 263l18 -17zM345 246l16 -17zM193 229l17 -17zM210 229l17 -17zM361 229l17 -17zM227 179l16 -18z
M193 161l17 -16zM361 161l17 -16zM159 145l17 -17zM327 145l18 -17zM108 128l17 -17zM311 128l16 -17zM74 111l17 -16zM294 111l17 -16zM41 77l-18 18zM243 95l17 -18zM260 95l17 -18zM23 61l-16 16zM227 61l-17 16zM243 61l-16 16zM176 61l17 -17zM193 61l17 -17zM7 44
l16 -17zM159 44l17 -17zM142 10l-17 17z" />
    <glyph glyph-name="t" unicode="t" horiz-adv-x="429" 
d="M169 330q-11 0 -32 -2t-33 -2q-48 0 -65 17q-5 18 5 30.5t30.5 18.5t40.5 8.5t41 2.5h14l-5 -4v19q0 8 -1 23.5t-1 23.5v24q0 57 20 85.5t71 15.5q-14 -57 -14 -190h26q51 0 81 -14.5t54 -45.5q-56 -13 -118 -13h-43q0 -29 7 -78.5t8 -69.5q2 -40 1 -75t-15.5 -61.5
t-43.5 -35.5q-28 97 -28 323zM238 560l15 -15zM34 399l14 -15zM370 399l14 -15zM19 384l15 -14zM384 384l15 -14zM19 355l15 -15zM384 340l15 -14zM253 180l-15 14zM165 180l15 -15zM180 33l14 -14zM253 4l-15 15z" />
    <glyph glyph-name="u" unicode="u" horiz-adv-x="478" 
d="M439 355q0 -32 6 -98.5t6 -100.5q0 -56 -19 -97t-58 -51l-16 82h-4q-56 -24 -109 -24q-90 0 -146 51.5t-73 136.5v10q0 6 -1 17.5t-1 17.5v43q0 110 37 124q27 9 38.5 -12t11.5 -55v-13q0 -148 62 -205q25 -24 69 -24q34 0 58 24t35.5 64t16.5 78t5 79v29q0 26 12 43.5
t36 9.5q8 -3 14.5 -7.5t10 -13t6 -14.5t3 -18.5t0.5 -19v-22v-21.5v-13zM44 465l-17 17zM338 286l16 -16zM125 253l-16 17zM321 253l17 -16zM27 237l17 -17zM125 237l16 -17zM321 204l-16 16zM44 204l16 -16zM141 204l16 -16zM157 188l17 -17zM60 171l17 -16zM174 171
l16 -16zM289 171l16 -16zM207 139l-17 16zM289 139l-17 16zM125 90l16 -16zM141 90l16 -16zM338 90l16 -16zM157 74l17 -16zM174 74l16 -16zM289 74l16 -16zM305 74l16 -16zM370 25l-16 16zM435 8l-16 17z" />
    <glyph glyph-name="v" unicode="v" horiz-adv-x="434" 
d="M346 448l-16 15zM267 124q4 19 6.5 66t3.5 61q5 68 19 114t46 70q22 16 60 12q-12 -45 -24.5 -142t-22.5 -138q-4 -20 -9 -40q-5 -9 -12 -26l-12 -30q-10 -24 -28.5 -40t-44.5 -11q-43 8 -63 79q-12 22 -43.5 76t-48 85t-37.5 80.5t-32 94.5q52 5 98 -54q45 -57 97 -201
q7 -20 23 -55h29zM32 433l-14 14zM106 418l-14 15zM325 418l-14 15zM399 404l-15 14zM32 388l-14 16zM311 388l-15 16zM399 388l-15 16zM106 388l15 -14zM370 388l14 -14zM47 359l-15 15zM370 374l14 -15zM121 359l14 -14zM47 345l14 -15zM282 345l14 -15zM355 330l15 -14z
M61 316l15 -15zM164 301l-14 15zM355 316l15 -15zM76 285l16 -14zM179 271l-15 14zM92 271l14 -15zM179 242l14 -15zM106 227l15 -14zM208 198l-15 15zM121 198l14 -14zM208 184l14 -15zM150 155l-15 14zM282 155l-15 14zM238 139l-16 16zM355 139l-14 16zM164 124l-14 15z
M355 124l-14 15zM341 110l-16 14zM179 95l-15 15zM341 95l-16 15zM193 66l-14 15zM325 52l-14 14zM208 37l-15 15zM311 23l-15 14zM282 23l14 -16z" />
    <glyph glyph-name="w" unicode="w" horiz-adv-x="607" 
d="M532 424l-12 12zM253 135q0 85 35 130q0 26 23 36t40 -12q6 -9 9 -19l6 -21q26 -65 51 -103q9 -13 18 -27l-4 -4q0 76 14 133t44 117l8 16q12 25 30 35t51 4q-20 -76 -46 -139q-33 -81 -39 -141v-29q0 -56 -35 -67q-14 -7 -27.5 -4.5t-23 5.5t-19.5 13t-16.5 18.5t-14 22
t-12.5 24t-11 23.5t-10 20q0 -12 -6 -36t-6 -36q-8 -31 -27 -54.5t-47 -23.5q-18 0 -36 18q-32 41 -60 103l-24 54q-14 33 -25 50q-55 55 -64 101q-5 20 6.5 36t26.5 8q26 -13 53 -60q10 -20 15 -24q5 -10 10 -19l10 -18q10 -18 30 -36q6 -13 15.5 -36t16 -36.5t17.5 -31.5
t24 -31v41zM516 396l-12 12zM18 396l12 -13zM78 383l-12 13zM577 383l-12 13zM504 371l-12 12zM577 371l-12 12zM78 371l13 -12zM565 359l-12 12zM492 347l-12 12zM553 359l12 -12zM30 335l-12 12zM91 347l12 -12zM468 335l12 -12zM30 323l12 -12zM115 311l-12 12zM553 311
l-12 12zM115 311l12 -12zM359 299l-14 12zM456 311l12 -12zM139 286l-12 13zM298 286l-12 13zM541 286l-13 13zM66 274l-12 12zM456 274l-12 12zM516 286l12 -12zM151 262l-12 12zM286 262l-12 12zM371 238l-12 12zM516 238l-12 12zM91 238l12 -12zM176 226l-13 12zM274 226
l-14 12zM444 214l-13 12zM115 200l-12 14zM176 214l12 -14zM371 214l12 -14zM127 176l-12 12zM200 176l-12 12zM383 188l12 -12zM504 176l-12 12zM212 152l-12 12zM334 152l-12 12zM395 164l12 -12zM248 152l12 -12zM151 128l-12 12zM212 140l12 -12zM310 140l12 -12z
M345 128l-11 12zM407 140l12 -12zM310 128l12 -13zM163 103l-12 12zM224 115l12 -12zM359 103l-14 12zM248 91l-12 12zM163 91l13 -12zM383 67l-12 12zM176 67l12 -12zM310 55l-12 12zM492 55l-12 12zM492 43l-12 12zM200 31l-12 12zM456 43l12 -12zM468 43l12 -12zM286 31
l12 -13zM274 18l12 -12z" />
    <glyph glyph-name="x" unicode="x" horiz-adv-x="552" 
d="M326 454l-15 13zM339 454l-13 13zM352 454l-13 13zM35 441l-13 13zM520 142q0 -21 -27 -21t-56 29l-12 12q-12 6 -32 18.5t-34 19.5q-34 34 -91 55q-10 -21 -30.5 -69t-39 -82.5t-40.5 -59.5q-26 -29 -60 -39q-3 27 1 52.5t16.5 53t19 40t23.5 41.5q46 75 59 103
q-37 13 -61.5 24t-54 28.5t-49.5 41t-30 52.5l-6 -5q47 8 116 -28q5 -2 108 -66l21 39q35 66 99 55q-3 -7 -20 -38t-21 -51q-3 -14 0.5 -26.5t9.5 -21t18 -17.5t19.5 -13.5t22.5 -12.5t20 -11q3 -2 23.5 -13.5t27 -15.5t20.5 -14t22 -20t14 -22q4 -8 4 -18zM305 436l-13 13z
M359 436l-13 13zM292 423l-12 13zM280 409l-13 14zM359 409l-13 14zM16 409l13 -13zM122 396l-14 13zM346 409l13 -13zM161 383l-13 13zM267 383l-13 13zM29 383l15 -13zM188 370l-14 13zM346 370l-13 13zM57 356l-13 14zM254 356l-14 14zM333 356l-13 14zM69 344l-12 12z
M69 356l13 -12zM227 344l-14 12zM320 344l-15 12zM95 331l-13 13zM108 331l-13 13zM122 331l14 -14zM136 331l12 -14zM161 304l-13 13zM174 290l-13 14zM188 290l-14 14zM346 290l-13 14zM201 277l-13 13zM213 277l-12 13zM371 277l-12 13zM213 265l-12 12zM412 252l-13 13z
M201 238l-13 14zM280 238l-13 14zM292 238l-12 14zM425 238l-13 14zM188 224l-14 14zM267 224l-13 14zM305 238l15 -14zM333 224l-13 14zM438 238l13 -14zM333 224l13 -13zM477 211l-13 13zM254 198l-14 13zM491 198l-14 13zM174 186l-13 12zM505 186l-14 12zM240 173
l-13 13zM385 186l14 -13zM399 186l13 -13zM148 173l13 -14zM412 173l13 -14zM530 159l-12 14zM148 145l-12 14zM227 145l-14 14zM227 132l-14 13zM136 119l-14 13zM213 119l-12 13zM477 119l-13 13zM108 119l14 -12zM201 107l-13 12zM530 107l-12 12zM201 93l-13 14zM108 80
l-13 13zM188 67l-14 13zM95 53l-13 14zM174 53l-13 14zM161 40l-13 13zM161 27l-13 13zM95 14l-13 13zM136 14l12 -13z" />
    <glyph glyph-name="y" unicode="y" horiz-adv-x="453" 
d="M138 434l-12 12zM392 434q22 0 22 -34v-163q0 -267 -103 -382q-29 -29 -77 -32.5t-91 13t-63 42.5q-15 10 -27.5 32.5t-17.5 37.5t-14 46q16 3 29 0t24.5 -11.5t18.5 -16t17.5 -21t15.5 -18.5l3 -3q7 -8 11.5 -13t14 -13.5t17.5 -12.5t18.5 -8.5t22 -4t23.5 4.5
q44 14 76 82q46 112 46 255h-6q-102 -74 -174 -46q-29 10 -45 45q-11 33 -11 87v37q0 4 -1 10.5t-1 10.5v12q0 29 15 52q6 12 16 12t18 -7.5t13 -16.5q4 -5 3 -50.5t0 -55.5q2 -35 11.5 -54.5t33.5 -24.5q21 -4 38.5 4.5t29 22.5t22 38t16 42.5t12.5 44.5t11 37q9 27 33 20z
M352 365l-12 11zM340 318l-11 12zM317 307l12 -12zM317 272l-11 12zM306 249l-12 11zM190 237l-12 12zM282 249l12 -12zM271 226l-12 11zM120 226l12 -12zM213 214l-12 12zM248 214l-12 12zM340 214l12 -12zM340 191l-11 11zM143 191l12 -12zM329 179l-12 12zM166 168
l-11 11zM178 168l-12 11zM306 168l-12 11zM190 156l-12 12zM201 156l-11 12zM259 156l-11 12zM271 156l-12 12zM352 75l-12 11zM410 63l-12 12zM410 52l-12 11zM340 17l-11 11zM398 5l-11 12zM27 -6l-11 11zM74 -6l-12 11zM329 -6l-12 11zM398 -6l-11 11zM317 -18l-11 12z
M387 -18l-12 12zM85 -30l-11 12zM387 -30l-12 12zM27 -41l-11 11zM375 -41l-11 11zM85 -41l12 -12zM306 -53l-12 12zM39 -64l-12 11zM364 -64l-12 11zM97 -64l11 -12zM294 -76l-12 12zM352 -64l12 -12zM50 -88l-11 12zM120 -88l-12 12zM340 -76l12 -12zM132 -99l-12 11z
M282 -99l-11 11zM352 -99l-12 11zM155 -111l-12 12zM271 -111l-12 12zM340 -111l-11 12zM62 -122l-12 11zM178 -122l-12 11zM248 -111l11 -11zM340 -122l-11 11zM329 -146l-12 12zM108 -157l-11 11zM108 -146l12 -11zM317 -157l-11 11zM132 -169l-12 12zM143 -169l-11 12z
M306 -169l-12 12zM143 -169l12 -11zM155 -169l11 -11zM259 -169l12 -11zM271 -169l11 -11z" />
    <glyph glyph-name="z" unicode="z" horiz-adv-x="512" 
d="M76 449l-15 15zM257 386q-17 0 -51 -2t-52 -2q-71 0 -92 19q0 15 6.5 25t21.5 22t18 15h61q66 0 106 -14q30 -8 43 -31.5t3 -59.5q-52 -192 -212 -257q33 0 102.5 5t105.5 5q133 0 173 -70q-100 -25 -230 -25q-61 0 -134 11q-8 3 -17 6l-18 6q-71 22 -56 79
q6 22 19.5 36.5t36.5 28.5l20 12q45 27 59 41q16 11 30 30.5t21 35t19 44.5t17 40zM303 447l-15 15zM60 432l-15 15zM318 432l-15 15zM333 416l-15 16zM60 401l-15 15zM242 386l15 -15zM257 356l-15 15zM333 341l-15 15zM242 325l-15 16zM333 325l-15 16zM318 310l-15 15z
M227 295l-15 15zM318 295l-15 15zM303 280l-15 15zM212 265l-15 15zM303 265l-15 15zM197 234l-15 16zM182 219l-16 15zM288 219l-15 15zM151 204l-15 15zM273 204l-16 15zM121 189l-15 15zM91 174l-16 15zM257 174l-15 15zM60 159l-15 15zM242 159l-15 15zM45 143l-15 16z
M227 143l-15 16zM30 128l-15 15zM197 128l-15 15zM166 113l-15 15zM106 113l15 -15zM470 83l-15 15zM30 68l-15 15zM485 68l-15 15zM45 37l-15 15zM60 37l-15 15zM75 22l-15 15zM91 22l-16 15zM485 22l-15 15z" />
    <glyph glyph-name="braceleft" unicode="{" horiz-adv-x="368" 
d="M133 618l11 -9zM171 563q-1 -7 -5 -28.5t-5.5 -30.5t-4 -27.5t-4 -31t-2.5 -30t-1 -33.5q0 -10 3 -25l6 -30q9 -35 1 -55q-5 -8 -13 -12l-18 -9q-22 -9 -29 -21q-13 -10 -18.5 -32.5t-2.5 -47.5q1 -8 1 -14v-12h15q24 0 45 -10q33 -29 18 -113q-12 -81 41 -105
q10 -4 18 -1t13 6.5t10 12t8 15t6.5 15.5t6.5 14q7 20 19 24.5t42 4.5q-2 -6 -4 -17.5t-3 -15.5l-9 -36q-3 -13 -6 -22.5t-8 -21t-11 -18t-15.5 -13t-20.5 -6t-27 2.5q-38 9 -66 27q-48 59 -41 156q1 14 1 28v26q-52 7 -72.5 55.5t2.5 102.5q24 52 73 73l-5 -7
q-10 33 -11.5 75t1.5 70.5t10 76.5q4 10 7.5 27t8 30t13.5 23q29 17 75 12.5t64 -24.5q14 -7 20.5 -29t-9.5 -32q-15 -6 -29 4l-12 9q-4 3 -10 9q-22 11 -66 11zM269 611l9 -9zM119 602l9 -12zM278 602l10 -12zM297 571l12 -9zM238 562l10 -11zM258 541l11 -10zM109 531
l10 -9zM297 531l12 -9zM159 522l11 -11zM159 511l11 -10zM99 491l10 -9zM148 482l11 -11zM148 471l11 -9zM148 332l11 -10zM99 322l10 -9zM79 301l9 -9zM159 301l11 -9zM59 292l10 -10zM48 282l11 -11zM39 271l9 -10zM159 261l11 -10zM29 251l10 -9zM88 251l11 -9zM99 251
l10 -9zM79 242l9 -11zM79 132l9 -9zM139 123l9 -11zM29 112l10 -11zM148 112l11 -11zM39 92l9 -10zM48 92l11 -10zM69 82l10 -10zM278 2l10 -9zM288 2l9 -9zM297 2l12 -9zM269 -7l9 -11zM309 -7l9 -11zM258 -18l11 -10zM309 -28l9 -10zM309 -38l9 -9zM248 -47l10 -11z
M297 -58l12 -11zM159 -69l11 -9zM297 -69l12 -9zM109 -78l10 -10zM109 -88l10 -9zM170 -88l9 -9zM238 -88l10 -9zM119 -97l9 -11zM179 -97l10 -11zM288 -97l9 -11zM189 -108l9 -10zM288 -108l9 -10zM128 -118l11 -10zM139 -128l9 -9zM148 -137l11 -11zM159 -148l11 -9z
M170 -157l9 -11zM179 -157l10 -11zM278 -157l10 -11z" />
    <glyph glyph-name="bar" unicode="|" horiz-adv-x="260" 
d="M107 706q11 -5 14 -6l16 -8q-6 3 -12 5t-9.5 3.5t-8.5 5.5zM99 699l7 -8zM157 -186q0 -62 -36 -73l2 -6q-13 65 -9 143l2 36q1 11 2.5 33t2.5 40t1 34q0 28 2 80t2 93.5t-4 78.5q-2 20 -12 87t-10 105v188q0 6 0.5 12.5t3 14.5t6.5 9.5t10 -1.5q16 -8 16 -38v-175
q0 -32 4 -65.5t10.5 -73t9.5 -61.5q9 -206 -9 -366q0 -12 3 -46.5t3 -48.5zM139 441l8 -9zM108 424l-7 8zM139 432l8 -8zM101 424l7 -7zM108 364l8 -9zM147 364l8 -9zM108 355l8 -7zM147 355l8 -7zM116 302l7 -7zM155 302l8 -7zM116 295l7 -8zM155 295l8 -8zM116 287l7 -8z
M123 -81l-7 8zM155 -81l8 -7zM155 -88l8 -8zM116 -249l7 -9zM147 -258l8 -7z" />
    <glyph glyph-name="braceright" unicode="}" horiz-adv-x="369" 
d="M72 617l10 -10zM277 285q0 4 -1 14.5t-1 14.5v12q-37 0 -60 11q-32 19 -16 108q2 11 2 22q0 36 -9.5 57t-32.5 32q-14 4 -24.5 -1.5t-15 -14t-10.5 -23t-10 -20.5q-6 -19 -17 -23.5t-40 -4.5q1 3 2.5 9.5t2.5 10.5l9 36q9 42 27 62.5t60 14.5q30 -5 63 -26
q49 -57 42 -155q-1 -14 -1 -28v-26q51 -9 72 -56t-3 -101t-71 -67q21 -81 0 -218q-3 -9 -7 -27t-9 -30.5t-14 -20.5q-26 -18 -71.5 -14t-64.5 23q-4 4 -9.5 12t-11 18.5t-3.5 19t13 11.5q12 8 29 -5l12 -9q5 -4 10 -4q16 -10 52 -10h17q0 30 9 90t9 90q0 11 -3 26l-6 30
q-8 30 -2 53q5 8 13 12l36 18q8 4 13 12q20 14 20 50v15zM166 604l11 -10zM177 604l10 -10zM187 594l9 -10zM196 584l10 -9zM206 575l9 -10zM215 565l11 -10zM58 555l10 -10zM166 545l-9 10zM58 545l10 -11zM177 534l-11 11zM226 545l10 -11zM107 534l10 -8zM187 526l-10 8z
M236 534l10 -8zM236 526l10 -10zM48 516l10 -11zM187 516l9 -11zM48 505l10 -9zM97 496l10 -11zM38 485l10 -10zM38 475l10 -9zM87 466l10 -10zM38 456l10 -9zM78 456l9 -9zM48 447l10 -11zM58 447l10 -11zM68 447l10 -11zM275 366l10 -9zM296 357l9 -10zM305 357l10 -10z
M196 338l10 -10zM315 338l9 -10zM206 328l9 -11zM275 308l-10 9zM265 209l10 -10zM256 189l-10 10zM256 199l9 -10zM315 199l9 -10zM187 189l9 -10zM305 179l10 -10zM296 169l9 -10zM285 159l11 -10zM187 149l9 -9zM265 149l10 -9zM246 130l10 -10zM206 110l-10 10zM196 -19
l10 -10zM196 -29l10 -9zM246 -38l10 -10zM187 -58l9 -11zM187 -69l9 -9zM48 -78l10 -10zM236 -78l10 -10zM97 -97l-10 9zM107 -107l10 -11zM48 -118l10 -9zM68 -148l10 -8zM226 -148l10 -8zM78 -156l9 -11zM215 -156l11 -11z" />
    <glyph glyph-name="asciitilde" unicode="~" horiz-adv-x="683" 
d="M108 318l12 -12zM481 191q18 0 43 8.5t34 17.5q18 46 44 62q10 6 20 2q22 -12 23 -39t-10 -50.5t-25 -37.5q-35 -24 -83.5 -28.5t-92.5 15.5q-19 6 -42.5 19t-51 30.5t-41.5 24.5q-30 16 -53.5 24.5t-56.5 8t-58 -19.5q-4 -3 -12 -9.5t-12 -9.5l-24 -21q-28 -23 -30 -26
q-13 63 16.5 101t86.5 50q36 8 74 3q45 -9 86 -39l39 -27q12 -9 39 -22.5t39 -22.5q20 -14 48 -14zM255 301l-13 12zM91 301l13 -13zM280 288l-13 13zM603 300q16 0 28 -13h-14q-9 0 -15 6l-8 8l-1 -1h10zM77 287l13 -12zM304 275l-13 12zM581 287l12 -12zM631 287l13 -12z
M65 275l12 -13zM52 262l13 -13zM329 262l13 -13zM140 249l13 -12zM342 249l12 -12zM568 249l13 -12zM40 237l12 -13zM115 237l13 -13zM367 237l12 -13zM103 224l12 -12zM266 224l13 -12zM405 212l-13 12zM27 212l13 -13zM103 212l12 -13zM279 212l12 -13zM430 199l-13 13z
M556 212l12 -13zM631 212l13 -13zM27 199l13 -12zM90 199l13 -12zM442 199l13 -12zM543 187l-12 12zM27 187l13 -13zM90 187l13 -13zM317 187l12 -13zM329 187l13 -13zM40 174l12 -13zM65 174l12 -13zM77 174l13 -13zM342 174l12 -13zM354 174l13 -13zM619 174l12 -13z
M367 161l12 -12zM379 161l13 -12zM606 161l13 -12zM392 149l13 -13zM593 149l13 -13zM568 136l13 -12z" />
    <glyph glyph-name="exclamdown" unicode="&#xa1;" horiz-adv-x="168" 
d="M31 -171l10 10zM55 223q47 -8 47 -95q0 -13 -2 -27l-8 -56q-13 -70 -13 -93v-11q0 -4 1 -14t1 -15v-13q0 -47 -28 -55q-8 -2 -19 9l-9 9q-5 17 -5 31v17q0 10 2.5 30.5t2.5 31.5v11q0 45 20 100v36q0 57 10 104zM75 -9l11 10zM25 1l10 10zM86 51l10 11zM35 62l10 10z
M45 202l10 11zM86 213l10 10zM55 333l10 10zM65 343q-30 16 -31 57t31 58q21 11 51 -4q24 -18 25 -53.5t-20.5 -56t-54.5 -2.5zM117 332l10 10zM46 342l10 10zM127 342l10 10zM137 352l10 11zM36 373l10 10zM137 423l10 10zM137 433l10 10zM36 443l10 10zM117 443l10 10z
M127 443l10 10zM117 463l-10 -10z" />
    <glyph glyph-name="cent" unicode="&#xa2;" horiz-adv-x="482" 
d="M169 435l15 -14zM269 103q21 0 63 3t64 3q35 0 66 -10l-2 -3q-21 -40 -63 -61.5t-99 -19.5q-88 2 -161 43t-105 105q-23 44 -12 95q15 58 77 115q18 16 37.5 28.5t46.5 23.5t52.5 10.5t54.5 -10.5q30 -14 53 -50q-16 -4 -47.5 -9t-46.5 -9q-59 -15 -94 -40
q-63 -52 -42 -118q10 -30 37.5 -53t63.5 -33q26 -10 57 -10zM314 432l14 -14zM138 418l15 -15zM328 418l15 -15zM109 403l14 -15zM94 388l15 -14zM79 374l15 -15zM328 374l15 -15zM65 359l14 -15zM211 359l15 -15zM182 344l15 -14zM50 330l15 -15zM153 330l14 -15zM36 315
l14 -15zM123 315l15 -15zM123 300l15 -14zM21 286l15 -15zM109 271l14 -14zM94 242l15 -15zM94 198l15 -15zM21 169l15 -15zM123 154l15 -14zM36 140l14 -15zM167 125l-14 15zM182 125l15 -15zM387 125l14 -15zM65 96l-15 14zM226 96l-15 14zM328 96l-14 14zM445 110l15 -14
zM79 81l-14 15zM123 66l15 -14zM153 52l-15 14zM460 52l-15 14zM153 52l14 -15zM167 52l15 -15zM431 52l14 -15zM182 37l15 -15zM197 37l14 -15zM357 37l15 -15zM291 703q11 -5 14 -6l16 -8q-6 3 -12 5t-9.5 3.5t-8.5 5.5zM283 696l7 -8zM341 -189q0 -62 -36 -73l2 -6
q-13 65 -9 143l2 36q1 11 2.5 33t2.5 40t1 34q0 28 2 80t2 93.5t-4 78.5q-2 20 -12 87t-10 105v188q0 6 0.5 12.5t3 14.5t6.5 9.5t10 -1.5q16 -8 16 -38v-175q0 -32 4 -65.5t10.5 -73t9.5 -61.5q9 -206 -9 -366q0 -12 3 -46.5t3 -48.5zM323 438l8 -9zM292 421l-7 8zM323 429
l8 -8zM292 414l-7 7zM292 361l8 -9zM331 361l8 -9zM292 352l8 -7zM331 352l8 -7zM300 299l7 -7zM339 299l8 -7zM300 292l7 -8zM339 292l8 -8zM300 284l7 -8zM307 -84l-7 8zM339 -84l8 -7zM339 -91l8 -8zM307 -261l-7 9zM339 -268l-8 7z" />
    <glyph glyph-name="sterling" unicode="&#xa3;" horiz-adv-x="467" 
d="M454 26q-48 -15 -127 -15q-22 0 -63 2t-62 2q-65 0 -90 25q-14 19 -18 51q-4 39 -3 63t4.5 64.5t3.5 62.5q0 37 -6 120t-6 120v22q0 53 25 53q19 4 27 -9q4 -8 6 -20.5t2.5 -20.5t0 -26.5t-0.5 -24.5v-12q16 -83 16 -201v-49q0 -17 -1 -50.5t-1 -50.5v-51q24 0 77 4.5
t82 3.5q52 -2 83 -16t51 -47zM152 478l13 -12zM102 453l-12 13zM429 76l12 -12zM441 64l13 -13zM102 38l13 -12zM441 26l13 -13zM34 310l7 -8zM331 278q-37 -8 -80 -8h-105q-12 0 -29 -2t-26 -2t-29 3q-8 0 -16 7t-8 16q3 5 8 8t8.5 5t11 2.5t11.5 0.5h14h13h10q15 0 55.5 3
t58.5 3q76 0 98 -35zM316 309l8 -8zM31 301l8 -8zM324 301l7 -8zM31 286l8 -8zM324 278l7 -8z" />
    <glyph glyph-name="currency" unicode="&#xa4;" horiz-adv-x="499" 
d="M173 525l14 -14zM204 524q8 0 14.5 -2t13.5 -5.5l11 -5.5q-23 0 -35 2.5t-21 11.5zM281 524q70 0 126 -42q34 -34 55 -80t16 -97q-14 -130 -193 -130q-120 0 -195 60q-29 38 -28.5 97t25.5 104q17 30 44 46q20 20 80 34l32 8h38zM349 524l14 -14zM128 510l14 -13z
M376 510l14 -13zM113 497l15 -15zM390 497l14 -15zM100 482l13 -13zM404 482l14 -13zM418 469l14 -14zM86 455l14 -13zM183 455l14 -13zM197 455l14 -13zM300 239q-50 0 -90 15t-54 44q-22 15 -23 38.5t11 43t28 33.5q19 16 40 22l-1 7q34 15 66 12t57 -17.5t43 -37.5
q40 -81 11 -126q-12 -18 -38 -29q-23 -5 -50 -5zM74 435l13 -15zM156 435l14 -15zM433 435l13 -15zM156 420l14 -14zM446 420l14 -14zM59 393l15 -14zM143 393l13 -14zM377 393l14 -14zM460 393l15 -14zM129 379l14 -14zM129 365l14 -14zM129 296l14 -14zM170 269l-14 13z
M59 269l15 -15zM184 269l14 -15zM391 269l14 -15zM267 240l-14 14zM364 254l13 -14zM74 240l13 -13zM460 227l15 -14zM446 213l14 -14zM405 199l14 -14zM419 199l14 -14zM377 185l14 -13zM391 185l14 -13zM129 633q25 -8 42 -26.5t23.5 -36t16 -49.5t16.5 -48
q12 -36 27 -68.5t42.5 -83.5t33.5 -62q1 -2 11.5 -22t12.5 -24l11 -22t12 -25t10.5 -23t11 -25.5t9 -23.5t9 -26.5t6.5 -25.5q-29 -5 -48 6q-12 6 -22 15.5t-18.5 24t-13.5 25t-13 29.5t-11 26q-94 185 -135 309q-4 9 -10.5 23t-11 24t-9.5 25t-7 27.5t-2 28.5t3 32z
M166 633l13 -12zM118 621l11 -13zM179 608l13 -12zM118 571l11 -12zM192 571l12 -12zM204 559l12 -12zM204 547l12 -13zM129 534l13 -12zM142 522l13 -12zM229 497l-13 13zM216 497l13 -12zM155 485l11 -13zM229 472l12 -11zM166 461l13 -13zM241 424l12 -13zM192 398
l-13 13zM253 411l12 -13zM192 387l12 -13zM265 387l13 -13zM204 374l12 -13zM278 361l12 -11zM216 350l13 -13zM290 324l12 -11zM241 300l-12 13zM302 313l13 -13zM253 276l-12 11zM315 287l13 -11zM253 276l12 -13zM339 238l-11 12zM278 226l-13 12zM339 226l13 -13z
M278 213l12 -12zM352 201l13 -12zM290 189l12 -13zM365 176l11 -12zM302 164l13 -12zM376 152l13 -12zM389 140l13 -13zM315 127l13 -13zM328 114l11 -11zM402 114l11 -11zM339 103l13 -13zM413 90l13 -13zM413 77l13 -11zM365 53l-13 13zM365 40l11 -11zM413 40l13 -11z
M385 28q18 0 27 -13h-14q-8 0 -14 6l-8 8l-1 -1h10zM473 578q3 -29 -8 -54t-23.5 -38t-35.5 -31q-65 -55 -115 -123l-72 -96q-35 -47 -50.5 -66.5t-46.5 -53.5t-60 -57q-14 19 -16 38.5t7.5 38t19.5 32t27.5 31.5t22.5 25q46 58 72.5 91t68.5 80t81 83q6 6 25.5 30t29 33.5
t29.5 23t42 18.5zM489 543l-5 -16zM457 584l-6 -17zM472 521l-6 -15zM411 562l-5 -16zM442 495l-4 -16zM438 479l-7 -17zM426 474l-6 -17zM384 536l-6 -17zM378 519l-6 -16zM398 446l-6 -15zM387 441l-6 -16zM350 492l-7 -17zM368 420l-5 -17zM332 470l-6 -17zM330 387
l-7 -16zM292 437l-6 -15zM323 371l-6 -16zM276 417l-7 -16zM307 350l-6 -18zM269 401l-6 -18zM289 326l-5 -16zM252 378l-7 -16zM261 300l-6 -16zM223 352l-6 -18zM249 267l6 17zM206 329l-6 -16zM231 245l7 16zM200 313l-6 -16zM210 235l-7 -16zM171 287l-5 -18zM192 213
l-5 -16zM155 264l-6 -17zM169 176l6 15zM138 242l-6 -16zM158 171l-6 -18zM120 221l-6 -18zM140 147l-6 -16zM134 131l-6 -16zM91 193l-5 -16zM86 177l-7 -16zM117 110l-6 -17zM79 161l-5 -17zM100 88l-5 -16zM90 83l-7 -17zM52 134l-6 -16zM34 113l-6 -18zM55 67l-6 -17z
M28 95q11 -23 6 -38q-2 3 -4.5 7.5t-3 6.5t-1.5 5t-1 5.5t1 5.5t3 8z" />
    <glyph glyph-name="yen" unicode="&#xa5;" horiz-adv-x="564" 
d="M213 224q0 13 2 35t2 34q0 40 -16 69q-10 26 -27 47t-50 51t-38 35q-49 49 -63 85q39 5 71 -9t67 -40q42 -32 102 -116l-5 -3q9 17 26.5 53.5t32 63.5t31.5 49q13 13 31 13q21 0 21 -25q0 -30 -15 -65t-34 -61q-3 -7 -16.5 -32.5t-18 -35.5t-14.5 -34t-14 -40t-7.5 -39.5
t-3.5 -47.5q17 -101 11 -138q-8 -51 -49 -66q-26 122 -26 217zM17 589l13 -12zM68 589l12 -12zM334 589l13 -12zM93 577l13 -13zM118 551l-12 13zM17 551l13 -12zM321 551l13 -12zM397 551l13 -12zM309 539l12 -13zM385 539l12 -13zM397 513l-12 13zM182 501l-13 12z
M309 501l-13 12zM80 501l13 -13zM194 488l-12 13zM385 488l-13 13zM106 475l-13 13zM207 475l-13 13zM296 475l-13 13zM106 475l12 -12zM220 463l-13 12zM372 463l-13 12zM118 463l13 -13zM233 450l-13 13zM283 450l-12 13zM245 437l-12 13zM347 450l12 -13zM271 425l-13 12
zM169 412l-13 13zM258 412l-13 13zM347 412l-13 13zM334 386l-13 13zM194 374l13 -13zM309 374l12 -13zM309 336l-13 12zM207 336l13 -13zM283 336l13 -13zM271 323l12 -13zM220 272l-13 13zM271 247l12 -13zM271 196l12 -12zM207 171l13 -13zM220 32l13 -13zM271 19l12 -13
zM129 289l10 -11zM535 246q-51 -10 -111 -10h-161q-11 0 -29.5 -2.5t-27.5 -2.5h-15q-13 0 -31 5q-11 0 -21.5 9.5t-10.5 22.5q4 7 10.5 11.5t12 6.5t16.5 3t16.5 1h19h19.5h12q24 0 79 4t84 3q112 -5 139 -51h-1zM514 289l10 -11zM117 278l11 -11zM524 278l11 -11zM117 257
l11 -11zM535 235l-11 11zM138 449l-10 11zM534 417q-51 -10 -111 -10h-161q-11 0 -29.5 -2.5t-27.5 -2.5h-15q-13 0 -31 5q-11 0 -21.5 9.5t-10.5 22.5q4 7 10.5 11.5t12 6.5t16.5 3t16.5 1h19h19.5h12q24 0 79 4t84 3q112 -5 139 -51h-1zM513 460l10 -11zM116 449l11 -11z
M523 449l11 -11zM116 428l11 -11zM534 406l-11 11z" />
    <glyph glyph-name="brokenbar" unicode="&#xa6;" horiz-adv-x="124" 
d="M37 597q9 -3 15 -6q-9 2 -15 6zM29 591l7 -5zM54 53q0 25 2.5 69t3 66.5t-4.5 66.5q-2 16 -12.5 69.5t-10.5 84.5v150q0 13 5 23.5t17 3.5q17 -5 17 -44v-128q0 -20 2.5 -38.5t8 -45t6.5 -34.5q4 -19 8 -40q10 -177 -10 -295q0 -11 1.5 -32t2 -35t-2 -30t-11 -25.5
t-23.5 -12.5q-17 52 -8 113l6 57q3 28 3 57zM70 389l9 -6zM30 383l7 -6zM70 383l9 -6zM30 377l7 -6zM37 327l10 -5zM79 327l7 -5zM37 322l10 -7zM79 322l7 -7zM47 280l6 -8zM86 280l9 -8zM47 272l6 -5zM86 272l9 -5zM47 267l6 -7zM47 -22l6 -5zM86 -27l9 -7zM86 -34l9 -5z
M47 -162l6 -6zM79 -168l7 -6z" />
    <glyph glyph-name="section" unicode="&#xa7;" horiz-adv-x="465" 
d="M148 383l19 -19zM346 303q-60 -19 -156 -19q5 -13 14 -26t15 -21t21.5 -21.5t20 -17t24.5 -18.5t21 -16q34 -26 63 -54q16 -16 25.5 -33.5t11.5 -40.5t-14 -42q-71 -101 -268 -155q-35 -9 -54 -9q-31 0 -43 10t0 35q14 27 62 75q7 0 18 3l42 12q10 3 18 3l120 59v40l2 2
q-22 11 -61 20t-59 18q-76 76 -76 158q0 30 15 60q43 70 126 56q35 -6 66.5 -28t45.5 -50zM308 385l20 -19zM110 366l21 -20zM328 366l20 -20zM91 346l19 -20zM328 306l20 -19zM190 287l19 -21zM190 247l19 -19zM91 228l19 -21zM209 228l21 -21zM230 207l19 -19zM131 167
l-21 21zM249 188l19 -21zM289 167l19 -19zM348 128l-20 20zM150 128l19 -20zM368 128l19 -20zM387 108l20 -19zM209 89l21 -20zM230 89l19 -20zM407 89l20 -20zM249 69l19 -20zM280 58q9 0 9 -8q-15 -15 -18 -9q-3 1 -3 8v1q8 8 12 8zM249 30l19 -19zM209 11l21 -20zM407 11
l20 -20zM169 -9l21 -20zM368 -9l19 -20zM110 -29l21 -19zM348 -29l20 -19zM71 -48l20 -21zM328 -48l20 -21zM12 -69l19 -19zM268 -69l21 -19zM289 -69l19 -19zM-9 -88l21 -20zM230 -88l19 -20zM249 -88l19 -20zM190 -108l19 -20zM209 -108l21 -20zM-9 -128l21 -20zM169 -128
l21 -20zM131 -148l19 -19zM180 611l19 -19zM378 531q-60 -19 -156 -19q5 -13 14 -26t15 -21t21.5 -21.5t20 -17t24.5 -18.5t21 -16q34 -26 63 -54q16 -16 25.5 -33.5t11.5 -40.5t-14 -42q-71 -101 -268 -155q-35 -9 -54 -9q-31 0 -43 10t0 35q14 27 62 75q7 0 18 3l42 12
q10 3 18 3l120 59v40l2 2q-22 11 -61 20t-59 18q-76 76 -76 158q0 30 15 60q43 70 126 56q35 -6 66.5 -28t45.5 -50zM340 613l20 -19zM142 594l21 -20zM360 594l20 -20zM123 574l19 -20zM360 534l20 -19zM222 515l19 -21zM222 475l19 -19zM123 456l19 -21zM241 456l21 -21z
M262 435l19 -19zM163 395l-21 21zM281 416l19 -21zM321 395l19 -19zM380 356l-20 20zM182 356l19 -20zM400 356l19 -20zM419 336l20 -19zM241 317l21 -20zM262 317l19 -20zM439 317l20 -20zM281 297l19 -20zM312 286q9 0 9 -8q-15 -15 -18 -9q-3 1 -3 8v1q8 8 12 8zM281 258
l19 -19zM241 239l21 -20zM439 239l20 -20zM201 219l21 -20zM400 219l19 -20zM142 199l21 -19zM380 199l20 -19zM103 180l20 -21zM360 180l20 -21zM44 159l19 -19zM300 159l21 -19zM340 140l-19 19zM23 140l21 -20zM262 140l19 -20zM281 140l19 -20zM222 120l19 -20zM241 120
l21 -20zM23 100l21 -20zM201 100l21 -20zM163 80l19 -19z" />
    <glyph glyph-name="dieresis" unicode="&#xa8;" horiz-adv-x="302" 
d="M75 634l-11 10zM75 634q23 6 36 -6t12.5 -32t-7.5 -40q-9 -21 -29 -29q-35 -5 -50 19.5t-4 53.5t42 34zM117 634l-11 10zM54 622l-11 12zM129 622l-12 12zM212 622l-11 12zM225 636q8 -4 0 -13q-5 -2 -6 0q-5 1 5 11zM236 624q18 0 28.5 -14.5t10.5 -34.5q0 -21 -11 -37
t-29 -20q-22 0 -35.5 15t-13.5 38t13.5 38t36.5 15zM267 624l-12 12zM43 613l-12 11zM201 613l-9 11zM277 613l-10 11zM31 604l-10 9zM192 604l-11 9zM192 550l-11 11zM31 538l-10 12zM129 538l-12 12zM277 538l-10 12zM117 528l-11 10zM201 528l-9 10zM267 518l-12 10z" />
    <glyph glyph-name="copyright" unicode="&#xa9;" horiz-adv-x="552" 
d="M342 616l-10 11zM284 618q6 0 20.5 -1t20.5 -1h17l-2 -3q50 7 95 -45q36 -43 54 -103q26 -54 33 -123t-13 -137q-22 -64 -72.5 -103t-126.5 -43q-96 0 -165 37t-99 105q-23 49 -15 117q4 23 15 46t27.5 50.5t22.5 40.5q9 16 18 36l18 39q19 40 50 66q30 22 80 22h22z
M384 613l-11 11zM201 603l-10 10zM404 603l-11 10zM180 593l-9 10zM415 593l-11 10zM171 583l-12 10zM159 570l-12 13zM415 583l11 -13zM147 559l-10 11zM352 570q-11 -11 0 -11q11 11 0 11zM425 569l12 -11zM211 558l11 -10zM286 558h-15q-26 0 -49 -10l-2 -4
q-20 -9 -32.5 -28t-24.5 -49t-19 -42q-6 -16 -23 -48.5t-23 -50.5q-15 -40 -15 -59q5 -54 36.5 -91.5t79.5 -56.5q49 -18 101 -14.5t94 26.5q27 12 41.5 39t24.5 68q21 85 -1.5 166t-73.5 122q-40 32 -99 32zM360 554l10 -10zM435 554l9 -10zM198 544l11 -10zM134 524
l-11 10zM188 534l10 -10zM177 524l11 -12zM455 524l11 -12zM123 501l-9 11zM177 512l11 -11zM168 501l9 -9zM412 492l-11 9zM466 501l11 -9zM114 480l-11 12zM168 492l9 -12zM412 492l11 -12zM168 469l-12 11zM487 469l-10 11zM91 469l12 -10zM168 459l-12 10zM435 459
l-12 10zM144 459l12 -12zM487 459l10 -12zM91 438l-10 9zM144 447l12 -9zM435 447l9 -9zM134 438l10 -11zM71 427l10 -10zM144 417l-10 10zM497 427l11 -10zM123 417l11 -11zM444 417l11 -11zM71 395l-12 11zM123 406l11 -11zM114 395l9 -11zM508 395l12 -11zM59 373l-10 11
zM114 384l9 -11zM455 384l11 -11zM103 373l11 -11zM37 362l12 -10zM103 362l11 -10zM27 352l10 -11zM91 352l12 -11zM103 332l-12 9zM81 320l10 -10zM466 245l-11 10zM91 234l-10 11zM508 245l12 -11zM444 234l11 -9zM520 225l-12 9zM37 214l-10 11zM91 214l12 -13zM49 191
l-12 10zM103 201l11 -10zM497 201l11 -10zM59 171l-10 9zM114 180l9 -9zM444 160l-9 11zM59 160l12 -11zM123 160l11 -11zM220 149l-11 11zM497 149l-10 11zM253 149l10 -11zM412 149l11 -11zM497 138l-10 11zM71 138l10 -10zM144 138l12 -10zM401 128l-11 10zM487 128
l-10 10zM168 128l9 -12zM370 128l11 -12zM487 116l-10 12zM91 106l-10 10zM198 106l-10 10zM360 106l-11 10zM477 106l-11 10zM455 95l-11 11zM466 95l-11 11zM114 85l-11 10zM123 85l-9 10zM435 85l-12 10zM444 85l-9 10zM134 74l-11 11zM144 74l-10 11zM412 74l-11 11z
M423 74l-11 11zM156 64l-12 10zM168 64l-12 10zM390 64l-9 10zM401 64l-11 10zM177 53l-9 11zM188 53l-11 11zM370 53l-10 11zM381 53l-11 11zM254 447l-9 9zM425 250q-26 -51 -98 -51q-53 0 -97.5 26t-63.5 65q-22 46 6 89t72 65q34 17 63.5 11t46.5 -35q-5 -2 -14 -3.5
t-14 -2.5l-30 -6q-30 -6 -53 -21.5t-30 -38.5q-13 -39 18.5 -66.5t75.5 -27.5q13 0 38.5 2t38.5 2q19 0 39 -6zM345 445l-10 9zM238 436l-9 9zM354 436l-9 9zM220 427l-8 9zM212 419l-9 8zM203 410l-9 9zM354 410l-9 9zM194 400l-9 10zM282 400l-9 10zM265 391l-9 9z
M185 382l-9 9zM247 382l-9 9zM176 373l-9 9zM229 373l-9 9zM220 373l9 -9zM167 356l-8 8zM212 356l8 -9zM212 329l-9 9zM212 303l-9 8zM167 285l-8 9zM229 276l-9 9zM176 267l-9 9zM238 276l9 -9zM265 258l-9 9zM389 258l-8 9zM398 267q4 0 3.5 -3t-3.5 -6q-4 0 -4 2.5
t4 6.5zM416 258l-9 9zM185 250l-9 8zM273 258l9 -8zM335 258l10 -8zM425 250l-9 8zM194 241l-9 9zM220 232l9 -9zM238 223l-9 9zM425 223l-9 9zM247 214l-9 9zM256 214l-9 9zM407 223l9 -9zM256 214l9 -10zM265 214l8 -10zM363 214l9 -10z" />
    <glyph glyph-name="ordfeminine" unicode="&#xaa;" horiz-adv-x="286" 
d="M233 627l-10 11zM200 369q-45 -10 -88 -10q-55 0 -80 20q-18 22 -18 55q0 65 45 121q21 25 44 33q30 14 90 -1l28 -8q0 38 15 49q11 8 23 -9q13 -15 9 -41l-2 -12l-6 -36q0 -16 2.5 -53.5t2.5 -62t-3.5 -54t-16.5 -47t-35 -22.5q-10 28 -10 57v21zM92 589l-11 11zM81 579
l-9 10zM221 579l-11 10zM62 579l10 -10zM52 569l10 -9zM260 560l10 -11zM41 549l11 -10zM121 539l-10 10zM122 538q-22 -9 -35.5 -34.5t-8.5 -55.5q5 -29 30 -36.5t53 7.5q14 9 18.5 28.5t0 39t-12.5 34.5q-19 29 -46 18zM93 538l10 -9zM171 529l-9 9zM33 529l9 -10zM93 529
l10 -10zM82 519l11 -11zM33 498l-10 10zM82 508l11 -10zM73 498l9 -9zM73 489l9 -10zM14 458l9 -9zM63 449l10 -10zM73 429l-10 10zM63 429l10 -11zM82 418l11 -10zM183 408l-11 10zM24 399l-9 9zM193 369l10 -10zM263 359l-10 10zM203 310l10 -11zM243 298l10 -9z" />
    <glyph glyph-name="guillemotleft" unicode="&#xab;" horiz-adv-x="455" 
d="M225 445l-10 10zM235 445l-10 10zM244 445l-9 10zM215 434l-11 11zM22 176q0 20 8 35.5t23.5 33.5t19.5 24q13 16 39 57.5t37 55.5q14 18 26.5 29t34.5 19.5t46 3.5q-27 -58 -85 -134l-51 -66q-30 -39 -48 -67q21 -9 70.5 -27t73.5 -29q30 -14 49.5 -24.5t42 -29
t32.5 -37.5q-18 -4 -37.5 -4t-33 2.5t-33.5 9.5t-28 11t-27 13q-15 7 -48 27t-51 27q-60 25 -60 70zM257 430l-11 11zM196 420l-11 10zM185 410l-10 10zM257 410l-11 10zM257 399l-11 11zM165 399l10 -10zM246 389l-9 10zM350 389l-10 10zM253 239q18 -6 41 -15t41 -15
q12 -6 26 -15t26 -15l11 -11q60 -59 35 -70q-2 0 -4 -1q-15 -5 -27.5 0t-25.5 16.5t-19 14.5q-10 8 -24.5 16t-38 17.5t-29.5 12.5q-61 29 -61 68q-3 63 75 120q48 33 87 21q20 -6 33 -25q-8 -5 -30 -16t-33 -17t-26 -17.5t-26 -23.5q-4 -5 -31 -45zM387 383l-10 10z
M150 383l11 -11zM233 372l-10 11zM325 372l-10 11zM396 372l-9 11zM150 363l-10 9zM305 372l10 -9zM140 353l-10 10zM223 353l-10 10zM284 353l-11 10zM130 343l-11 10zM202 343l-10 10zM273 343l-10 10zM396 343l-9 10zM181 343l11 -11zM253 332l-11 11zM377 332l-10 11z
M119 322l-10 10zM171 332l10 -10zM242 322l-9 10zM356 322l-10 10zM233 312l-10 10zM325 312l-10 10zM336 312l-11 10zM109 301l-10 11zM223 301l-10 11zM315 301l-10 11zM99 291l-11 10zM171 291l-10 10zM294 291l-10 10zM213 281l-11 10zM284 281l-11 10zM88 270l-9 11z
M161 270l-11 11zM273 270l-10 11zM79 260l-10 10zM150 260l-10 10zM202 260l-10 10zM140 249l-10 11zM263 249l-10 11zM58 249l11 -10zM263 239l-10 10zM58 229l-10 10zM130 229l-11 10zM273 229l-10 10zM48 218l-10 11zM119 218l-10 11zM202 218l-10 11zM305 218l-11 11z
M38 209l-11 9zM325 209l-10 9zM27 199l-10 10zM109 199l-10 10zM346 199l-10 10zM367 189l-11 10zM17 178l-10 11zM88 178l-9 11zM253 178l-11 11zM253 189l10 -11zM387 178l-10 11zM17 168l-10 10zM79 168l-10 10zM273 178l11 -10zM17 157l-10 11zM79 157l9 -10zM428 147
l-11 10zM27 137l-10 10zM99 147l10 -10zM336 147l10 -10zM346 147l10 -10zM438 137l-10 10zM119 137l11 -11zM356 137l11 -11zM448 126l-10 11zM38 116l-11 10zM140 126l10 -10zM367 126l10 -10zM48 106l-10 10zM58 106l-10 10zM161 116l10 -10zM377 116l10 -10zM69 95
l-11 11zM79 95l-10 11zM181 106l11 -11zM88 85l-9 10zM99 85l-11 10zM213 95l10 -10zM448 85l-10 10zM109 75l-10 10zM119 75l-10 10zM242 85l11 -10zM130 64l-11 11zM140 64l-10 11zM253 75l10 -11zM150 55l-10 9zM161 55l-11 9zM273 64l11 -9zM171 45l-10 10zM181 45
l-10 10zM325 45l-10 10zM202 34l-10 11zM213 34l-11 11zM336 34l-11 11zM242 14l-9 10zM253 14l-11 10zM263 3l-10 11zM273 3l-10 11zM336 3l-11 11z" />
    <glyph glyph-name="logicalnot" unicode="&#xac;" horiz-adv-x="439" 
d="M16 471l13 -13zM90 473q25 0 77 3.5t79 3.5q108 0 145 -34q21 -33 29 -86t-6 -102t-51 -61q-4 17 -4 48q0 59 -9.5 97.5t-38.5 50.5q-38 16 -111 16h-28q-10 0 -28.5 -1t-27.5 -1h-47q-42 0 -56 14q-9 24 18 38t59 14zM376 470l13 -13zM0 457l13 -13zM389 457l13 -13z
M0 430l13 -11zM402 406l13 -13zM338 393l12 -14zM350 224l13 -14zM402 210l13 -13z" />
    <glyph glyph-name="registered" unicode="&#xae;" horiz-adv-x="542" 
d="M336 620l-12 10zM315 620h21l-1 -5q75 11 126 -96q14 -29 21 -52q39 -89 33 -173q-7 -102 -60.5 -163t-151.5 -67q-98 0 -168.5 35.5t-97.5 102.5q-20 48 -12 116q5 28 17.5 54t29 54.5t24.5 46.5q25 56 39 77l12 18q28 39 64 47q24 5 104 5zM376 615l-10 10zM195 604
l-10 11zM397 604l-10 11zM175 594l-11 10zM409 594l-12 10zM164 582l-10 12zM154 572l-12 10zM409 582l10 -10zM142 561l-10 11zM345 572v-1q-9 -10 0 -10q11 11 0 11zM419 571l11 -11zM206 560l10 -10zM279 560h-15q-25 0 -48 -10l-1 -2q-14 -7 -26 -22.5t-18 -28
t-15.5 -36t-13.5 -31.5q-7 -13 -21.5 -40t-21.5 -40q-21 -39 -21 -80q5 -54 36.5 -91.5t79.5 -56.5q45 -15 93 -15.5t90 19t56 52.5q33 82 29 166q-3 59 -25.5 107t-58.5 77q-40 32 -99 32zM355 558l10 -10zM429 558l10 -10zM194 548l11 -11zM131 526l-11 11zM184 537
l10 -11zM174 526l10 -11zM450 526l10 -11zM120 505l-10 10zM174 515l10 -10zM163 505l11 -11zM408 494l-12 11zM460 505l12 -11zM110 484l-11 10zM163 494l11 -10zM237 484l-10 10zM210 141q-10 34 -10 76.5t4.5 97t4.5 81.5q0 37 6 55t28 32q23 18 51.5 13t47.5 -22
q18 -17 20 -46t-11 -54q-12 -22 -41 -61q30 -8 46 -21t38 -42q-42 -8 -69.5 0t-57.5 30v-20q0 -98 -52 -117zM350 482l-11 10zM413 482l-10 10zM148 482l10 -12zM222 470l-12 12zM360 470l-10 12zM467 482l10 -12zM94 460l-11 10zM148 470l10 -10zM210 469q1 -1 5.5 -7
t4.5 -8t-4.5 -8t-5.5 -7v30zM424 459l-11 10zM136 459l12 -11zM477 459l11 -11zM83 438l-11 10zM136 448l12 -10zM434 438l-10 10zM126 438l10 -10zM274 438q-10 -22 -10 -56v-17q7 4 12.5 9.5t8.5 9t7 12.5t5 11.5t5 15.5t5 15h-33zM72 418l-10 11zM126 429l10 -11z
M264 429l10 -11zM488 429l10 -11zM115 418l11 -10zM445 408l-11 10zM62 396l-11 12zM115 408l11 -12zM105 396l10 -10zM296 396l11 -10zM509 386l-11 10zM51 375l-10 11zM105 386l10 -11zM286 386l10 -11zM455 375l-10 11zM94 375l11 -10zM274 375l12 -10zM41 354l-12 11z
M94 365l11 -11zM360 354l-10 11zM29 344l-10 10zM83 354l11 -10zM350 344l-11 10zM83 344l11 -12zM339 332l-10 12zM329 322l-12 10zM72 322l11 -11zM307 322l10 -11zM317 311l12 -10zM339 301l11 -12zM381 279l-11 10zM274 268l-10 11zM391 268l-10 11zM286 258l-12 10z
M210 248l-10 10zM455 248l-10 10zM72 248l11 -11zM391 237l-10 11zM509 237l-11 11zM445 227l-11 10zM509 227l-11 10zM29 215l-10 12zM264 215l-11 12zM83 215l11 -10zM41 194l-12 11zM94 205l11 -11zM498 194l-10 11zM51 173l-10 11zM105 184l10 -11zM424 173l10 -10z
M62 151l-11 12zM115 163l11 -12zM210 151l-10 12zM488 151l-11 12zM253 141l-10 10zM403 151l10 -10zM488 141l-11 10zM72 130l-10 11zM136 141l12 -11zM381 141l10 -11zM477 130l-10 11zM158 130l11 -10zM360 130l10 -10zM477 120l-10 10zM83 109l-11 11zM179 120l10 -11z
M339 120l11 -11zM467 109l-12 11zM445 98l-11 11zM455 98l-10 11zM105 87l-11 11zM115 87l-10 11zM424 87l-11 11zM434 87l-10 11zM126 77l-11 10zM136 77l-10 10zM403 77l-12 10zM413 77l-10 10zM148 67l-12 10zM158 67l-10 10zM381 67l-11 10zM391 67l-10 10zM169 56
l-11 11zM179 56l-10 11zM360 56l-10 11zM370 56l-10 11z" />
    <glyph glyph-name="macron" unicode="&#xaf;" 
 />
    <glyph glyph-name="degree" unicode="&#xb0;" horiz-adv-x="334" 
d="M84 656l16 -16zM98 642q24 12 46.5 13t41 -10t33.5 -24t29.5 -35t22.5 -36.5t19 -35.5l6 -18q26 -78 -6 -110q-60 -35 -116 -25t-98.5 51.5t-50.5 93.5q-14 90 75 134zM193 658l16 -16zM65 642l17 -16zM209 642l17 -16zM50 626l15 -16zM34 610l16 -15zM241 595l16 -17z
M18 578l16 -16zM115 546q1 1 3.5 4t3 3.5l2.5 2.5t2 2.5t1 2.5t1 3.5t0.5 3.5t0.5 4.5v5.5zM146 578l-48 -96q10 -3 30 -10.5t31 -11t29.5 -6.5t37.5 -3q-30 79 -80 127zM163 578l16 -16zM258 562l16 -16zM179 546l15 -15zM99 531l16 -17zM194 514l16 -16zM291 514l15 -16z
M306 498l16 -16zM99 482l16 -15zM210 482l17 -15zM306 482l16 -15zM19 467l16 -16zM130 467l16 -16zM227 467l15 -16zM35 434l16 -16zM306 403l16 -16zM258 387l16 -17zM274 387l17 -17z" />
    <glyph glyph-name="plusminus" unicode="&#xb1;" horiz-adv-x="414" 
d="M188 476q20 -8 32 -16q2 -2 14 -7q-9 5 -23.5 10.5t-24.5 12.5h2zM177 465l11 -12zM164 278q-4 0 -14 -1t-15 -1h-16q-43 0 -58 15q-3 12 -0.5 20.5t9 13.5t16 8t20.5 4t23 1.5t24 -0.5h12h12l-4 -4v12q0 5 -0.5 17t0 19t1 17.5t2 17.5t4 14.5t7.5 12t11 6.5q9 2 15.5 0
t9.5 -9t5 -15t2.5 -19.5t0.5 -20.5t-0.5 -21t-0.5 -18v-12h21h12.5h13.5t11.5 -0.5t12.5 -1t11 -1.5t11 -2.5t9 -3.5t9 -5q14 -10 28 -33q-44 -11 -104 -11h-34q0 -8 2.5 -49t0.5 -61q-7 -70 -49 -85q-10 65 -10 146v50h-11zM58 334l12 -11zM346 334l11 -11zM47 323l11 -12z
M357 323l12 -12zM47 300l11 -12zM357 288l12 -12zM173 104l11 -11zM220 93l11 -12zM346 81l11 -11zM357 81l12 -11zM369 81l11 -11zM12 70l12 -11zM107 71q4 0 14.5 -1t14.5 -1h152q54 0 104 -10q-9 -28 -45 -43.5t-78.5 -15.5t-84.5 4q-40 4 -70 4h-10q-3 0 -11 -1t-12 -1
h-13q-19 0 -35 6t-16 19q0 9 4.5 17.5t12.5 8.5q26 14 58 14h15zM379 67l12 -11zM0 56l11 -12zM379 44l12 -12zM0 32l11 -12zM379 32l12 -12zM356 20l12 -11zM368 20l11 -11z" />
    <glyph glyph-name="twosuperior" unicode="&#xb2;" horiz-adv-x="267" 
d="M114 628l-6 6zM157 334q-39 0 -87 5h-5q-30 0 -38.5 19t19.5 33q4 2 15 7t14 7l16 10q3 2 13 8t14 8.5t12 8t12.5 9.5t10.5 9.5t10.5 11.5t8.5 13q10 18 9 39l-2 10q-13 67 -43 67q-15 0 -37 -11q-16 -7 -31 11q7 4 14 9l15 12q19 14 37 14q37 0 56 -29.5t19 -71.5
q0 -26 -6 -45q-8 -46 -63 -82l-36 -24q-9 -6 -18 -13q14 0 42 2t43 2q57 0 73 -27q-40 -12 -87 -12zM170 627l-6 6zM100 622l-6 5zM94 616l-6 6zM70 598l-5 6zM117 592l-6 6zM122 592l-5 6zM157 592l-6 6zM64 592l5 -6zM203 586l-6 6zM110 581l-6 5zM168 575l-6 6zM209 540
l-6 6zM168 482l-6 6zM209 476l-6 6zM203 471l-6 5zM162 465l-5 6zM157 459l-6 6zM197 459l-5 6zM151 454l-6 5zM197 454l-5 5zM145 448l-5 6zM192 448l-6 6zM140 442l-6 6zM186 442l-6 6zM104 418l-5 6zM168 418l-6 6zM92 413l-6 5zM161 413l-5 5zM74 407l-6 6zM156 407
l-6 6zM68 401l-5 6zM143 401l-5 6zM62 396l-6 5zM137 396l-6 5zM49 390l-6 6zM118 390l-5 6zM101 390l6 -6zM20 383l5 -5zM96 378l-6 5zM15 377l6 -6zM85 377l6 -6zM231 371l5 -6zM236 365l6 -6zM15 358l6 -5zM50 341l-6 6zM56 341l-6 6zM236 347l6 -6z" />
    <glyph glyph-name="threesuperior" unicode="&#xb3;" horiz-adv-x="283" 
d="M56 639l7 -7zM137 642q4 0 14.5 -1t14.5 -1h13q20 0 33 -13q7 -16 -3.5 -35.5t-28 -40.5t-21.5 -30q11 0 19.5 -2t18.5 -5.5t16 -5.5q29 -17 43.5 -44.5t3.5 -62.5q-9 -30 -34.5 -52.5t-58.5 -28.5q-11 -5 -26.5 -1.5t-23.5 7t-21.5 10.5t-20.5 10q-45 18 -53 46
q19 1 36 -5t36.5 -16t29.5 -14q16 -6 36 -3q24 5 43.5 23.5t23 42t-19.5 46.5q-16 14 -66 18q-20 2 -34 16q10 11 18 26l15 27q5 9 13.5 26.5t13.5 26.5h-46l-24 2q-21 0 -34 11q-11 8 6 15q20 8 53 8h15zM209 641l7 -7zM51 634l7 -6zM216 634l6 -6zM51 621l7 -7zM162 608
l7 -6zM216 608l6 -6zM209 602l7 -7zM156 596l6 -7zM202 596l7 -7zM202 582l-7 7zM149 582l7 -6zM188 576l7 -7zM142 570l7 -6zM182 565l6 -7zM135 559l7 -7zM175 559l7 -7zM168 553l7 -7zM129 546l6 -6zM168 546l7 -6zM161 540l7 -7zM121 534l7 -7zM160 534l7 -7zM186 528
l7 -7zM113 521l7 -6zM199 521l7 -6zM106 515l7 -7zM212 515l6 -7zM225 509l7 -7zM106 503l7 -7zM112 497l7 -7zM145 490l-7 7zM238 497l6 -7zM191 484l-7 6zM191 490l7 -6zM244 490l7 -6zM198 484l7 -7zM205 484l7 -7zM251 484l7 -7zM212 477l6 -7zM258 463l7 -6zM225 450
l7 -7zM232 416l-7 7zM21 410l7 -6zM218 410l7 -6zM61 405l6 -7zM213 405l6 -7zM259 405l7 -7zM74 398l7 -6zM205 398l7 -6zM20 392l7 -7zM87 392l6 -7zM198 392l7 -7zM251 392l7 -7zM99 386l6 -7zM190 386l7 -7zM250 379l-7 7zM117 380l7 -7zM177 380l6 -7zM243 373l-6 7z
M46 373l7 -6zM60 367l-7 6zM125 373l6 -6zM164 373l7 -6zM66 360l-6 7zM231 360l-7 7zM224 354l-7 7zM86 354l6 -7zM99 347l-7 7zM204 347l-7 7zM210 347l-7 7zM190 341l-7 6zM196 341l-7 6zM116 334l-7 7zM122 334l-7 7zM175 334l-7 7zM175 341l6 -7z" />
    <glyph glyph-name="acute" unicode="&#xb4;" horiz-adv-x="229" 
d="M201 725q3 -10 7 -18l12 -30q5 -9 8 -21q-11 25 -18 39q-8 13 -9 30zM179 706l-1 23zM54 538q-19 0 -34 9q11 33 50 72l42 42q54 54 82 33q11 -8 8 -36q3 -40 -30.5 -68.5t-77.5 -44.5q-20 -7 -40 -7zM28 553l-1 22zM66 494l-2 23z" />
    <glyph glyph-name="mu" unicode="&#xb5;" 
 />
    <glyph glyph-name="mu" unicode="&#x3bc;" 
 />
    <glyph glyph-name="periodcentered" unicode="&#xb7;" horiz-adv-x="171" 
d="M62 357l-10 10zM152 293q0 -20 -25 -30q-30 -12 -56 -5.5t-41 25.5q-17 26 -7 44.5t39 29.5l-2 2q22 7 43.5 -3.5t35.5 -26.5q13 -16 13 -36zM97 359l-9 10zM50 350l-9 9zM116 350l-9 9zM41 340l-9 10zM145 340l-9 10zM32 331l-10 9zM154 331l-9 9zM22 312l-9 10zM22 274
l-9 9zM154 264l-9 10zM145 255l-9 9z" />
    <glyph glyph-name="cedilla" unicode="&#xb8;" horiz-adv-x="200" 
d="M35 22q5 -2 13 -6.5t11 -6.5q4 -1 8 -3.5t7 -4.5q-4 2 -11 4.5t-11 4t-9 5t-8 7.5zM22 9l12 -11zM184 -123q0 -9 -18 -13q-35 -8 -65 0t-52 25q-16 12 -25 27t-8 33.5t16 36.5q25 32 42 -15q8 -23 8 -46h50q23 -10 43 -30q9 -9 9 -18zM165 -74l12 -13zM177 -87l13 -12z
M19 -99l12 -12zM177 -135l13 -13z" />
    <glyph glyph-name="onesuperior" unicode="&#xb9;" horiz-adv-x="187" 
d="M171 318q-31 -11 -67 -11h-20q-8 0 -17.5 0.5t-22.5 2t-20 5t-6 8.5q1 8 17.5 14.5t27.5 6.5l9 60q15 113 -9 180q-7 -25 -32 -32l6 6l-2 12t0 12t1 10t3 10.5t3.5 9t4.5 10t4.5 8.5t6 9.5l5.5 8.5q3 13 16.5 19t22.5 -7q7 -9 7 -26v-23q0 -4 -1 -11.5t-1 -11.5v-8
q0 -12 1 -27t2.5 -33t2.5 -27l2 -30q1 -15 1 -30q0 -49 -17 -87h22q28 0 50 -28zM70 669l7 -7zM63 656l7 -7zM57 642l6 -6zM50 629l7 -7zM43 623l7 -7zM36 610l7 -7zM36 590l-6 7zM76 584l-7 6zM62 577l7 -7zM30 570l6 -6zM56 564l6 -7zM108 558l7 -7zM82 545l-6 6zM82 388
l-6 6zM76 368l-7 6zM108 374l7 -6zM102 355l6 -7zM23 348l7 -6zM161 348l7 -6zM16 342l7 -7zM167 342l6 -7zM15 329l7 -7zM172 316l-6 6z" />
    <glyph glyph-name="ordmasculine" unicode="&#xba;" horiz-adv-x="408" 
d="M219 657q60 0 108 -35q22 -22 39.5 -55t24.5 -75t-14 -78q-34 -66 -157 -66q-108 0 -174 54q-26 36 -24.5 86t23.5 90q15 27 38 41q13 13 44 22l27 6q5 1 13.5 3.5t13.5 3.5l2 3h36zM281 657l12 -13zM84 645l13 -13zM304 645l13 -13zM72 633l12 -12zM316 633l13 -12z
M58 621l13 -12zM328 621l12 -12zM353 596l-13 13zM59 583l-13 13zM132 596l13 -13zM158 583l-13 13zM235 408q28 0 44 4q60 25 40 95q-6 21 -15 38q-14 19 -37 32.5t-52 17t-57 -11.5l-1 2q-28 -7 -49.5 -33t-19.5 -57q1 -19 20 -33q13 -26 48.5 -40t78.5 -14zM47 573
l-12 12zM109 585l12 -12zM354 585l12 -12zM121 561l-12 13zM379 561l-13 13zM36 536l-12 12zM110 536l-13 12zM305 548l13 -12zM391 536l-12 12zM85 536l13 -12zM85 524l13 -13zM98 450l-13 12zM110 450l12 -13zM37 425l-12 12zM147 425l-13 12zM318 437l13 -12zM196 425
l12 -13zM306 412l-13 13zM36 413l12 -13zM379 401l12 -13zM366 389l13 -12zM330 377l12 -12zM341 377l13 -12zM317 352l-13 13zM330 352l-13 13z" />
    <glyph glyph-name="guillemotright" unicode="&#xbb;" horiz-adv-x="472" 
d="M237 29l10 -10zM228 29l9 -10zM218 29l10 -10zM247 39l11 -10zM442 292q0 -20 -8 -35t-22.5 -30.5t-19.5 -24.5q-14 -17 -35 -51t-42 -61.5t-45 -42.5q-26 -17 -60 -9q23 55 83 133l51 66q30 40 48 67q-23 10 -69.5 27.5t-82 33t-64.5 33.5q-33 21 -48 47l1 1
q57 14 126 -17q23 -10 65 -34.5t64 -34.5q58 -24 58 -68zM209 40l10 -10zM269 51l10 -11zM279 61l10 -10zM209 61l10 -10zM209 71l10 -10zM289 81l11 -10zM219 81l10 -10zM117 82l10 -11zM210 225q-11 4 -21 7l-39 13q-26 9 -73 38l-28 28q-5 5 -10.5 12t-10.5 16t-3 16.5
t12 10.5q14 5 26 0t25 -16t19 -14q16 -14 67 -35.5t68 -37.5q18 -17 18 -39q3 -34 -20.5 -66.5t-53.5 -51.5q-22 -14 -42.5 -20t-41.5 -0.5t-34 25.5l43 22q68 31 99 91v1zM77 83l10 -10zM300 93l10 -11zM229 93l9 -11zM137 93l10 -11zM67 94l10 -11zM310 102l10 -10z
M158 93l-11 9zM320 111l10 -10zM238 112l10 -10zM178 112l10 -10zM330 121l11 -10zM269 112l-10 10zM188 122l11 -10zM67 123l10 -10zM279 122l-10 10zM209 132l10 -10zM87 133l9 -10zM341 142l10 -11zM289 132l-10 11zM219 143l10 -11zM106 144l11 -11zM230 153l8 -10z
M138 153l9 -10zM128 153l9 -10zM352 162l10 -10zM239 163l10 -10zM148 163l11 -10zM362 172l10 -10zM290 173l11 -10zM169 173l10 -10zM249 184l11 -11zM179 184l10 -11zM372 193l9 -10zM301 194l10 -10zM189 194l11 -10zM381 203l11 -10zM311 204l10 -11zM260 204l10 -10z
M321 213l10 -10zM200 214l10 -10zM392 224l10 -11zM200 225l10 -11zM402 234l10 -10zM331 234l11 -10zM189 235l11 -10zM412 243l10 -9zM342 243l10 -9zM260 244l10 -9zM159 244l10 -9zM422 253l11 -10zM138 254l10 -10zM433 263l10 -10zM352 263l10 -10zM128 254l-10 11z
M107 265l-10 10zM443 284l10 -11zM372 284l9 -11zM220 274l-10 11zM210 274l-10 11zM78 286l10 -11zM443 294l10 -10zM381 294l11 -10zM189 285l-10 10zM443 304l10 -10zM372 314l9 -10zM37 316l10 -10zM433 325l10 -11zM352 325l10 -11zM128 315l-10 12zM118 316l-11 11z
M27 327l10 -11zM342 325l-11 10zM107 327l-10 10zM423 345l10 -10zM321 335l-9 11zM97 337l-8 10zM413 355l10 -10zM403 355l10 -10zM302 346l-11 10zM79 357l10 -10zM393 366l10 -11zM382 366l11 -11zM281 356l-10 11zM373 376l9 -10zM363 376l10 -10zM250 367l-10 10z
M353 385l10 -9zM343 385l10 -9zM221 377l-10 9zM332 395l11 -10zM322 395l10 -10zM211 386l-10 10zM312 406l10 -11zM312 396l-10 10zM190 396l-10 10zM291 417l11 -11zM281 417l10 -11zM139 417l10 -11zM261 427l10 -10zM261 417l-11 10zM129 427l10 -10zM221 447l10 -10z
M211 447l10 -10zM201 457l10 -10zM190 457l11 -10zM129 457l10 -10z" />
    <glyph glyph-name="onequarter" unicode="&#xbc;" horiz-adv-x="443" 
d="M137 345q-18 -8 -51 -8h-15q-18 0 -42 4q-23 8 4 20q14 6 24 6q23 125 2 190q-2 -6 -4 -9.5t-6 -6.5t-6 -4t-8.5 -4.5t-9.5 -4.5q-2 16 2 32t9 25t15 24q7 10 17 10q6 0 11 -8.5t5 -17.5v-42q0 -18 4 -59.5t3 -72.5t-11 -54h17q23 0 40 -20zM51 615l5 -5zM46 605l5 -5z
M41 595l5 -5zM36 585l5 -5zM31 580l5 -5zM26 570l5 -5zM26 555l-5 5zM52 555l5 -5zM47 545l5 -5zM21 540l5 -5zM41 535l5 -5zM82 530l5 -5zM56 525l5 -5zM56 402l5 -5zM51 387l5 -5zM82 387l5 -5zM77 371l5 -5zM16 366l5 -5zM124 366l5 -5zM12 361l5 -5zM130 361l5 -5z
M12 350l5 -5zM130 345l5 -5zM281 632l-13 13zM25 21q-3 14 -3 28.5t1.5 25.5t5.5 23.5t7.5 21.5t9 22.5t8.5 21.5q69 189 158 361q4 7 10.5 21.5t12.5 25t13 19.5q17 23 35 33.5t47 5.5q-13 -55 -38.5 -109.5t-64 -121.5t-53.5 -97q-44 -85 -63 -161q-11 -47 -29 -76
t-54 -40zM265 603l-12 13zM328 591l-13 12zM315 591l13 -13zM253 566l-13 12zM240 553l-12 13zM315 553l-12 13zM228 541l-13 12zM303 528l-13 13zM290 514l-12 14zM215 502l-13 12zM278 489l-13 13zM202 477l-12 12zM265 464l-12 13zM190 452l-13 12zM253 439l-13 13z
M177 426l-12 13zM240 414l-12 12zM165 389l-13 12zM152 376l-12 13zM228 376l-13 13zM140 351l-14 13zM215 351l-13 13zM202 339l-12 12zM126 313l-13 13zM190 301l-13 12zM113 287l-12 14zM101 275l-13 12zM177 275l-12 12zM88 250l-12 12zM165 250l-13 12zM152 237l-12 13
zM76 199l-13 13zM140 187l-14 12zM63 174l-12 13zM126 162l-13 12zM126 149l-13 13zM51 137l-13 12zM38 124l-12 13zM113 112l-12 12zM113 99l-12 13zM26 86l-13 13zM101 86l-13 13zM88 48l-12 13zM26 35l-13 13zM63 35l13 -12zM374 283l-5 5zM407 219q0 -26 -3 -75t-3 -75
v-18q0 -26 -27 -39q-5 13 -6 30q-5 40 11 96l4 -2h-39q-19 0 -34 3q-7 0 -13.5 6.5t-3.5 14.5q0 10 14 20l12 9q18 14 28 38l9 18q14 36 30 36q21 -4 21 -36v-26zM403 276l-5 5zM408 271l-5 5zM371 266l-5 5zM365 256l-5 5zM359 246l-5 5zM354 236l-5 5zM344 236l5 -5z
M375 236l5 -5zM380 226l-5 5zM339 225l5 -5zM370 225l5 -5zM364 168q10 0 18 -3v30q0 16 -7 30l-29 -57h18zM372 215l-5 5zM336 215l5 -5zM367 215l5 -5zM367 205l-5 5zM331 204l5 -5zM367 199l-5 5zM331 194l-5 5zM326 189l-5 5zM316 189l5 -5zM357 189l5 -5zM316 178l-5 5
zM357 178l-5 5zM295 177l5 -5zM352 172l-5 5zM290 171l5 -5zM342 171l5 -5zM378 161l-5 5zM290 150l5 -5zM383 129l-5 5zM404 128l5 -5zM378 55l-5 5zM404 24l-5 5zM378 14l-5 5zM394 14l5 -5z" />
    <glyph glyph-name="onehalf" unicode="&#xbd;" horiz-adv-x="530" 
d="M177 318q-25 -10 -62 -10h-18q-64 0 -63 15q1 4 10 10q20 11 33 11l9 57q14 99 -8 171q-5 -14 -11.5 -20.5t-19.5 -10.5h3q-4 8 -1.5 20.5t3 18.5t5.5 16.5t8 15.5l9 15q3 13 16.5 17.5t21.5 -7.5q7 -7 7 -24v-21q0 -3 -1 -9.5t-1 -9.5v-9q0 -23 4.5 -69t4.5 -71
q0 -47 -17 -82h21q28 0 47 -24zM81 646l6 -6zM75 634l6 -6zM69 622l6 -6zM63 610l6 -6zM57 603l6 -6zM51 591l6 -6zM51 572l-6 6zM88 566l-6 6zM76 560l6 -6zM45 554l6 -6zM69 548l6 -6zM118 541l6 -6zM87 535l6 -6zM93 381l-6 6zM87 363l-6 6zM118 369l6 -6zM112 350l6 -6z
M38 344l6 -6zM168 344l6 -6zM33 338l6 -6zM175 338l6 -6zM33 325l6 -6zM181 313l-6 6zM325 585l-12 12zM95 34q-2 22 -2 35t5 31t9 28t11 27t11 27q53 136 127 288q4 8 14 30t15.5 32.5t17 24.5t24.5 22q18 10 43 6q-9 -34 -24 -71t-25.5 -58t-34.5 -65t-31 -57
q-61 -114 -83 -196q-12 -42 -29 -68.5t-48 -35.5zM314 558l-11 12zM372 547l-12 11zM360 547l12 -12zM304 524l-12 11zM281 524l11 -12zM360 512l-11 12zM281 501l-12 11zM349 489l-12 12zM337 476l-11 13zM269 465l-12 11zM327 453l-12 12zM258 442l-11 11zM315 430l-11 12
zM247 419l-12 11zM305 407l-12 12zM236 395l-11 12zM293 384l-11 11zM213 372l12 -11zM213 349l-11 12zM282 349l-12 12zM202 326l-13 12zM270 326l-12 12zM258 315l-11 11zM189 291l-12 12zM247 280l-12 11zM177 267l-11 13zM166 256l-12 11zM235 256l-11 11zM154 233
l-11 11zM224 233l-12 11zM212 221l-11 12zM143 186l-12 12zM202 175l-13 11zM132 163l-11 12zM190 152l-12 11zM190 140l-12 12zM122 129l-12 11zM110 117l-11 12zM178 106l-11 11zM178 94l-11 12zM99 82l-12 12zM167 82l-12 12zM155 47l-11 12zM99 35l-12 12zM133 35
l12 -11zM389 279l-6 6zM411 251q-10 0 -24 -6t-23.5 -6t-19.5 12v-2q9 5 16 10l15 12q14 12 36 12q35 0 54.5 -28t19.5 -68q0 -24 -6 -43l-4 -14t-6.5 -13t-7 -10.5t-9 -10.5t-8.5 -8.5t-11 -8.5t-10 -7t-11.5 -8l-10.5 -7l-18 -12q-9 -6 -17 -12q14 0 41 2t41 2
q54 0 70 -27q-40 -12 -87 -12q-35 0 -85 5h-5q-21 0 -33.5 12t3.5 28q15 10 46.5 26t53.5 32t36 37q11 17 9 38l-2 10q-5 23 -16 44t-27 21zM445 277l-6 6zM378 272l-6 5zM372 266l-6 6zM349 249l-5 6zM394 243l-6 6zM399 243l-5 6zM433 243l-6 6zM343 243l5 -6zM478 237
l-6 6zM388 232l-6 5zM445 226l-6 6zM485 192l-6 6zM446 135l-6 6zM486 129l-6 6zM480 124l-6 5zM440 118l-5 6zM435 112l-6 6zM474 112l-5 6zM429 107l-6 5zM473 107l-5 5zM422 101l-5 6zM467 101l-6 6zM416 95l-6 6zM461 95l-6 6zM377 78l5 -6zM444 72l-6 6zM365 72l6 -5z
M438 67l-5 5zM354 61l-6 6zM433 61l-6 6zM348 55l-5 6zM421 55l-5 6zM337 55l6 -5zM416 50l-6 5zM325 50l6 -6zM398 44l-5 6zM381 44l6 -6zM303 38l5 -5zM370 38l6 -5zM297 33l6 -6zM370 27l-6 6zM506 27l5 -6zM511 21l6 -6zM297 15l6 -5zM325 4l6 -6zM331 4l6 -6zM511 4
l6 -6z" />
    <glyph glyph-name="threequarters" unicode="&#xbe;" horiz-adv-x="489" 
d="M50 600l6 -6zM45 586q0 7 14.5 11.5t27.5 4.5h62q17 0 27 -10q9 -14 -13 -44l-18 -24q-7 -9 -13 -20q12 0 42 -10q24 -13 36 -36t3 -53q-17 -53 -76 -68q-14 0 -21 -0.5t-19 4t-18 7.5t-17 9.5t-16 8.5q-23 9 -29 32q16 2 30 -2.5t30.5 -14.5t23.5 -13q13 -6 30 -4
q19 5 35.5 20.5t21 35t-14.5 38.5q-20 14 -53 16q-16 2 -28 14q6 7 14 21l36 63h-65q-8 0 -20 4t-12 10zM170 600l6 -6zM38 594l6 -5zM175 594l5 -5zM38 584l6 -6zM137 568l-6 5zM176 573l5 -5zM170 568l6 -6zM126 563l5 -6zM164 563l6 -6zM158 557l6 -6zM120 551l6 -5z
M152 546l6 -6zM113 541l6 -5zM146 537l5 -6zM107 532l6 -6zM146 526l-6 6zM140 521l-6 6zM101 521l5 -5zM133 521l6 -5zM133 510l-6 6zM94 511l6 -6zM132 505l-6 6zM148 506l6 -6zM87 500l6 -5zM158 500l6 -5zM81 495l6 -6zM169 495l5 -6zM185 484l-6 6zM80 485l6 -6z
M85 480l6 -6zM107 480l6 -6zM195 474l-5 6zM145 474l6 -5zM151 474l6 -5zM201 469l-6 5zM163 463l-6 6zM163 469l6 -6zM207 463l-6 6zM173 457l-5 6zM212 446l-6 5zM184 434l-6 6zM184 412l-6 6zM8 407l6 -5zM172 407l6 -5zM41 403l5 -6zM167 403l5 -6zM211 397l-6 6z
M51 397l6 -5zM160 397l6 -5zM6 392l6 -6zM61 392l5 -6zM153 392l6 -6zM202 386l-6 6zM70 387l5 -6zM146 387l6 -6zM195 381l-6 6zM84 382l6 -6zM134 382l5 -6zM189 376l-5 6zM31 371l-6 5zM37 371l-6 5zM91 376l5 -5zM123 376l6 -5zM36 371l5 -6zM178 365l-6 6zM172 360
l-6 6zM62 354l-5 6zM62 360l6 -6zM155 354l-6 6zM160 354l-6 6zM143 349l-6 5zM148 349l-6 5zM76 349l6 -6zM81 349l6 -6zM130 343l-6 6zM130 349l5 -6zM324 612l-13 13zM67 3q-3 14 -3 28.5t1.5 25.5t5.5 23.5t7.5 21.5t9 22.5t8.5 21.5q18 48 39 99l35 81q43 100 84 179
q4 8 10.5 22.5t12.5 25t13 19.5q17 23 35 33.5t47 5.5q-13 -56 -38 -110t-63.5 -121t-53.5 -97q-44 -85 -63 -161q-11 -46 -29 -75t-53 -40zM306 583l-12 13zM369 571l-13 12zM356 571l13 -13zM294 546l-13 12zM281 533l-12 13zM356 533l-12 13zM269 521l-13 12zM344 508
l-13 13zM331 494l-12 14zM256 482l-13 12zM319 469l-13 13zM243 457l-12 12zM306 444l-12 13zM231 432l-13 12zM294 419l-13 13zM218 406l-12 13zM281 394l-12 12zM206 369l-13 12zM193 356l-12 13zM269 356l-13 13zM181 331l-14 13zM256 331l-13 13zM243 319l-12 12z
M167 293l-13 13zM231 281l-13 12zM154 267l-12 14zM142 255l-13 12zM218 255l-12 12zM129 230l-12 12zM206 230l-13 12zM193 217l-12 13zM117 179l-13 13zM181 167l-14 12zM104 154l-12 13zM167 142l-13 12zM167 129l-13 13zM92 117l-13 12zM79 104l-12 13zM154 92l-12 12z
M154 79l-12 13zM67 66l-13 13zM142 66l-13 13zM129 28l-12 13zM67 15l-13 13zM104 15l13 -12zM392 348l-7 7zM390 -7q-18 66 9 164l-1 1h-26q-42 0 -71 7q-10 0 -17 9.5t-2 18.5q0 10 8.5 18.5t21 16t16.5 11.5q2 4 6 10.5t5 7.5l24 42q4 7 11 20.5t11 19.5q6 9 16 9
q28 -6 28 -49v-34q0 -34 -3 -99t-3 -99v-24q0 -37 -33 -50zM425 342l-7 7zM432 336l-7 6zM384 329l-7 7zM377 315l-7 7zM370 302l-7 6zM363 288l-6 7zM350 288l7 -7zM391 288l7 -7zM398 274l-7 7zM343 274l7 -7zM384 274l7 -7zM397 200q0 4 1 11t1 10v11q0 20 -8 42l-42 -77
h11q18 0 37 -7v10zM383 259l-7 6zM335 259l7 -7zM376 259l7 -7zM376 245l-7 7zM328 245l7 -7zM376 238l-7 7zM327 231l-6 7zM321 225l-7 6zM307 225l7 -7zM368 218l-7 7zM307 211l-7 7zM361 211l-6 7zM280 211l7 -7zM355 204l-7 7zM273 204l7 -7zM341 204l7 -7zM389 191
l-7 6zM272 177l7 -7zM388 157l7 -7zM422 150l7 -7zM381 61l7 -7zM422 14l-7 6zM388 0l-7 7zM408 0l7 -7z" />
    <glyph glyph-name="questiondown" unicode="&#xbf;" horiz-adv-x="304" 
d="M244 -175l-9 6zM287 -75q6 -66 -75 -97q-32 -13 -71 -10t-65 20q-37 28 -49 88.5t16 111.5l16 18q10 12 57 49l39 30q19 15 34 31q9 12 12.5 36.5t10 44t26.5 26.5q9 -35 6.5 -71t-23.5 -58q-16 -20 -55 -47.5t-50 -37.5q-36 -33 -43 -63q-18 -48 -0.5 -83t56.5 -50
q28 -11 66 -3q16 7 41.5 33t47.5 31zM91 -168l9 -6zM255 -168l-7 8zM264 -161l-9 8zM68 -153l9 -8zM60 -146l9 -8zM274 -141l-9 8zM119 -141l-9 8zM60 -141l-7 8zM280 -133l-6 8zM224 -125l7 -8zM52 -133l-9 8zM231 -126l-7 8zM100 -126l-9 8zM43 -126l-9 8zM288 -119l-9 8z
M240 -119l-9 8zM92 -119l-7 8zM44 -119l-9 8zM298 -111l-9 6zM241 -105l9 -6zM86 -111l-7 6zM36 -105l-7 6zM257 -99l-7 8zM78 -99l-9 8zM298 -91l-9 6zM266 -85l-9 8zM69 8l9 -8zM85 8l-7 8zM35 8l-7 8zM92 24l-7 5zM44 24l-9 5zM101 29l-9 8zM110 36l-9 8zM53 36l-9 8z
M119 43l-9 8zM53 43l-9 8zM126 51l-7 6zM60 57l9 -6zM133 57l-7 8zM68 65l9 -8zM77 71l7 -6zM141 71l-9 8zM91 71l-7 8zM150 79l-9 6zM92 85l9 -6zM158 85l-7 8zM176 92l-9 8zM110 92l-9 8zM182 99l-6 8zM119 99l-9 8zM200 107l-9 5zM126 107l-7 5zM208 112l-9 8zM133 112
l-7 8zM151 119l-9 8zM224 126l-7 8zM231 134l-7 6zM157 134l-7 6zM239 154l-9 8zM248 162l-9 6zM199 162l-9 6zM199 184l9 -8zM249 253l-9 8zM217 260l-9 8zM250 373l-9 8zM232 381q9 0 1 -8v1q-8 0 -1 7zM225 374l-7 8zM266 381l-9 8zM273 437q0 -27 -13 -44.5t-36 -3.5
q-12 6 -15 13.5t2 14.5t12 13.5t18.5 12.5t18.5 9.5t15 6.5l-5 2q3 -8 3 -24zM213 383l-9 8zM270 391l-9 6zM213 425l-9 8zM213 432l-9 8zM227 439l-7 8zM219 439l-7 8zM275 447l-6 5zM244 452l-9 8z" />
    <glyph glyph-name="Agrave" unicode="&#xc0;" horiz-adv-x="382" 
d="M146 798l11 5zM149 807l13 5zM152 815l13 6zM150 785q6 -3 8 -5l6 -12l-13 17h-1zM295 650q-54 6 -100 65q-12 16 -19.5 33t-8.5 38.5t11 40.5q9 -11 33.5 -38t36.5 -43q40 -53 48 -96h-1zM163 821l14 6zM159 759l13 5zM181 814l13 5zM165 746l12 6zM191 809l13 6z
M197 797l11 5zM188 726l13 6zM210 781l13 6zM215 768l13 5zM203 709l13 6zM225 765l13 4zM231 751l12 7zM217 693l14 6zM239 748l14 6zM223 680l11 6zM244 735l13 5zM254 731l13 5zM236 664l13 6zM268 715l13 5zM251 648l12 5zM273 702l12 5zM259 645l14 5zM278 689l14 5z
M270 640l13 6zM287 686l14 5zM283 646l12 4zM290 664l12 5zM293 673l14 6zM155 623l11 -10zM191 148q-14 0 -45.5 -3t-43.5 -3l-3 -3q0 -47 -32 -97q-5 -5 -12.5 -9t-15.5 -6t-15.5 2t-10.5 14q-8 11 12 50l7 15q13 25 13 42q13 46 27 86l30 84q35 92 49 170v35q0 17 1 30.5
t5 30t13.5 23t24.5 0.5q16 -5 27.5 -19t16 -28.5t11 -37t11.5 -33.5q4 -20 10.5 -38t17 -42t13.5 -33q19 -47 23 -69q10 -59 10 -111v-39q0 -13 6 -32l6 -20q12 -40 12 -60q0 -19 -12 -26q-11 -10 -34 13l-9 10q-3 6 -10.5 34.5t-20.5 41.5q-21 28 -82 28zM218 610l-11 10z
M218 599l10 -11zM238 567l-10 11zM250 525l-12 10zM260 492l-10 11zM142 470l10 -10zM260 460l11 -11zM218 438l-11 11zM142 427l-11 11zM207 438q-11 -11 0 -11q11 11 0 11zM271 438l10 -11zM280 192q0 70 -15.5 125t-46.5 110h-23q-22 -87 -87 -235h172zM227 416l-10 11z
M292 406l-12 10zM183 406l12 -11zM237 395l-10 11zM292 406l10 -11zM130 374l-10 10zM237 384l12 -10zM183 363l-10 11zM312 363l-10 11zM173 363l10 -10zM259 353l-10 10zM108 353l12 -12zM323 341l-11 12zM162 341l11 -10zM270 331l-11 10zM108 320l-10 11zM162 331
l11 -11zM162 310l-11 10zM323 320l10 -10zM98 300l-11 10zM151 310l11 -10zM270 310l10 -10zM141 300l10 -12zM151 278l-10 10zM77 278l10 -11zM77 257l-11 10zM130 267l11 -10zM141 245l-11 12zM66 235l-11 10zM120 235l10 -10zM120 203l-12 11zM45 160l10 -10zM98 139
l10 -10zM333 129l12 -12zM45 107l-11 10zM292 107l-12 10zM23 96l11 -11zM87 85l11 -11zM23 63l-11 11zM355 63l-10 11zM2 63l10 -10zM77 63l10 -10zM292 63l10 -10zM355 63l11 -10zM66 53l11 -11zM2 42l10 -11zM55 31l11 -11zM302 31l10 -11zM366 10l-11 10z" />
    <glyph glyph-name="Aacute" unicode="&#xc1;" horiz-adv-x="384" 
d="M169 613l-11 10zM194 148q-14 0 -45.5 -3t-43.5 -3l-3 -3q0 -47 -32 -97q-5 -5 -12.5 -9t-15.5 -6t-15.5 2t-10.5 14q-8 11 12 50l8 15q12 25 12 42q13 46 27 86l30 84q35 92 49 170v35q0 17 1 30.5t5 30t13.5 23t24.5 0.5q16 -5 27.5 -19t16 -28.5t11 -37t11.5 -33.5
q4 -20 10.5 -38t17 -42t14.5 -33q18 -47 22 -69q10 -59 10 -111v-39q0 -13 6 -32l6 -20q12 -40 12 -60q0 -19 -12 -26q-10 -11 -34 13l-9 10q-3 6 -10.5 34.5t-20.5 41.5q-21 28 -82 28zM210 620l11 -10zM231 588l-10 11zM231 578l10 -11zM253 525l-12 10zM253 503l10 -11z
M155 460l-10 10zM274 449l-11 11zM221 438l-11 11zM134 438l11 -11zM210 438q-11 -11 0 -11q11 11 0 11zM284 427l-10 11zM283 192q0 70 -15.5 125t-46.5 110h-23q-22 -87 -87 -235h172zM230 416l-10 11zM283 416l12 -10zM186 406l12 -11zM240 395l-10 11zM305 395l-10 11z
M123 384l10 -10zM240 384l12 -10zM186 363l-10 11zM305 374l10 -11zM176 363l10 -10zM262 353l-10 10zM123 341l-12 12zM315 353l11 -12zM165 341l11 -10zM273 331l-11 10zM101 331l10 -11zM165 331l11 -11zM165 310l-11 10zM336 310l-10 10zM90 310l11 -10zM154 310l11 -10
zM273 310l10 -10zM144 300l10 -12zM154 278l-10 10zM90 267l-10 11zM69 267l11 -10zM133 267l11 -10zM144 245l-11 12zM58 245l11 -10zM123 235l10 -10zM123 203l-12 11zM58 150l-10 10zM111 129l-10 10zM348 117l-12 12zM37 117l11 -10zM295 107l-12 10zM37 85l-11 11z
M101 74l-11 11zM15 74l11 -11zM358 63l-10 11zM15 53l-10 10zM90 53l-10 10zM305 53l-10 10zM369 53l-11 10zM80 42l-11 11zM15 31l-10 11zM69 20l-11 11zM315 20l-10 11zM358 20l11 -10zM318 856q3 -10 7 -18l12 -30q5 -9 8 -21q-11 25 -18 39q-8 13 -9 30zM296 837l-1 23z
M171 669q-19 0 -34 9q11 33 50 72l42 42q54 54 82 33q11 -8 8 -36q3 -40 -30.5 -68.5t-77.5 -44.5q-20 -7 -40 -7zM145 684l-1 22zM183 625l-2 23z" />
    <glyph glyph-name="Acircumflex" unicode="&#xc2;" horiz-adv-x="387" 
d="M169 613l-11 10zM194 148q-14 0 -45.5 -3t-43.5 -3l-3 -3q0 -47 -32 -97q-5 -5 -12.5 -9t-15.5 -6t-15.5 2t-10.5 14q-8 11 12 50l8 15q12 25 12 42q13 46 27 86l30 84q35 92 49 170v35q0 17 1 30.5t5 30t13.5 23t24.5 0.5q16 -5 27.5 -19t16 -28.5t11 -37t11.5 -33.5
q4 -20 10.5 -38t17 -42t14.5 -33q18 -47 22 -69q10 -59 10 -111v-39q0 -13 6 -32l6 -20q12 -40 12 -60q0 -19 -12 -26q-10 -11 -34 13l-9 10q-3 6 -10.5 34.5t-20.5 41.5q-21 28 -82 28zM210 620l11 -10zM231 588l-10 11zM231 578l10 -11zM253 525l-12 10zM253 503l10 -11z
M155 460l-10 10zM274 449l-11 11zM221 438l-11 11zM134 438l11 -11zM210 438q-11 -11 0 -11q11 11 0 11zM284 427l-10 11zM283 192q0 70 -15.5 125t-46.5 110h-23q-22 -87 -87 -235h172zM230 416l-10 11zM283 416l12 -10zM186 406l12 -11zM240 395l-10 11zM305 395l-10 11z
M123 384l10 -10zM240 384l12 -10zM186 363l-10 11zM305 374l10 -11zM176 363l10 -10zM262 353l-10 10zM123 341l-12 12zM315 353l11 -12zM165 341l11 -10zM273 331l-11 10zM101 331l10 -11zM165 331l11 -11zM165 310l-11 10zM336 310l-10 10zM90 310l11 -10zM154 310l11 -10
zM273 310l10 -10zM144 300l10 -12zM154 278l-10 10zM90 267l-10 11zM69 267l11 -10zM133 267l11 -10zM144 245l-11 12zM58 245l11 -10zM123 235l10 -10zM123 203l-12 11zM58 150l-10 10zM111 129l-10 10zM348 117l-12 12zM37 117l11 -10zM295 107l-12 10zM37 85l-11 11z
M101 74l-11 11zM15 74l11 -11zM358 63l-10 11zM15 53l-10 10zM90 53l-10 10zM305 53l-10 10zM369 53l-11 10zM80 42l-11 11zM15 31l-10 11zM69 20l-11 11zM315 20l-10 11zM358 20l11 -10zM139 795l-9 9zM149 804q9 0 0 -9q-9 0 0 9zM168 795l-10 9zM130 785l-9 10zM156 749
q-5 -11 -14 -34.5t-14.5 -35.5t-17 -27.5t-26.5 -24.5l-2 1q-10 33 0 75t27 66q13 18 35 18q46 7 99 -35q45 -34 63 -85q-11 -4 -22 -4.5t-20.5 3t-17 6.5t-16.5 11t-13.5 12.5l-14 14l-12.5 12.5q-17 17 -34 27zM175 786l-9 10zM119 777l-10 9zM194 777l-9 9zM213 768
l-10 9zM109 759l-9 9zM231 759l-9 9zM166 740l-10 9zM240 749l10 -9zM156 731l-9 9zM175 731l-9 9zM175 740l10 -9zM91 731l9 -10zM185 731l9 -10zM194 731l9 -10zM259 731l9 -10zM203 721l10 -9zM268 721l10 -9zM91 702l-9 10zM147 693l-10 9zM222 702l9 -9zM296 693l-9 9z
M306 683l-10 10zM82 674l-10 9zM137 674l-9 9zM128 665l-9 9zM259 665l-9 9zM72 655l-9 10zM128 655l-9 10zM306 655l-10 10zM72 646l-9 9zM119 646l-10 9zM72 637l-9 9zM119 637l-10 9zM82 628l-10 9zM100 628l-9 9zM109 628l-9 9z" />
    <glyph glyph-name="Atilde" unicode="&#xc3;" horiz-adv-x="402" 
d="M175 613l-11 10zM200 148q-14 0 -45.5 -3t-43.5 -3l-3 -3q0 -47 -32 -97q-5 -5 -12.5 -9t-15.5 -6t-15.5 2t-10.5 14q-8 11 12 50l8 15q12 25 12 42q13 46 27 86l30 84q35 92 49 170v35q0 17 1 30.5t5 30t13.5 23t24.5 0.5q16 -5 27.5 -19t16 -28.5t11 -37t11.5 -33.5
q4 -20 10.5 -38t17 -42t14.5 -33q18 -47 22 -69q10 -59 10 -111v-39q0 -13 6 -32l6 -20q12 -40 12 -60q0 -19 -12 -26q-10 -11 -34 13l-9 10q-3 6 -10.5 34.5t-20.5 41.5q-21 28 -82 28zM216 620l11 -10zM237 588l-10 11zM237 578l10 -11zM259 525l-12 10zM259 503l10 -11z
M161 460l-10 10zM280 449l-11 11zM227 438l-11 11zM140 438l11 -11zM216 438q-11 -11 0 -11q11 11 0 11zM290 427l-10 11zM289 192q0 70 -15.5 125t-46.5 110h-23q-22 -87 -87 -235h172zM236 416l-10 11zM289 416l12 -10zM192 406l12 -11zM246 395l-10 11zM311 395l-10 11z
M129 384l10 -10zM246 384l12 -10zM192 363l-10 11zM311 374l10 -11zM182 363l10 -10zM268 353l-10 10zM129 341l-12 12zM321 353l11 -12zM171 341l11 -10zM279 331l-11 10zM107 331l10 -11zM171 331l11 -11zM171 310l-11 10zM342 310l-10 10zM96 310l11 -10zM160 310l11 -10
zM279 310l10 -10zM150 300l10 -12zM160 278l-10 10zM96 267l-10 11zM75 267l11 -10zM139 267l11 -10zM150 245l-11 12zM64 245l11 -10zM129 235l10 -10zM129 203l-12 11zM64 150l-10 10zM117 129l-10 10zM354 117l-12 12zM43 117l11 -10zM301 107l-12 10zM43 85l-11 11z
M107 74l-11 11zM21 74l11 -11zM364 63l-10 11zM21 53l-10 10zM96 53l-10 10zM311 53l-10 10zM375 53l-11 10zM86 42l-11 11zM21 31l-10 11zM75 20l-11 11zM321 20l-10 11zM364 20l11 -10zM56 769l8 -8zM28 680q-11 45 22 70.5t82 18.5q22 -5 53 -26t42 -26q5 -2 15 -7.5
t18.5 -9t18.5 -3.5q12 0 27 6t19 13q0 1 2 5t3 6.5t4 7t5 6t5.5 5t6 2t6.5 -1.5q13 -7 13 -22.5t-7 -29t-15 -21.5q-21 -15 -49 -18t-53 9q-17 7 -56 31t-64 31q-23 6 -42 -3q-16 -4 -28 -18q-11 -13 -29 -24zM138 768l7 -8zM50 760l7 -7zM152 760l8 -7zM343 760q15 0 22 -7
q-11 0 -13 0.5t-9 6.5zM41 753l8 -7zM166 753l7 -7zM335 753l7 -7zM364 753l7 -7zM34 746l7 -8zM27 738l7 -7zM196 731l-8 7zM78 731l7 -8zM196 731l7 -8zM328 731l7 -8zM19 723l8 -7zM64 723l7 -7zM210 723l8 -7zM56 716l8 -7zM151 716l8 -7zM232 709l-8 7zM12 709l7 -7z
M56 709l8 -7zM159 709l7 -7zM246 702l-7 7zM320 709l8 -7zM364 709l7 -7zM12 702l7 -7zM49 702l7 -7zM261 695l-7 7zM313 695l-8 7zM12 695l7 -8zM49 695l7 -8zM181 695l7 -8zM188 695l8 -8zM19 687l8 -7zM34 687l7 -7zM41 687l8 -7zM196 687l7 -7zM203 687l7 -7zM357 687
l7 -7zM210 680l8 -7zM218 680l6 -7zM350 680l7 -7zM224 673l8 -8zM342 673l8 -8zM328 665l7 -7z" />
    <glyph glyph-name="Adieresis" unicode="&#xc4;" 
d="M281 613l-11 10zM306 148q-14 0 -45.5 -3t-43.5 -3l-3 -3q0 -47 -32 -97q-5 -5 -12.5 -9t-15.5 -6t-15.5 2t-10.5 14q-8 11 12 50l8 15q12 25 12 42q13 46 27 86l30 84q35 92 49 170v35q0 17 1 30.5t5 30t13.5 23t24.5 0.5q16 -5 27.5 -19t16 -28.5t11 -37t11.5 -33.5
q4 -20 10.5 -38t17 -42t14.5 -33q18 -47 22 -69q10 -59 10 -111v-39q0 -13 6 -32l6 -20q12 -40 12 -60q0 -19 -12 -26q-10 -11 -34 13l-9 10q-3 6 -10.5 34.5t-20.5 41.5q-21 28 -82 28zM322 620l11 -10zM343 588l-10 11zM343 578l10 -11zM365 525l-12 10zM365 503l10 -11z
M267 460l-10 10zM386 449l-11 11zM333 438l-11 11zM246 438l11 -11zM322 438q-11 -11 0 -11q11 11 0 11zM396 427l-10 11zM395 192q0 70 -15.5 125t-46.5 110h-23q-22 -87 -87 -235h172zM342 416l-10 11zM395 416l12 -10zM298 406l12 -11zM352 395l-10 11zM417 395l-10 11z
M235 384l10 -10zM352 384l12 -10zM298 363l-10 11zM417 374l10 -11zM288 363l10 -10zM374 353l-10 10zM235 341l-12 12zM427 353l11 -12zM277 341l11 -10zM385 331l-11 10zM213 331l10 -11zM277 331l11 -11zM277 310l-11 10zM448 310l-10 10zM202 310l11 -10zM266 310
l11 -10zM385 310l10 -10zM256 300l10 -12zM266 278l-10 10zM202 267l-10 11zM181 267l11 -10zM245 267l11 -10zM256 245l-11 12zM170 245l11 -10zM235 235l10 -10zM235 203l-12 11zM170 150l-10 10zM223 129l-10 10zM460 117l-12 12zM149 117l11 -10zM407 107l-12 10z
M149 85l-11 11zM213 74l-11 11zM127 74l11 -11zM470 63l-10 11zM127 53l-10 10zM202 53l-10 10zM417 53l-10 10zM481 53l-11 10zM192 42l-11 11zM127 31l-10 11zM181 20l-11 11zM427 20l-10 11zM470 20l11 -10zM337 831l-11 10zM337 831q23 6 36 -6t12.5 -32t-7.5 -40
q-9 -21 -29 -29q-21 -3 -35.5 6t-19 24t-2.5 31.5t14.5 29.5t30.5 16zM379 831l-11 10zM316 819l-11 12zM391 819l-12 12zM474 819l-11 12zM487 833q8 -4 0 -13q-5 -2 -6 0q-5 1 5 11zM498 821q18 0 28.5 -14.5t10.5 -34.5q0 -21 -11 -37t-29 -20q-22 0 -35.5 15t-13.5 38
t13.5 38t36.5 15zM529 821l-12 12zM305 810l-12 11zM463 810l-9 11zM539 810l-10 11zM293 801l-10 9zM454 801l-11 9zM454 747l-11 11zM293 735l-10 12zM391 735l-12 12zM539 735l-10 12zM379 725l-11 10zM463 725l-9 10zM529 715l-12 10z" />
    <glyph glyph-name="Aring" unicode="&#xc5;" 
d="M281 613l-11 10zM306 148q-14 0 -45.5 -3t-43.5 -3l-3 -3q0 -47 -32 -97q-5 -5 -12.5 -9t-15.5 -6t-15.5 2t-10.5 14q-8 11 12 50l8 15q12 25 12 42q13 46 27 86l30 84q35 92 49 170v35q0 17 1 30.5t5 30t13.5 23t24.5 0.5q16 -5 27.5 -19t16 -28.5t11 -37t11.5 -33.5
q4 -20 10.5 -38t17 -42t14.5 -33q18 -47 22 -69q10 -59 10 -111v-39q0 -13 6 -32l6 -20q12 -40 12 -60q0 -19 -12 -26q-10 -11 -34 13l-9 10q-3 6 -10.5 34.5t-20.5 41.5q-21 28 -82 28zM322 620l11 -10zM343 588l-10 11zM343 578l10 -11zM365 525l-12 10zM365 503l10 -11z
M267 460l-10 10zM386 449l-11 11zM333 438l-11 11zM246 438l11 -11zM322 438q-11 -11 0 -11q11 11 0 11zM396 427l-10 11zM395 192q0 70 -15.5 125t-46.5 110h-23q-22 -87 -87 -235h172zM342 416l-10 11zM395 416l12 -10zM298 406l12 -11zM352 395l-10 11zM417 395l-10 11z
M235 384l10 -10zM352 384l12 -10zM298 363l-10 11zM417 374l10 -11zM288 363l10 -10zM374 353l-10 10zM235 341l-12 12zM427 353l11 -12zM277 341l11 -10zM385 331l-11 10zM213 331l10 -11zM277 331l11 -11zM277 310l-11 10zM448 310l-10 10zM202 310l11 -10zM266 310
l11 -10zM385 310l10 -10zM256 300l10 -12zM266 278l-10 10zM202 267l-10 11zM181 267l11 -10zM245 267l11 -10zM256 245l-11 12zM170 245l11 -10zM235 235l10 -10zM235 203l-12 11zM170 150l-10 10zM223 129l-10 10zM460 117l-12 12zM149 117l11 -10zM407 107l-12 10z
M149 85l-11 11zM213 74l-11 11zM127 74l11 -11zM470 63l-10 11zM127 53l-10 10zM202 53l-10 10zM417 53l-10 10zM481 53l-11 10zM192 42l-11 11zM127 31l-10 11zM181 20l-11 11zM427 20l-10 11zM470 20l11 -10zM393 854l-9 10zM391 852q45 14 77 -14t30 -75q-4 -45 -49 -62
q-50 -21 -87.5 6t-30.5 80q7 47 62 67zM430 852l-10 10zM382 843l-10 9zM449 852q9 0 0 -9q-9 0 0 9zM363 833l-10 10zM477 833l-9 10zM353 824l-9 9zM496 814l-9 10zM344 805l-10 9zM401 814l10 -9zM412 812q-29 -25 -29 -66q31 -8 46.5 2.5t28.5 37.5l-47 28zM421 812
l10 -9zM507 803l-10 9zM392 803l10 -10zM335 784l-9 9zM450 793l9 -9zM383 784l9 -10zM373 764l10 -9zM450 764l9 -9zM373 755l10 -10zM507 745l-10 10zM392 745l10 -9zM431 745l9 -9zM507 736l-10 9zM497 726l-9 10zM335 717l-9 9zM497 717l-9 9zM488 707l-10 10zM478 698
l-9 9zM469 688l-10 10z" />
    <glyph glyph-name="AE" unicode="&#xc6;" horiz-adv-x="1666" 
d="M281 613l-11 10zM306 148q-14 0 -45.5 -3t-43.5 -3l-3 -3q0 -47 -32 -97q-5 -5 -12.5 -9t-15.5 -6t-15.5 2t-10.5 14q-8 11 12 50l8 15q12 25 12 42q13 46 27 86l30 84q35 92 49 170v35q0 17 1 30.5t5 30t13.5 23t24.5 0.5q16 -5 27.5 -19t16 -28.5t11 -37t11.5 -33.5
q4 -20 10.5 -38t17 -42t14.5 -33q18 -47 22 -69q10 -59 10 -111v-39q0 -13 6 -32l6 -20q12 -40 12 -60q0 -19 -12 -26q-10 -11 -34 13l-9 10q-3 6 -10.5 34.5t-20.5 41.5q-21 28 -82 28zM322 620l11 -10zM343 588l-10 11zM343 578l10 -11zM365 525l-12 10zM365 503l10 -11z
M267 460l-10 10zM386 449l-11 11zM333 438l-11 11zM246 438l11 -11zM322 438q-11 -11 0 -11q11 11 0 11zM396 427l-10 11zM395 192q0 70 -15.5 125t-46.5 110h-23q-22 -87 -87 -235h172zM342 416l-10 11zM395 416l12 -10zM298 406l12 -11zM352 395l-10 11zM407 406l10 -11z
M235 384l10 -10zM352 384l12 -10zM298 363l-10 11zM427 363l-10 11zM288 363l10 -10zM374 353l-10 10zM235 341l-12 12zM438 341l-11 12zM277 341l11 -10zM385 331l-11 10zM213 331l10 -11zM277 331l11 -11zM277 310l-11 10zM438 320l10 -10zM202 310l11 -10zM266 310
l11 -10zM385 310l10 -10zM256 300l10 -12zM266 278l-10 10zM202 267l-10 11zM181 267l11 -10zM245 267l11 -10zM256 245l-11 12zM170 245l11 -10zM235 235l10 -10zM235 203l-12 11zM170 150l-10 10zM223 129l-10 10zM448 129l12 -12zM149 117l11 -10zM407 107l-12 10z
M149 85l-11 11zM213 74l-11 11zM127 74l11 -11zM460 74l10 -11zM127 53l-10 10zM202 53l-10 10zM407 63l10 -10zM470 63l11 -10zM192 42l-11 11zM127 31l-10 11zM181 20l-11 11zM417 31l10 -11zM481 10l-11 10zM694 606l-12 13zM707 606l-13 13zM719 606l-12 13zM443 594
l-12 12zM733 9q-37 -16 -101 -16q-19 0 -56 2t-56 2h-10q-4 0 -12 -1t-12 -1h-12q-32 0 -45 16q-24 16 -27 52t5.5 90.5t8.5 71.5q-11 64 -11 179v59q0 75 13 114q17 17 33.5 21t53.5 4q20 0 57 2t57 2q66 0 114 -15q-21 -31 -58.5 -42.5t-95.5 -11.5q-18 0 -56.5 2.5
t-54.5 2.5v-151q24 0 77 4.5t82 3.5q50 -2 81.5 -15t49.5 -43q-55 -15 -145 -15q-25 0 -72.5 2t-72.5 2q9 -56 12.5 -91t1.5 -83.5t-14 -89.5q14 0 50.5 2.5t53.5 2.5q60 0 99.5 -11.5t60.5 -42.5zM733 586l-13 12zM419 561l-12 12zM733 561l-13 12zM733 548l-13 13z
M708 536l-13 12zM720 536l-12 12zM745 373l-12 12zM758 360l-13 13zM758 322l-13 13zM482 260l-13 12zM407 260l12 -13zM419 96l-12 13zM469 71l13 -12zM720 46l-12 13zM733 34l-13 12zM419 9l-12 12zM733 -4l-13 13z" />
    <glyph glyph-name="Ccedilla" unicode="&#xc7;" 
d="M279 600l11 -11zM446 544q-5 -5 -44 -5h-22q-73 0 -103 -30q-31 -20 -43.5 -53t-12.5 -86v-25q0 -112 22.5 -176.5t89.5 -90.5q13 -7 25 -8t22 4t17.5 11t18 15.5t16.5 14.5q14 11 35 6q29 -12 1 -75q-1 -3 -2 -4q-30 -40 -83 -40q-48 0 -92 25t-71 59
q-35 41 -50.5 113.5t-10.5 150t28 138.5q12 36 45.5 67t71.5 41q96 25 142 -52zM378 599l11 -11zM256 588l11 -11zM423 588l11 -11zM233 577l11 -11zM434 577l11 -11zM222 566l11 -11zM211 555l11 -12zM200 543l11 -11zM311 543l11 -11zM356 543l11 -11zM367 543l11 -11z
M434 543l11 -11zM278 532l11 -11zM189 521l11 -11zM267 521l11 -11zM256 510l11 -11zM177 499l12 -11zM244 488l12 -12zM233 465l11 -11zM166 454l11 -11zM222 443l11 -11zM222 432l11 -11zM222 209l11 -12zM166 186l11 -11zM233 175l11 -11zM177 164l12 -11zM244 153
l12 -11zM478 131q-16 0 -21 1.5t-12 9.5l-1 -1h8q16 0 26 -10zM188 130l11 -12zM255 130l11 -12zM433 130l11 -12zM478 130l11 -12zM266 118l11 -11zM422 118l11 -11zM199 107l11 -11zM288 107l11 -11zM411 85l11 -11zM478 85l11 -11zM321 74l12 -11zM266 51l11 -11zM467 51
l11 -11zM288 29l-11 11zM455 40l12 -11zM444 18l11 -11zM353 20q5 -2 13 -6.5t11 -6.5q4 -1 8 -3.5t7 -4.5q-4 2 -11 4.5t-11 4t-9 5t-8 7.5zM340 7l12 -11zM502 -125q0 -9 -18 -13q-35 -8 -65 0t-52 25q-16 12 -25 27t-8 33.5t16 36.5q25 32 42 -15q8 -23 8 -46h50
q23 -10 43 -30q9 -9 9 -18zM483 -76l12 -13zM495 -89l13 -12zM337 -101l12 -12zM495 -137l13 -13z" />
    <glyph glyph-name="Egrave" unicode="&#xc8;" 
d="M245 797l13 7zM248 807l12 7zM251 816l13 7zM253 785q4 -1 5 -1.5l3 -1.5t2 -1.5t1.5 -3.5t2.5 -6zM406 664q-44 2 -82 35t-51 73q-9 29 3 56q78 -69 109 -115q16 -24 23 -48zM263 821l11 6zM263 759l13 7zM281 815l12 6zM270 747l12 6zM290 813l12 5zM296 800l12 7z
M295 729l11 6zM312 785l12 6zM318 772l13 7zM310 715l12 6zM328 770l11 6zM333 758l13 6zM325 700l13 6zM343 755l12 6zM332 687l12 6zM349 743l13 6zM359 740l12 7zM347 673l13 5zM374 724l12 7zM363 658l12 6zM380 712l12 8zM372 654l13 7zM386 701l13 5zM381 652l13 7z
M396 698l12 6zM394 659l12 5zM399 677l13 5zM403 686l12 6zM424 620l12 -13zM436 620l13 -13zM449 620l12 -13zM173 607l12 -12zM475 10q-37 -16 -101 -16q-19 0 -56 2t-56 2h-11q-3 0 -11 -1t-12 -1h-12q-32 0 -45 16q-24 16 -27 52t5.5 90.5t8.5 71.5q-11 64 -11 179v59
q0 75 13 114q17 17 33.5 21t53.5 4q20 0 57 2t57 2q66 0 114 -15q-21 -31 -58.5 -42.5t-96.5 -11.5q-17 0 -55.5 2.5t-54.5 2.5v-151q24 0 77 4.5t82 3.5q50 -2 81.5 -15t49.5 -43q-55 -15 -145 -15q-25 0 -72.5 2t-72.5 2q9 -56 12.5 -91t1.5 -83.5t-14 -89.5
q14 0 50.5 2.5t52.5 2.5q61 0 100.5 -11.5t60.5 -42.5zM462 599l13 -12zM149 574l12 -12zM462 574l13 -12zM462 562l13 -13zM437 549l13 -12zM450 549l12 -12zM475 386l12 -12zM487 374l13 -13zM487 336l13 -13zM211 273l13 -12zM149 261l12 -13zM149 110l12 -13zM224 60
l-13 12zM450 60l12 -13zM462 47l13 -12zM149 22l12 -12zM462 10l13 -13z" />
    <glyph glyph-name="Eacute" unicode="&#xc9;" 
d="M437 609l-12 13zM450 609l-13 13zM462 609l-12 13zM186 597l-12 12zM476 12q-37 -16 -101 -16q-19 0 -56 2t-56 2h-11q-3 0 -11 -1t-12 -1h-12q-32 0 -45 16q-24 16 -27 52t5.5 90.5t8.5 71.5q-11 64 -11 179v59q0 75 13 114q17 17 33.5 21t53.5 4q20 0 57 2t57 2
q66 0 114 -15q-21 -31 -58.5 -42.5t-96.5 -11.5q-17 0 -55.5 2.5t-54.5 2.5v-151q24 0 77 4.5t82 3.5q50 -2 81.5 -15t49.5 -43q-55 -15 -145 -15q-25 0 -72.5 2t-72.5 2q9 -56 12.5 -91t1.5 -83.5t-14 -89.5q14 0 50.5 2.5t52.5 2.5q61 0 100.5 -11.5t60.5 -42.5zM476 589
l-13 12zM162 564l-12 12zM476 564l-13 12zM476 551l-13 13zM451 539l-13 12zM463 539l-12 12zM488 376l-12 12zM501 363l-13 13zM501 325l-13 13zM225 263l-13 12zM162 250l-12 13zM150 112l12 -13zM212 74l13 -12zM463 49l-12 13zM476 37l-13 12zM162 12l-12 12zM476 -1
l-13 13zM472 917q3 -10 7 -18l12 -30q5 -9 8 -21q-11 25 -18 39q-8 13 -9 30zM450 898l-1 23zM325 730q-19 0 -34 9q11 33 50 72l42 42q54 54 82 33q11 -8 8 -36q3 -40 -30.5 -68.5t-77.5 -44.5q-20 -7 -40 -7zM299 745l-1 22zM337 686l-2 23z" />
    <glyph glyph-name="Ecircumflex" unicode="&#xca;" 
d="M437 609l-12 13zM450 609l-13 13zM462 609l-12 13zM186 597l-12 12zM476 12q-37 -16 -101 -16q-19 0 -56 2t-56 2h-11q-3 0 -11 -1t-12 -1h-12q-32 0 -45 16q-24 16 -27 52t5.5 90.5t8.5 71.5q-11 64 -11 179v59q0 75 13 114q17 17 33.5 21t53.5 4q20 0 57 2t57 2
q66 0 114 -15q-21 -31 -58.5 -42.5t-96.5 -11.5q-17 0 -55.5 2.5t-54.5 2.5v-151q24 0 77 4.5t82 3.5q50 -2 81.5 -15t49.5 -43q-55 -15 -145 -15q-25 0 -72.5 2t-72.5 2q9 -56 12.5 -91t1.5 -83.5t-14 -89.5q14 0 50.5 2.5t52.5 2.5q61 0 100.5 -11.5t60.5 -42.5zM476 589
l-13 12zM162 564l-12 12zM476 564l-13 12zM476 551l-13 13zM451 539l-13 12zM463 539l-12 12zM488 376l-12 12zM501 363l-13 13zM501 325l-13 13zM225 263l-13 12zM162 250l-12 13zM150 112l12 -13zM212 74l13 -12zM463 49l-12 13zM476 37l-13 12zM162 12l-12 12zM476 -1
l-13 13zM370 880l-9 9zM380 889q9 0 0 -9q-9 0 0 9zM399 880l-10 9zM361 870l-9 10zM387 834q-5 -11 -14 -34.5t-14.5 -35.5t-17 -27.5t-26.5 -24.5l-2 1q-10 33 0 75t27 66q13 18 35 18q46 7 99 -35q45 -34 63 -85q-11 -4 -22 -4.5t-20.5 3t-17 6.5t-16.5 11t-13.5 12.5
l-14 14l-12.5 12.5q-17 17 -34 27zM406 871l-9 10zM350 862l-10 9zM425 862l-9 9zM444 853l-10 9zM340 844l-9 9zM462 844l-9 9zM397 825l-10 9zM471 834l10 -9zM387 816l-9 9zM406 816l-9 9zM406 825l10 -9zM322 816l9 -10zM416 816l9 -10zM425 816l9 -10zM490 816l9 -10z
M434 806l10 -9zM499 806l10 -9zM322 787l-9 10zM378 778l-10 9zM453 787l9 -9zM527 778l-9 9zM537 768l-10 10zM313 759l-10 9zM368 759l-9 9zM359 750l-9 9zM490 750l-9 9zM303 740l-9 10zM359 740l-9 10zM537 740l-10 10zM303 731l-9 9zM350 731l-10 9zM303 722l-9 9z
M350 722l-10 9zM313 713l-10 9zM331 713l-9 9zM340 713l-9 9z" />
    <glyph glyph-name="Edieresis" unicode="&#xcb;" 
d="M437 609l-12 13zM450 609l-13 13zM462 609l-12 13zM186 597l-12 12zM476 12q-37 -16 -101 -16q-19 0 -56 2t-56 2h-11q-3 0 -11 -1t-12 -1h-12q-32 0 -45 16q-24 16 -27 52t5.5 90.5t8.5 71.5q-11 64 -11 179v59q0 75 13 114q17 17 33.5 21t53.5 4q20 0 57 2t57 2
q66 0 114 -15q-21 -31 -58.5 -42.5t-96.5 -11.5q-17 0 -55.5 2.5t-54.5 2.5v-151q24 0 77 4.5t82 3.5q50 -2 81.5 -15t49.5 -43q-55 -15 -145 -15q-25 0 -72.5 2t-72.5 2q9 -56 12.5 -91t1.5 -83.5t-14 -89.5q14 0 50.5 2.5t52.5 2.5q61 0 100.5 -11.5t60.5 -42.5zM476 589
l-13 12zM162 564l-12 12zM476 564l-13 12zM476 551l-13 13zM451 539l-13 12zM463 539l-12 12zM488 376l-12 12zM501 363l-13 13zM501 325l-13 13zM225 263l-13 12zM162 250l-12 13zM150 112l12 -13zM212 74l13 -12zM463 49l-12 13zM476 37l-13 12zM162 12l-12 12zM476 -1
l-13 13zM342 826l-11 10zM342 826q23 6 36 -6t12.5 -32t-7.5 -40q-9 -21 -29 -29q-21 -3 -35.5 6t-19 24t-2.5 31.5t14.5 29.5t30.5 16zM384 826l-11 10zM321 814l-11 12zM396 814l-12 12zM479 814l-11 12zM492 828q8 -4 0 -13q-5 -2 -6 0q-5 1 5 11zM503 816
q18 0 28.5 -14.5t10.5 -34.5q0 -21 -11 -37t-29 -20q-22 0 -35.5 15t-13.5 38t13.5 38t36.5 15zM534 816l-12 12zM310 805l-12 11zM468 805l-9 11zM544 805l-10 11zM298 796l-10 9zM459 796l-11 9zM459 742l-11 11zM298 730l-10 12zM396 730l-12 12zM544 730l-10 12z
M384 720l-11 10zM468 720l-9 10zM534 710l-12 10z" />
    <glyph glyph-name="Igrave" unicode="&#xcc;" 
d="M268 815l14 4zM273 824l14 5zM278 834l13 4zM273 801q8 -3 14 -19zM418 648q-41 14 -58 27q-16 13 -30.5 30.5t-27 42t-12 47.5t14.5 47q9 -13 32.5 -42t36 -46.5t26 -46.5t18.5 -59zM288 839l15 5zM280 774l14 4zM307 830l15 5zM285 760l13 5zM317 825l14 5zM321 812
l14 4zM308 737l13 4zM335 792l14 6zM340 779l14 4zM322 719l14 4zM350 774l13 5zM354 761l14 4zM335 700l15 5zM363 756l15 5zM341 686l13 5zM368 742l14 5zM377 737l15 5zM355 667l14 5zM392 719l13 5zM368 649l15 4zM396 705l14 5zM378 644l14 5zM401 691l14 4zM387 640
l14 4zM410 686l14 5zM401 644l14 5zM411 663l14 5zM416 673l13 4zM184 628l13 -12zM196 62q26 14 76 14h23v491l-3 1h-31q-71 0 -76 20q-2 6 7 15q11 22 65 22h21q10 0 56 3t57 0q33 -4 53 -15t32 -36q-34 -13 -93 -13h-28v-491h18q81 0 105 -50q-38 -15 -100 -15
q-19 0 -54.5 2t-54.5 2q-15 0 -30 1t-34 4.5t-28.5 11.5t-4.5 19q6 14 24 14zM452 629l11 -12zM170 617l11 -12zM463 617l13 -12zM170 592l11 -11zM463 581l13 -13zM170 77l11 -13zM452 77l11 -13zM157 64l13 -11zM463 64l13 -11zM157 40l13 -12zM463 28l13 -12z" />
    <glyph glyph-name="Iacute" unicode="&#xcd;" horiz-adv-x="350" 
d="M36 627l13 -12zM48 61q26 14 76 14h23v491l-3 1h-31q-71 0 -76 20q-2 6 7 15q11 22 65 22h21q10 0 56 3t57 0q63 -7 85 -51q-34 -13 -92 -13h-29v-491h18q81 0 105 -50q-38 -15 -100 -15q-19 0 -54.5 2t-54.5 2q-15 0 -30 1t-34 4.5t-28.5 11.5t-4.5 19q6 14 24 14z
M304 628l11 -12zM22 616l11 -12zM315 616l13 -12zM22 591l11 -11zM315 580l13 -13zM22 76l11 -13zM304 76l11 -13zM9 63l13 -11zM315 63l13 -11zM9 39l13 -12zM315 27l13 -12zM281 855q3 -10 7 -18l12 -30q5 -9 8 -21q-11 25 -18 39q-8 13 -9 30zM259 836l-1 23zM134 668
q-19 0 -34 9q11 33 50 72l42 42q54 54 82 33q11 -8 8 -36q3 -40 -30.5 -68.5t-77.5 -44.5q-20 -7 -40 -7zM108 683l-1 22zM146 624l-2 23z" />
    <glyph glyph-name="Icircumflex" unicode="&#xce;" horiz-adv-x="344" 
d="M33 627l13 -12zM45 61q26 14 76 14h23v491l-3 1h-31q-71 0 -76 20q-2 6 7 15q11 22 65 22h21q10 0 56 3t57 0q63 -7 85 -51q-34 -13 -93 -13h-28v-491h18q81 0 105 -50q-38 -15 -100 -15q-19 0 -54.5 2t-54.5 2q-15 0 -30 1t-34 4.5t-28.5 11.5t-4.5 19q6 14 24 14z
M301 628l11 -12zM19 616l11 -12zM312 616l13 -12zM19 591l11 -11zM312 580l13 -13zM19 76l11 -13zM301 76l11 -13zM6 63l13 -11zM312 63l13 -11zM6 39l13 -12zM312 27l13 -12zM121 820l-9 9zM131 829q9 0 0 -9q-9 0 0 9zM150 820l-10 9zM112 810l-9 10zM138 774
q-5 -11 -14 -34.5t-14.5 -35.5t-17 -27.5t-26.5 -24.5l-2 1q-10 33 0 75t27 66q13 18 35 18q46 7 99 -35q45 -34 63 -85q-11 -4 -22 -4.5t-20.5 3t-17 6.5t-16.5 11t-13.5 12.5l-14 14l-12.5 12.5q-17 17 -34 27zM157 811l-9 10zM101 802l-10 9zM176 802l-9 9zM195 793
l-10 9zM91 784l-9 9zM213 784l-9 9zM148 765l-10 9zM222 774l10 -9zM138 756l-9 9zM157 756l-9 9zM157 765l10 -9zM73 756l9 -10zM167 756l9 -10zM176 756l9 -10zM241 756l9 -10zM185 746l10 -9zM250 746l10 -9zM73 727l-9 10zM129 718l-10 9zM204 727l9 -9zM278 718l-9 9z
M288 708l-10 10zM64 699l-10 9zM119 699l-9 9zM110 690l-9 9zM241 690l-9 9zM54 680l-9 10zM110 680l-9 10zM288 680l-10 10zM54 671l-9 9zM101 671l-10 9zM54 662l-9 9zM101 662l-10 9zM64 653l-10 9zM82 653l-9 9zM91 653l-9 9z" />
    <glyph glyph-name="Idieresis" unicode="&#xcf;" horiz-adv-x="363" 
d="M38 627l13 -12zM50 61q26 14 76 14h23v491l-3 1h-31q-71 0 -76 20q-2 6 7 15q11 22 65 22h21q10 0 56 3t57 0q33 -4 53 -15t32 -36q-34 -13 -93 -13h-28v-491h18q81 0 105 -50q-38 -15 -100 -15q-19 0 -54.5 2t-54.5 2q-15 0 -30 1t-34 4.5t-28.5 11.5t-4.5 19
q6 14 24 14zM306 628l11 -12zM24 616l11 -12zM317 616l13 -12zM24 591l11 -11zM317 580l13 -13zM24 76l11 -13zM306 76l11 -13zM11 63l13 -11zM317 63l13 -11zM11 39l13 -12zM317 27l13 -12zM93 784l-11 10zM93 784q23 6 36 -6t12.5 -32t-7.5 -40q-9 -21 -29 -29
q-21 -3 -35.5 6t-19 24t-2.5 31.5t14.5 29.5t30.5 16zM135 784l-11 10zM72 772l-11 12zM147 772l-12 12zM230 772l-11 12zM243 786q8 -4 0 -13q-5 -2 -6 0q-5 1 5 11zM254 774q18 0 28.5 -14.5t10.5 -34.5q0 -21 -11 -37t-29 -20q-22 0 -35.5 15t-13.5 38t13.5 38t36.5 15z
M285 774l-12 12zM61 763l-12 11zM219 763l-9 11zM295 763l-10 11zM49 754l-10 9zM210 754l-11 9zM210 700l-11 11zM49 688l-10 12zM147 688l-12 12zM295 688l-10 12zM135 678l-11 10zM219 678l-9 10zM285 668l-12 10z" />
    <glyph glyph-name="Eth" unicode="&#xd0;" horiz-adv-x="478" 
d="M57 606q10 0 0 -10q-12 0 0 10zM76 606q10 0 0 -10q-10 0 0 10zM32 90q0 3 1 11t1 12v210q0 20 -2.5 64.5t-3 73t5.5 62t20 53.5q12 17 33 20l-2 -4q85 15 175 -85q78 -88 106 -177v-173q0 -72 -28.5 -107.5t-95.5 -35.5h-23q-19 0 -55.5 3t-55.5 3q-53 0 -63 22
q-13 11 -13 37v11zM117 602l10 -10zM33 592l11 -11zM148 592l11 -11zM169 581l11 -10zM190 571l10 -11zM210 560l11 -9zM84 68q15 0 50.5 -3t52.5 -3q108 0 124 73l4 18q1 7 1 56v16q0 124 -62 205.5t-169 120.5zM231 550l10 -11zM241 539l11 -10zM252 518l10 -10zM262 508
l11 -11zM209 487l11 -11zM273 487l10 -11zM283 466l11 -11zM231 455l10 -11zM294 455l10 -11zM304 444l11 -10zM241 434l11 -10zM315 434l9 -10zM324 414l11 -11zM335 403l10 -10zM283 382l11 -10zM345 372l11 -11zM294 361l10 -10zM356 351l10 -11zM304 330l11 -11z
M304 121l11 -11zM294 100l10 -11zM356 89l10 -10zM273 79l10 -11zM345 68l11 -9zM335 48l10 -10zM32 38l11 -11zM324 38l11 -11zM304 27l11 -10zM161 281l7 -8zM458 249q-37 -8 -81 -8h-104q-12 0 -29 -2t-26 -2t-29 3q-8 0 -16 7t-8 16q3 5 8 8t8.5 5t11 2.5t11.5 0.5h14
h13h10q15 0 55.5 3t58.5 3q76 0 98 -35zM443 280l8 -8zM158 272l8 -8zM451 272l7 -8zM158 257l8 -8zM451 249l7 -8z" />
    <glyph glyph-name="Ntilde" unicode="&#xd1;" horiz-adv-x="430" 
d="M312 220q0 27 6 89.5t6 89.5q0 21 -6 55t-6 55q0 9 -2 25t-2 25q0 35 17 60q10 19 27 12q16 -8 27 -27q18 -60 18 -159q0 -46 -8.5 -134t-8.5 -133q0 -11 1.5 -33.5t1.5 -34.5q0 -84 -44 -84q-31 0 -51 53l-6 16q-1 3 -4.5 12.5t-5.5 14.5q-29 56 -75.5 165.5
t-74.5 164.5q0 -58 7 -165t7 -165v-21q0 -43 -12 -68.5t-42 -32.5q-13 47 -19.5 115t-7.5 106t0 139t1 119v14q0 7 -1 22.5t-1 22.5q0 21 3 38t13.5 29.5t27.5 9.5q31 0 51 -53l6 -16l6 -15t5 -12q41 -74 75 -151q34 -80 75 -150zM134 589l-14 14zM148 562l-14 14zM161 534
l-13 14zM161 521l14 -14zM175 493l14 -13zM380 493l14 -13zM312 480l13 -14zM202 452l-13 14zM134 439l-14 13zM202 439l14 -14zM134 425l14 -14zM216 411l14 -13zM148 384l13 -14zM230 384l13 -14zM243 357l14 -14zM175 329l14 -14zM257 329l14 -14zM325 302l-13 13z
M189 302l13 -14zM271 288l13 -14zM202 274l14 -13zM394 261l-14 13zM298 247l-14 14zM216 247l14 -14zM298 233l14 -13zM134 206l-14 14zM52 206l13 -14zM230 206l13 -14zM243 179l14 -14zM257 137l14 -13zM271 110l13 -14zM284 69l14 -14zM298 42l14 -14zM79 14l-14 14z
M380 14l-13 14zM134 1l-14 13zM63 775l8 -8zM35 686q-11 45 22 70.5t82 18.5q22 -5 53 -26t42 -26q5 -2 15 -7.5t18.5 -9t18.5 -3.5q12 0 27 6t19 13q0 1 2 5t3 6.5t4 7t5 6t5.5 5t6 2t6.5 -1.5q13 -7 13 -22.5t-7 -29t-15 -21.5q-21 -15 -49 -18t-53 9q-17 7 -56 31t-64 31
q-23 6 -42 -3q-16 -4 -28 -18q-11 -13 -29 -24zM145 774l7 -8zM57 766l7 -7zM159 766l8 -7zM350 766q15 0 22 -7q-11 0 -13 0.5t-9 6.5zM48 759l8 -7zM173 759l7 -7zM342 759l7 -7zM371 759l7 -7zM41 752l7 -8zM34 744l7 -7zM203 737l-8 7zM85 737l7 -8zM203 737l7 -8z
M335 737l7 -8zM26 729l8 -7zM71 729l7 -7zM217 729l8 -7zM63 722l8 -7zM158 722l8 -7zM239 715l-8 7zM19 715l7 -7zM63 715l8 -7zM166 715l7 -7zM253 708l-7 7zM327 715l8 -7zM371 715l7 -7zM19 708l7 -7zM56 708l7 -7zM268 701l-7 7zM320 701l-8 7zM19 701l7 -8zM56 701
l7 -8zM188 701l7 -8zM195 701l8 -8zM26 693l8 -7zM41 693l7 -7zM48 693l8 -7zM203 693l7 -7zM210 693l7 -7zM364 693l7 -7zM217 686l8 -7zM225 686l6 -7zM357 686l7 -7zM231 679l8 -8zM349 679l8 -8zM335 671l7 -7z" />
    <glyph glyph-name="Ograve" unicode="&#xd2;" horiz-adv-x="400" 
d="M105 759l12 4zM109 767l12 4zM114 775l12 4zM107 747q7 -3 8.5 -5t4.5 -11l-12 16h-1zM227 606q-25 6 -48.5 27t-36.5 44q-15 25 -17.5 52t12.5 53q3 -4 16.5 -23t18 -26.5t14.5 -22.5t17 -27.5t13 -26.5q10 -24 11 -48v-2zM125 777l12 3zM114 720l13 4zM141 768l12 4z
M117 708l13 3zM148 764l13 3zM152 751l12 4zM137 687l13 3zM163 735l13 3zM168 722l12 4zM149 670l12 3zM176 718l12 3zM179 706l12 3zM160 653l13 4zM187 701l12 4zM164 641l12 3zM191 689l12 4zM198 685l13 3zM175 624l13 4zM209 667l13 5zM187 608l12 3zM213 655l12 4z
M195 603l12 4zM216 643l13 3zM203 599l12 4zM224 638l13 4zM215 603l12 3zM224 618l12 4zM228 626l12 4zM168 587l12 -12zM375 266q0 -69 -16 -122t-55.5 -88.5t-99.5 -39.5q-46 -3 -79.5 12t-53 41t-30.5 67.5t-14.5 81t-3.5 91.5v84q0 100 35 145q24 23 49.5 30t72.5 7
l-1 -5q39 4 69.5 -6.5t49.5 -29t33.5 -50t21.5 -60t14 -67.5q8 -46 8 -91zM228 582l12 -12zM83 570l12 -12zM264 570l12 -12zM70 558l13 -12zM288 558l12 -12zM58 546l12 -12zM300 546l11 -12zM46 534l12 -13zM311 521l13 -12zM34 509l12 -12zM106 485q2 2 5.5 5t4 4t2 3
t1.5 4.5v7.5zM177 511q-24 0 -47 -14q-31 -31 -52 -90q-11 -60 -7 -137.5t21 -126.5q19 -37 59 -56.5t87 -2.5q41 25 60 90t14.5 136t-26.5 125q-12 32 -41 54t-68 22zM246 492l12 -12zM330 480l-12 12zM89 468l12 -12zM330 468l12 -12zM16 456l12 -12zM270 456l12 -12z
M77 444l12 -12zM77 432l12 -12zM342 432l12 -12zM294 407l-12 13zM354 395l12 -12zM294 383l11 -12zM294 191l11 -12zM354 179l12 -13zM77 166l12 -12zM354 166l12 -12zM16 154l12 -12zM282 154l12 -12zM101 130l-12 12zM270 130l12 -12zM28 118l12 -12zM101 118l12 -12z
M342 118l12 -12zM258 106l12 -12zM40 94l12 -12zM125 94l12 -12zM246 94l12 -12zM330 94l12 -12zM149 82l12 -12zM222 82l12 -12zM318 82l12 -12zM64 57l13 -12zM305 57l13 -12zM294 45l11 -12zM258 33l12 -12zM270 33l12 -12zM234 21l12 -12zM246 21l12 -12z" />
    <glyph glyph-name="Oacute" unicode="&#xd3;" horiz-adv-x="412" 
d="M185 577l-12 12zM380 268q0 -107 -41.5 -176t-129.5 -74q-46 -3 -79.5 12t-53 41t-30.5 67.5t-14.5 81t-3.5 92.5v83q0 100 35 145q24 23 49.5 30t72.5 7l-1 -5q39 4 69.5 -6.5t49.5 -29t33.5 -50t21.5 -60t14 -67.5q8 -46 8 -91zM245 572l-12 12zM100 560l-12 12z
M281 560l-12 12zM88 548l-13 12zM305 548l-12 12zM75 536l-12 12zM316 536l-11 12zM63 523l-12 13zM329 511l-13 12zM51 499l-12 12zM111 487q2 2 5.5 5t4 4t2 3t1.5 4.5v7.5zM182 513q-24 0 -47 -14q-31 -31 -52 -90q-11 -60 -7 -137.5t21 -126.5q19 -37 59 -56.5t87 -2.5
q41 25 60 90t14.5 136t-26.5 125q-12 32 -41 54t-68 22zM251 494l12 -12zM323 494l12 -12zM94 470l12 -12zM347 458l-12 12zM33 446l-12 12zM275 458l12 -12zM82 446l12 -12zM82 434l12 -12zM359 422l-12 12zM299 409l-12 13zM371 385l-12 12zM299 385l11 -12zM299 193
l11 -12zM371 168l-12 13zM82 168l12 -12zM371 156l-12 12zM33 144l-12 12zM287 156l12 -12zM94 144l12 -12zM275 132l12 -12zM45 108l-12 12zM106 120l12 -12zM359 108l-12 12zM263 108l12 -12zM57 84l-12 12zM130 96l12 -12zM251 96l12 -12zM347 84l-12 12zM154 84l12 -12z
M227 84l12 -12zM335 72l-12 12zM82 47l-13 12zM323 47l-13 12zM310 35l-11 12zM275 23l-12 12zM287 23l-12 12zM251 11l-12 12zM263 11l-12 12zM264 808q3 -10 7 -18l12 -30q5 -9 8 -21q-11 25 -18 39q-8 13 -9 30zM242 789l-1 23zM117 621q-19 0 -34 9q11 33 50 72l42 42
q54 54 82 33q11 -8 8 -36q3 -40 -30.5 -68.5t-77.5 -44.5q-20 -7 -40 -7zM91 636l-1 22zM129 577l-2 23z" />
    <glyph glyph-name="Ocircumflex" unicode="&#xd4;" horiz-adv-x="405" 
d="M186 577l-12 12zM381 268q0 -107 -41.5 -176t-129.5 -74q-46 -3 -79.5 12t-53 41t-30.5 67.5t-14.5 81t-3.5 92.5v83q0 100 35 145q24 23 49.5 30t72.5 7l-1 -5q39 4 69.5 -6.5t49.5 -29t33.5 -50t21.5 -60t14 -67.5q8 -46 8 -91zM246 572l-12 12zM101 560l-12 12z
M282 560l-12 12zM89 548l-13 12zM306 548l-12 12zM76 536l-12 12zM317 536l-11 12zM64 523l-12 13zM330 511l-13 12zM52 499l-12 12zM112 487q2 2 5.5 5t4 4t2 3t1.5 4.5v7.5zM183 513q-24 0 -47 -14q-31 -31 -52 -90q-11 -60 -7 -137.5t21 -126.5q19 -37 59 -56.5t87 -2.5
q41 25 60 90t14.5 136t-26.5 125q-12 32 -41 54t-68 22zM252 494l12 -12zM324 494l12 -12zM95 470l12 -12zM348 458l-12 12zM34 446l-12 12zM276 458l12 -12zM83 446l12 -12zM83 434l12 -12zM360 422l-12 12zM300 409l-12 13zM372 385l-12 12zM300 385l11 -12zM300 193
l11 -12zM372 168l-12 13zM83 168l12 -12zM372 156l-12 12zM34 144l-12 12zM288 156l12 -12zM95 144l12 -12zM276 132l12 -12zM46 108l-12 12zM107 120l12 -12zM360 108l-12 12zM264 108l12 -12zM58 84l-12 12zM131 96l12 -12zM252 96l12 -12zM348 84l-12 12zM155 84l12 -12z
M228 84l12 -12zM336 72l-12 12zM83 47l-13 12zM324 47l-13 12zM311 35l-11 12zM276 23l-12 12zM288 23l-12 12zM252 11l-12 12zM264 11l-12 12zM117 771l-9 9zM127 780q9 0 0 -9q-9 0 0 9zM146 771l-10 9zM108 761l-9 10zM134 725q-5 -11 -14 -34.5t-14.5 -35.5t-17 -27.5
t-26.5 -24.5l-2 1q-10 33 0 75t27 66q13 18 35 18q46 7 99 -35q45 -34 63 -85q-11 -4 -22 -4.5t-20.5 3t-17 6.5t-16.5 11t-13.5 12.5l-14 14l-12.5 12.5q-17 17 -34 27zM153 762l-9 10zM97 753l-10 9zM172 753l-9 9zM191 744l-10 9zM87 735l-9 9zM209 735l-9 9zM144 716
l-10 9zM218 725l10 -9zM134 707l-9 9zM153 707l-9 9zM153 716l10 -9zM69 707l9 -10zM163 707l9 -10zM172 707l9 -10zM237 707l9 -10zM181 697l10 -9zM246 697l10 -9zM69 678l-9 10zM125 669l-10 9zM200 678l9 -9zM274 669l-9 9zM284 659l-10 10zM60 650l-10 9zM115 650l-9 9
zM106 641l-9 9zM237 641l-9 9zM50 631l-9 10zM106 631l-9 10zM284 631l-10 10zM50 622l-9 9zM97 622l-10 9zM50 613l-9 9zM97 613l-10 9zM60 604l-10 9zM78 604l-9 9zM87 604l-9 9z" />
    <glyph glyph-name="Otilde" unicode="&#xd5;" horiz-adv-x="418" 
d="M193 577l-12 12zM388 268q0 -107 -41.5 -176t-129.5 -74q-46 -3 -79.5 12t-53 41t-30.5 67.5t-14.5 81t-3.5 92.5v83q0 100 35 145q24 23 49.5 30t72.5 7l-1 -5q39 4 69.5 -6.5t49.5 -29t33.5 -50t21.5 -60t14 -67.5q8 -46 8 -91zM253 572l-12 12zM108 560l-12 12z
M289 560l-12 12zM96 548l-13 12zM313 548l-12 12zM83 536l-12 12zM324 536l-11 12zM71 523l-12 13zM337 511l-13 12zM59 499l-12 12zM119 487q2 2 5.5 5t4 4t2 3t1.5 4.5v7.5zM190 513q-24 0 -47 -14q-31 -31 -52 -90q-11 -60 -7 -137.5t21 -126.5q19 -37 59 -56.5t87 -2.5
q41 25 60 90t14.5 136t-26.5 125q-12 32 -41 54t-68 22zM259 494l12 -12zM331 494l12 -12zM102 470l12 -12zM355 458l-12 12zM41 446l-12 12zM283 458l12 -12zM90 446l12 -12zM90 434l12 -12zM367 422l-12 12zM307 409l-12 13zM379 385l-12 12zM307 385l11 -12zM307 193
l11 -12zM379 168l-12 13zM90 168l12 -12zM379 156l-12 12zM41 144l-12 12zM295 156l12 -12zM102 144l12 -12zM283 132l12 -12zM53 108l-12 12zM114 120l12 -12zM367 108l-12 12zM271 108l12 -12zM65 84l-12 12zM138 96l12 -12zM259 96l12 -12zM355 84l-12 12zM162 84l12 -12
zM235 84l12 -12zM343 72l-12 12zM90 47l-13 12zM331 47l-13 12zM318 35l-11 12zM283 23l-12 12zM295 23l-12 12zM259 11l-12 12zM271 11l-12 12zM47 713l8 -8zM19 624q-11 45 22 70.5t82 18.5q22 -5 53 -26t42 -26q5 -2 15 -7.5t18.5 -9t18.5 -3.5q12 0 27 6t19 13q0 1 2 5
t3 6.5t4 7t5 6t5.5 5t6 2t6.5 -1.5q13 -7 13 -22.5t-7 -29t-15 -21.5q-21 -15 -49 -18t-53 9q-17 7 -56 31t-64 31q-23 6 -42 -3q-16 -4 -28 -18q-11 -13 -29 -24zM129 712l7 -8zM41 704l7 -7zM143 704l8 -7zM334 704q15 0 22 -7q-11 0 -13 0.5t-9 6.5zM32 697l8 -7z
M157 697l7 -7zM326 697l7 -7zM355 697l7 -7zM25 690l7 -8zM18 682l7 -7zM187 675l-8 7zM69 675l7 -8zM187 675l7 -8zM319 675l7 -8zM10 667l8 -7zM55 667l7 -7zM201 667l8 -7zM47 660l8 -7zM142 660l8 -7zM223 653l-8 7zM3 653l7 -7zM47 653l8 -7zM150 653l7 -7zM237 646
l-7 7zM311 653l8 -7zM355 653l7 -7zM3 646l7 -7zM40 646l7 -7zM252 639l-7 7zM304 639l-8 7zM3 639l7 -8zM40 639l7 -8zM172 639l7 -8zM179 639l8 -8zM10 631l8 -7zM25 631l7 -7zM32 631l8 -7zM187 631l7 -7zM194 631l7 -7zM348 631l7 -7zM201 624l8 -7zM209 624l6 -7z
M341 624l7 -7zM215 617l8 -8zM333 617l8 -8zM319 609l7 -7z" />
    <glyph glyph-name="Odieresis" unicode="&#xd6;" horiz-adv-x="423" 
d="M92 769l-13 14zM93 769q24 8 38.5 0.5t20.5 -24.5t4 -37.5t-11 -38.5q-13 -26 -39 -37q-27 -3 -45.5 9t-23 31.5t-1.5 40.5t18 37t38 19h1zM148 769l-14 14zM67 755l-14 14zM161 755l-13 14zM270 755l-14 14zM284 769q12 0 0 -14q-14 0 0 14zM297 619q-28 0 -44.5 19.5
t-16.5 48.5t16.5 48.5t44.5 19.5v-1q24 0 38 -18t14 -44q0 -27 -14.5 -48t-37.5 -25zM338 754l-14 14zM53 740l-14 14zM256 740l-13 14zM352 740l-14 14zM39 727l-14 13zM243 727l-14 13zM243 659l-14 14zM39 646l-14 13zM161 646l-13 13zM352 646l-14 13zM148 632l-14 14z
M256 632l-13 14zM338 618l-14 14zM201 576l-12 12zM396 267q0 -69 -16 -122t-55.5 -88.5t-99.5 -39.5q-46 -3 -79.5 12t-53 41t-30.5 67.5t-14.5 81t-3.5 91.5v84q0 100 35 145q24 23 49.5 30t72.5 7l-1 -5q39 4 69.5 -6.5t49.5 -29t33.5 -50t21.5 -60t14 -67.5q8 -46 8 -91
zM261 571l-12 12zM116 559l-12 12zM297 559l-12 12zM104 547l-13 12zM321 547l-12 12zM91 535l-12 12zM332 535l-11 12zM79 522l-12 13zM345 510l-13 12zM67 498l-12 12zM127 486q2 2 5.5 5t4 4t2 3t1.5 4.5v7.5zM198 512q-24 0 -47 -14q-31 -31 -52 -90q-11 -60 -7 -137.5
t21 -126.5q19 -37 59 -56.5t87 -2.5q41 25 60 90t14.5 136t-26.5 125q-12 32 -41 54t-68 22zM267 493l12 -12zM339 493l12 -12zM110 469l12 -12zM363 457l-12 12zM49 445l-12 12zM291 457l12 -12zM98 445l12 -12zM98 433l12 -12zM375 421l-12 12zM315 408l-12 13zM387 384
l-12 12zM315 384l11 -12zM315 192l11 -12zM387 167l-12 13zM98 167l12 -12zM387 155l-12 12zM49 143l-12 12zM303 155l12 -12zM110 143l12 -12zM291 131l12 -12zM61 107l-12 12zM122 119l12 -12zM375 107l-12 12zM279 107l12 -12zM73 83l-12 12zM146 95l12 -12zM267 95
l12 -12zM363 83l-12 12zM170 83l12 -12zM243 83l12 -12zM351 71l-12 12zM98 46l-13 12zM339 46l-13 12zM326 34l-11 12zM291 22l-12 12zM303 22l-12 12zM267 10l-12 12zM279 10l-12 12z" />
    <glyph glyph-name="multiply" unicode="&#xd7;" horiz-adv-x="464" 
d="M0 422q7 1 13.5 3.5t16 8.5t10.5 7q-20 -13 -39 -21zM21 406l-16 -4zM332 473q-8 -29 -24 -56t-41.5 -59t-34.5 -46q20 -14 58.5 -37.5t68 -45t50.5 -45.5q36 -43 20 -85q-51 17 -119 73l-57 48q-29 24 -57 45q-5 -7 -19.5 -27.5t-22.5 -31.5l-42 -58q-3 -12 -18 -22
t-27 -2q-10 8 -12.5 19t3.5 25.5t11 23t14 21.5q9 14 35 45.5t33 40.5l-4 -4q-7 5 -52 33.5t-63 48.5q-11 11 -9 29t19 18q21 0 62 -23q34 -20 62 -43l9 -6t8 -6q7 10 25.5 41.5t35 50t37.5 29.5q21 10 51 6zM53 142l-18 -1zM294 483l-16 -3zM55 126l-16 -3zM310 485l-16 -2
zM75 112l-17 -2zM340 465l-16 -4zM350 151l-16 -4zM414 178l-17 -4zM419 101l-17 -2zM455 133l-16 -2z" />
    <glyph glyph-name="Oslash" unicode="&#xd8;" horiz-adv-x="430" 
d="M197 577l-12 12zM392 268q0 -107 -41.5 -176t-129.5 -74q-46 -3 -79.5 12t-53 41t-30.5 67.5t-14.5 81t-3.5 92.5v83q0 100 35 145q24 23 49.5 30t72.5 7l-1 -5q39 4 69.5 -6.5t49.5 -29t33.5 -50t21.5 -60t14 -67.5q8 -46 8 -91zM257 572l-12 12zM112 560l-12 12z
M293 560l-12 12zM100 548l-13 12zM317 548l-12 12zM87 536l-12 12zM317 548l11 -12zM75 523l-12 13zM328 523l13 -12zM63 499l-12 12zM123 487q2 2 5.5 5t4 4t2 3t1.5 4.5v7.5zM194 513q-24 0 -47 -14q-31 -31 -52 -90q-11 -60 -7 -137.5t21 -126.5q19 -37 59 -56.5t87 -2.5
q41 25 60 90t14.5 136t-26.5 125q-12 32 -41 54t-68 22zM263 494l12 -12zM335 494l12 -12zM106 470l12 -12zM359 458l-12 12zM45 446l-12 12zM299 446l-12 12zM94 446l12 -12zM94 434l12 -12zM371 422l-12 12zM311 409l-12 13zM383 385l-12 12zM311 385l11 -12zM311 193
l11 -12zM383 168l-12 13zM94 168l12 -12zM383 156l-12 12zM45 144l-12 12zM299 156l12 -12zM106 144l12 -12zM287 132l12 -12zM57 108l-12 12zM130 108l-12 12zM371 108l-12 12zM275 108l12 -12zM69 84l-12 12zM142 96l12 -12zM263 96l12 -12zM359 84l-12 12zM166 84l12 -12
zM239 84l12 -12zM347 72l-12 12zM81 59l13 -12zM335 47l-13 12zM322 35l-11 12zM287 23l-12 12zM299 23l-12 12zM263 11l-12 12zM275 11l-12 12zM320 568l-13 13zM63 -41q-3 14 -3 28.5t1.5 25.5t5.5 23.5t7.5 21.5t9 22.5t8.5 21.5q18 48 40 99l34 81q43 100 85 179
q3 8 9.5 22.5t12.5 25t13 19.5q17 23 35 33.5t47 5.5q-13 -56 -38 -110t-63.5 -121t-53.5 -97q-44 -85 -63 -161q-11 -46 -29 -75t-53 -40zM290 552l12 -13zM365 527l-13 12zM352 527l13 -13zM277 514l13 -12zM265 502l12 -13zM352 489l-12 13zM265 477l-13 12zM327 477
l13 -13zM315 464l12 -14zM252 438l-13 12zM302 438l13 -13zM239 413l-12 12zM302 400l-12 13zM227 388l-13 12zM290 375l-13 13zM214 362l-12 13zM277 350l-12 12zM202 325l-13 12zM189 312l-12 13zM265 312l-13 13zM177 287l-14 13zM252 287l-13 13zM239 275l-12 12z
M163 249l-13 13zM227 237l-13 12zM150 223l-12 14zM138 211l-13 12zM214 211l-12 12zM125 186l-12 12zM202 186l-13 12zM189 173l-12 13zM100 148l13 -13zM177 123l-14 12zM88 123l12 -13zM163 98l-13 12zM150 98l13 -13zM88 73l-13 12zM75 60l-12 13zM138 60l12 -12z
M138 48l12 -13zM63 22l-13 13zM138 22l-13 13zM125 -16l-12 13zM63 -29l-13 13zM100 -29l13 -12z" />
    <glyph glyph-name="Ugrave" unicode="&#xd9;" horiz-adv-x="509" 
d="M191 817l12 4zM195 825l12 4zM200 833l12 4zM193 805q7 -3 8.5 -5t4.5 -11l-12 16h-1zM313 664q-25 6 -48.5 27t-36.5 44q-15 25 -17.5 52t12.5 53q3 -4 16.5 -23t18 -26.5t14.5 -22.5t17 -27.5t13 -26.5q10 -24 11 -48v-2zM211 835l12 3zM200 778l13 4zM227 826l12 4z
M203 766l13 3zM234 822l13 3zM238 809l12 4zM223 745l13 3zM249 793l13 3zM254 780l12 4zM235 728l12 3zM262 776l12 3zM265 764l12 3zM246 711l13 4zM273 759l12 4zM250 699l12 3zM277 747l12 4zM284 743l13 3zM261 682l13 4zM295 725l13 5zM273 666l12 3zM299 713l12 4z
M281 661l12 4zM302 701l13 3zM289 657l12 4zM310 696l13 4zM301 661l12 3zM310 676l12 4zM314 684l12 4zM71 604l14 -14zM84 584q17 7 28 1.5t17 -24.5t8.5 -37t2.5 -37v-15q-8 -38 -13 -63t-11.5 -67.5t-5.5 -73.5t5.5 -65t20 -59t39.5 -40q30 -18 80 -18q40 0 67 14.5
t41 42.5t20 60.5t6 76.5q0 22 -3 69.5t-3 67.5v13q0 20 0.5 30t2.5 27.5t6 26.5t12.5 17.5t21.5 11.5q11 2 19 -0.5t12.5 -9t7 -15.5t3.5 -19.5t1.5 -21.5t-0.5 -22v-13v-13q0 -46 -7 -129t-7 -129v-34q0 -64 -29 -93q-60 -39 -170.5 -36t-163.5 45q-26 19 -36 48
q-9 14 -14.5 30t-6.5 38t-1.5 36t3.5 43t5 37.5t7 41.5t6 34v24q0 7 -0.5 44t0 51t3 40.5t9.5 42.5t18 27zM384 527l15 -15zM56 512l14 -14zM127 470l14 -15zM41 313l15 -15zM113 298l14 -15zM113 283l14 -14zM456 226l14 -14zM470 198l-14 14zM384 155l-14 14zM370 127
l-14 14zM127 113l-14 14zM155 98l-14 15zM342 113l14 -15zM41 98l15 -14zM184 98l14 -14zM342 84l-15 14zM456 41l-15 15zM399 27l-15 14zM384 13l-14 14z" />
    <glyph glyph-name="Uacute" unicode="&#xda;" horiz-adv-x="489" 
d="M76 592l-14 14zM75 586q17 7 28 1.5t17 -24.5t8.5 -37t2.5 -37v-15q-13 -59 -19.5 -99t-10 -101t12.5 -104t52 -64q30 -18 80 -18q76 0 105 51t29 143q0 22 -3 69.5t-3 67.5v13q0 25 0.5 38t4.5 32t13.5 29t24.5 14q8 -1 14.5 0.5t11 -4.5t7.5 -8.5t5 -12t3.5 -14
t1.5 -15.5v-16v-16v-15v-13q0 -46 -7 -129t-7 -129v-34q0 -64 -29 -93q-60 -39 -170.5 -36t-163.5 45q-26 19 -36 48q-9 14 -14.5 30t-6.5 38t-1.5 36t3.5 43t5 37.5t7 41.5t6 34v24q0 7 -0.5 44t0 51t3 40.5t9.5 42.5t18 27zM390 514l-15 15zM61 500l-14 14zM132 457
l-14 15zM47 300l-15 15zM118 285l-14 15zM118 271l-14 14zM461 214l-14 14zM447 214l14 -14zM361 171l14 -14zM347 143l14 -14zM118 115l-14 14zM146 100l-14 15zM333 115l14 -15zM47 86l-15 14zM189 86l-14 14zM333 86l-15 14zM432 58l15 -15zM390 29l-15 14zM361 29
l14 -14zM362 833q3 -10 7 -18l12 -30q5 -9 8 -21q-11 25 -18 39q-8 13 -9 30zM340 814l-1 23zM215 646q-19 0 -34 9q11 33 50 72l42 42q54 54 82 33q11 -8 8 -36q3 -40 -30.5 -68.5t-77.5 -44.5q-20 -7 -40 -7zM189 661l-1 22zM227 602l-2 23z" />
    <glyph glyph-name="Ucircumflex" unicode="&#xdb;" horiz-adv-x="492" 
d="M78 592l-14 14zM77 586q17 7 28 1.5t17 -24.5t8.5 -37t2.5 -37v-15q-13 -59 -19.5 -99t-10 -101t12.5 -104t52 -64q30 -18 80 -18q76 0 105 51t29 143q0 22 -3 69.5t-3 67.5v13q0 25 0.5 38t4.5 32t13.5 29t24.5 14q8 -1 14.5 0.5t11 -4.5t7.5 -8.5t5 -12t3.5 -14
t1.5 -15.5v-16v-16v-15v-13q0 -46 -7 -129t-7 -129v-34q0 -64 -29 -93q-60 -39 -170.5 -36t-163.5 45q-26 19 -36 48q-9 14 -14.5 30t-6.5 38t-1.5 36t3.5 43t5 37.5t7 41.5t6 34v24q0 7 -0.5 44t0 51t3 40.5t9.5 42.5t18 27zM392 514l-15 15zM63 500l-14 14zM134 457
l-14 15zM49 300l-15 15zM120 285l-14 15zM120 271l-14 14zM463 214l-14 14zM449 214l14 -14zM363 171l14 -14zM349 143l14 -14zM120 115l-14 14zM148 100l-14 15zM335 115l14 -15zM49 86l-15 14zM191 86l-14 14zM335 86l-15 14zM434 58l15 -15zM392 29l-15 14zM363 29
l14 -14zM230 794l-9 9zM240 803q9 0 0 -9q-9 0 0 9zM259 794l-10 9zM221 784l-9 10zM247 748q-5 -11 -14 -34.5t-14.5 -35.5t-17 -27.5t-26.5 -24.5l-2 1q-10 33 0 75t27 66q13 18 35 18q46 7 99 -35q45 -34 63 -85q-11 -4 -22 -4.5t-20.5 3t-17 6.5t-16.5 11t-13.5 12.5
l-14 14l-12.5 12.5q-17 17 -34 27zM266 785l-9 10zM210 776l-10 9zM285 776l-9 9zM304 767l-10 9zM200 758l-9 9zM322 758l-9 9zM257 739l-10 9zM331 748l10 -9zM247 730l-9 9zM266 730l-9 9zM266 739l10 -9zM182 730l9 -10zM276 730l9 -10zM285 730l9 -10zM350 730l9 -10z
M294 720l10 -9zM359 720l10 -9zM182 701l-9 10zM238 692l-10 9zM313 701l9 -9zM387 692l-9 9zM397 682l-10 10zM173 673l-10 9zM228 673l-9 9zM219 664l-9 9zM350 664l-9 9zM163 654l-9 10zM219 654l-9 10zM397 654l-10 10zM163 645l-9 9zM210 645l-10 9zM163 636l-9 9z
M210 636l-10 9zM173 627l-10 9zM191 627l-9 9zM200 627l-9 9z" />
    <glyph glyph-name="Udieresis" unicode="&#xdc;" horiz-adv-x="497" 
d="M77 592l-14 14zM76 586q17 7 28 1.5t17 -24.5t8.5 -37t2.5 -37v-15q-13 -59 -19.5 -99t-10 -101t12.5 -104t52 -64q30 -18 80 -18q76 0 105 51t29 143q0 22 -3 69.5t-3 67.5v13q0 25 0.5 38t4.5 32t13.5 29t24.5 14q8 -1 14.5 0.5t11 -4.5t7.5 -8.5t5 -12t3.5 -14
t1.5 -15.5v-16v-16v-15v-13q0 -46 -7 -129t-7 -129v-34q0 -64 -29 -93q-60 -39 -170.5 -36t-163.5 45q-26 19 -36 48q-9 14 -14.5 30t-6.5 38t-1.5 36t3.5 43t5 37.5t7 41.5t6 34v24q0 7 -0.5 44t0 51t3 40.5t9.5 42.5t18 27zM391 514l-15 15zM62 500l-14 14zM133 457
l-14 15zM48 300l-15 15zM119 285l-14 15zM119 271l-14 14zM462 214l-14 14zM448 214l14 -14zM362 171l14 -14zM348 143l14 -14zM119 115l-14 14zM147 100l-14 15zM334 115l14 -15zM48 86l-15 14zM190 86l-14 14zM334 86l-15 14zM433 58l15 -15zM391 29l-15 14zM362 29
l14 -14zM190 749l-11 10zM190 749q23 6 36 -6t12.5 -32t-7.5 -40q-9 -21 -29 -29q-21 -3 -35.5 6t-19 24t-2.5 31.5t14.5 29.5t30.5 16zM232 749l-11 10zM169 737l-11 12zM244 737l-12 12zM327 737l-11 12zM340 751q8 -4 0 -13q-5 -2 -6 0q-5 1 5 11zM351 739
q18 0 28.5 -14.5t10.5 -34.5q0 -21 -11 -37t-29 -20q-22 0 -35.5 15t-13.5 38t13.5 38t36.5 15zM382 739l-12 12zM158 728l-12 11zM316 728l-9 11zM392 728l-10 11zM146 719l-10 9zM307 719l-11 9zM307 665l-11 11zM146 653l-10 12zM244 653l-12 12zM392 653l-10 12z
M232 643l-11 10zM316 643l-9 10zM382 633l-12 10z" />
    <glyph glyph-name="Yacute" unicode="&#xdd;" horiz-adv-x="417" 
d="M206 224q0 13 2 35t2 34q0 40 -16 69q-10 26 -27 47t-50 51t-38 35q-49 49 -63 85q39 5 71 -9t67 -40q42 -32 102 -116l-5 -3q9 17 26.5 53.5t32 63.5t31.5 49q13 13 31 13q21 0 21 -25q0 -30 -15 -65t-34 -61q-3 -7 -16.5 -32.5t-18 -35.5t-14.5 -34t-14 -40t-7.5 -39.5
t-3.5 -47.5q17 -101 11 -138q-8 -51 -49 -66q-26 122 -26 217zM10 589l13 -12zM61 589l12 -12zM327 589l13 -12zM86 577l13 -13zM111 551l-12 13zM10 551l13 -12zM314 551l13 -12zM390 551l13 -12zM302 539l12 -13zM378 539l12 -13zM390 513l-12 13zM175 501l-13 12z
M302 501l-13 12zM73 501l13 -13zM187 488l-12 13zM378 488l-13 13zM99 475l-13 13zM200 475l-13 13zM289 475l-13 13zM99 475l12 -12zM213 463l-13 12zM365 463l-13 12zM111 463l13 -13zM226 450l-13 13zM264 463l12 -13zM238 437l-12 13zM340 450l12 -13zM264 425l-13 12z
M162 412l-13 13zM251 412l-13 13zM327 425l13 -13zM327 386l-13 13zM187 374l13 -13zM302 374l12 -13zM302 336l-13 12zM200 336l13 -13zM276 336l13 -13zM276 310l-12 13zM200 285l13 -13zM264 247l12 -13zM264 196l12 -12zM200 171l13 -13zM213 32l13 -13zM276 6l-12 13z
M359 852q3 -10 7 -18l12 -30q5 -9 8 -21q-11 25 -18 39q-8 13 -9 30zM337 833l-1 23zM212 665q-19 0 -34 9q11 33 50 72l42 42q54 54 82 33q11 -8 8 -36q3 -40 -30.5 -68.5t-77.5 -44.5q-20 -7 -40 -7zM186 680l-1 22zM224 621l-2 23z" />
    <glyph glyph-name="Thorn" unicode="&#xde;" horiz-adv-x="435" 
d="M129 499l12 -13zM155 497q8 0 13.5 -1.5t13 -5.5t10.5 -5q-38 0 -51 14zM190 500q54 0 86.5 -7.5t63.5 -30.5q28 -28 47 -68.5t18.5 -88.5t-29.5 -83q-38 -47 -144 -47q-111 0 -181 56q-27 32 -27 89.5t24 95.5q17 29 40 42q12 12 28 18t39 11.5t35 9.5v3zM292 500
l12 -13zM89 487l12 -12zM317 487l13 -12zM76 475l13 -13zM330 475l12 -13zM63 462l13 -13zM342 462l13 -13zM355 449l13 -12zM51 437l12 -13zM139 437l13 -13zM152 437l13 -13zM244 238q21 0 46 5q29 13 40 39.5t1 63.5q-6 20 -15 40q-16 25 -46 40t-65 10q-20 -3 -40 -12
l-2 -5q-29 -6 -51.5 -33.5t-20.5 -59.5q1 -20 21 -33q13 -27 50 -41t82 -14zM36 419l13 -13zM112 419l13 -13zM366 419l12 -13zM112 406l13 -12zM378 406l13 -12zM23 381l13 -13zM99 381l13 -13zM315 381l13 -13zM391 381l13 -13zM87 368l12 -12zM87 356l12 -13zM87 292
l12 -13zM112 279l13 -12zM23 267l13 -13zM137 267l13 -13zM328 267l12 -13zM201 254l13 -13zM302 254l13 -13zM36 241l13 -12zM391 229l13 -13zM378 216l13 -13zM340 203l13 -12zM353 203l13 -12zM315 191l13 -13zM328 191l12 -13zM44 646l20 -10q9 -5 22.5 -11t23.5 -11
q-8 3 -19.5 7t-18 6.5t-14.5 7.5t-14 12v-1zM29 629l15 -15zM57 225q-30 93 -30 161q0 20 -3.5 61t-3.5 74.5t7 59.5l9.5 11.5t17 15.5t16.5 2q22 -4 32.5 -29.5t10.5 -57.5q0 -15 -2 -43t-2 -43q0 -39 20 -154q5 -34 7.5 -54t5.5 -54.5t0.5 -58t-8.5 -49t-20.5 -42.5
t-36.5 -25l-3 -3q-8 36 -12 77t-4.5 67t-0.5 84zM106 369l16 -17zM26 352l15 -16zM122 272l16 -17zM41 255l16 -16zM57 30l17 -17zM122 13l16 -16z" />
    <glyph glyph-name="germandbls" unicode="&#xdf;" 
 />
    <glyph glyph-name="agrave" unicode="&#xe0;" horiz-adv-x="396" 
d="M121 620l10 4zM125 628l11 3zM130 635l10 3zM123 610q1 -1 3.5 -2.5t3 -2t1.5 -2.5t1.5 -4l1.5 -6zM229 475q-4 2 -11.5 5.5t-11.5 5.5t-10.5 6t-11.5 9q-17 16 -30 38.5t-17 50.5t15 50q6 -11 28.5 -44.5t34 -60.5t14.5 -60zM138 639l13 2zM127 587l11 3zM153 630l12 3z
M129 575l13 3zM161 625l11 3zM164 614l11 2zM147 555l12 2zM173 597l12 4zM176 586l12 2zM156 538l12 4zM184 582l11 2zM186 570l11 3zM166 523l13 2zM193 566l12 2zM170 511l11 3zM197 554l10 3zM203 550l12 2zM179 495l12 2zM213 533l12 4zM189 478l12 3zM216 522l11 2z
M196 474l12 3zM219 510l11 3zM204 469l12 3zM226 506l12 3zM216 472l11 4zM225 487l10 3zM229 494l11 3zM300 475l13 -15zM274 121q-62 -13 -114 -13q-72 0 -106 27q-24 28 -24 71q0 89 57 159q26 32 57 43q18 9 40 10t38 -2t41 -10.5t35 -9.5q0 39 18 60q16 19 34 -8
q18 -16 11 -53l-6 -33q-3 -17 -3 -31q0 -22 5 -84t2 -97q-7 -116 -72 -133q-13 33 -13 75v29zM115 423l14 -14zM103 409l12 -13zM284 409l14 -13zM103 383l-13 13zM90 371l-13 12zM362 357l-13 14zM77 344l-14 13zM167 344l-13 13zM167 344q-32 -16 -49.5 -47t-8.5 -72
q7 -38 39 -48.5t69 10.5q18 10 24.5 36t2 53t-16.5 45q-25 37 -60 23zM125 342l13 -12zM227 330l-12 12zM59 317l-12 13zM125 330l13 -13zM111 317l14 -14zM34 303l13 -13zM111 303l14 -13zM99 290l12 -12zM99 278l12 -13zM34 226l-12 12zM86 226l13 -13zM99 200l-13 13z
M86 200l13 -14zM111 186l14 -13zM242 173l-15 13zM22 173l12 -12zM267 109l-13 13zM332 122l13 -13zM280 30l-13 15zM332 18l-13 12z" />
    <glyph glyph-name="aacute" unicode="&#xe1;" horiz-adv-x="388" 
d="M313 459l-13 15zM274 120q-62 -13 -114 -13q-72 0 -106 27q-24 28 -24 71q0 89 57 159q26 32 57 43q18 9 40 10t38 -2t41 -10.5t35 -9.5q0 39 18 60q16 19 34 -8q18 -16 11 -53l-6 -33q-3 -17 -3 -31q0 -22 5 -84t2 -97q-7 -116 -72 -133q-13 33 -13 76v28zM129 408
l-14 14zM115 395l-12 13zM298 395l-14 13zM90 395l13 -13zM77 382l13 -12zM349 370l13 -14zM63 356l14 -13zM167 343l-13 13zM167 343q-32 -16 -49.5 -47t-8.5 -72q7 -38 39 -48.5t69 10.5q18 10 24.5 36t2 53t-16.5 45q-25 37 -60 23zM125 341l13 -12zM227 329l-12 12z
M47 329l12 -13zM125 329l13 -13zM111 316l14 -14zM47 289l-13 13zM111 302l14 -13zM99 289l12 -12zM99 277l12 -13zM22 237l12 -12zM86 225l13 -13zM99 199l-13 13zM86 199l13 -14zM111 185l14 -13zM242 172l-15 13zM34 160l-12 12zM267 108l-13 13zM332 121l13 -13zM267 44
l13 -15zM319 29l13 -12zM322 676q3 -10 7 -18l12 -30q5 -9 8 -21q-11 25 -18 39q-8 13 -9 30zM300 657l-1 23zM175 489q-19 0 -34 9q11 33 50 72l42 42q54 54 82 33q11 -8 8 -36q3 -40 -30.5 -68.5t-77.5 -44.5q-20 -7 -40 -7zM149 504l-1 22zM187 445l-2 23z" />
    <glyph glyph-name="acircumflex" unicode="&#xe2;" horiz-adv-x="388" 
d="M311 459l-13 15zM272 120q-62 -13 -114 -13q-72 0 -106 27q-24 28 -24 71q0 89 57 159q26 32 57 43q18 9 40 10t38 -2t41 -10.5t35 -9.5q0 39 18 60q16 19 34 -8q18 -16 11 -53l-6 -33q-3 -17 -3 -31q0 -22 5 -84t2 -97q-7 -116 -72 -133q-13 33 -13 76v28zM127 408
l-14 14zM113 395l-12 13zM296 395l-14 13zM88 395l13 -13zM75 382l13 -12zM347 370l13 -14zM61 356l14 -13zM165 343l-13 13zM165 343q-32 -16 -49.5 -47t-8.5 -72q7 -38 39 -48.5t69 10.5q18 10 24.5 36t2 53t-16.5 45q-25 37 -60 23zM123 341l13 -12zM225 329l-12 12z
M45 329l12 -13zM123 329l13 -13zM109 316l14 -14zM45 289l-13 13zM109 302l14 -13zM97 289l12 -12zM97 277l12 -13zM20 237l12 -12zM84 225l13 -13zM97 199l-13 13zM84 199l13 -14zM109 185l14 -13zM240 172l-15 13zM32 160l-12 12zM265 108l-13 13zM330 121l13 -13zM265 44
l13 -15zM317 29l13 -12zM152 651l-9 9zM162 660q9 0 0 -9q-9 0 0 9zM181 651l-10 9zM143 641l-9 10zM169 605q-5 -11 -14 -34.5t-14.5 -35.5t-17 -27.5t-26.5 -24.5l-2 1q-10 33 0 75t27 66q13 18 35 18q46 7 99 -35q45 -34 63 -85q-11 -4 -22 -4.5t-20.5 3t-17 6.5
t-16.5 11t-13.5 12.5l-14 14l-12.5 12.5q-17 17 -34 27zM188 642l-9 10zM132 633l-10 9zM207 633l-9 9zM226 624l-10 9zM122 615l-9 9zM244 615l-9 9zM179 596l-10 9zM253 605l10 -9zM169 587l-9 9zM188 587l-9 9zM188 596l10 -9zM104 587l9 -10zM198 587l9 -10zM207 587
l9 -10zM272 587l9 -10zM216 577l10 -9zM281 577l10 -9zM104 558l-9 10zM160 549l-10 9zM235 558l9 -9zM309 549l-9 9zM319 539l-10 10zM95 530l-10 9zM150 530l-9 9zM141 521l-9 9zM272 521l-9 9zM85 511l-9 10zM141 511l-9 10zM319 511l-10 10zM85 502l-9 9zM132 502l-10 9
zM85 493l-9 9zM132 493l-10 9zM95 484l-10 9zM113 484l-9 9zM122 484l-9 9z" />
    <glyph glyph-name="atilde" unicode="&#xe3;" horiz-adv-x="405" 
d="M312 459l-13 15zM273 120q-62 -13 -114 -13q-72 0 -106 27q-24 28 -24 71q0 89 57 159q26 32 57 43q18 9 40 10t38 -2t41 -10.5t35 -9.5q0 39 18 60q16 19 34 -8q18 -16 11 -53l-6 -33q-3 -17 -3 -31q0 -22 5 -84t2 -97q-7 -116 -72 -133q-13 33 -13 76v28zM128 408
l-14 14zM114 395l-12 13zM297 395l-14 13zM89 395l13 -13zM76 382l13 -12zM348 370l13 -14zM62 356l14 -13zM166 343l-13 13zM166 343q-32 -16 -49.5 -47t-8.5 -72q7 -38 39 -48.5t69 10.5q18 10 24.5 36t2 53t-16.5 45q-25 37 -60 23zM124 341l13 -12zM226 329l-12 12z
M46 329l12 -13zM124 329l13 -13zM110 316l14 -14zM46 289l-13 13zM110 302l14 -13zM98 289l12 -12zM98 277l12 -13zM21 237l12 -12zM85 225l13 -13zM98 199l-13 13zM85 199l13 -14zM110 185l14 -13zM241 172l-15 13zM33 160l-12 12zM266 108l-13 13zM331 121l13 -13zM266 44
l13 -15zM318 29l13 -12zM60 609l8 -8zM32 520q-11 45 22 70.5t82 18.5q22 -5 53 -26t42 -26q5 -2 15 -7.5t18.5 -9t18.5 -3.5q12 0 27 6t18 13q1 1 3 5t3 6.5t4 7t5 6t5.5 5t6 2t6.5 -1.5q13 -7 13 -22.5t-7 -29t-15 -21.5q-21 -15 -49 -18t-53 9q-17 7 -56 31t-64 31
q-23 6 -42 -3q-16 -4 -28 -18q-11 -13 -29 -24zM142 608l7 -8zM54 600l7 -7zM156 600l8 -7zM347 600q15 0 22 -7q-14 0 -22 7zM45 593l8 -7zM170 593l7 -7zM339 593l7 -7zM368 593l7 -7zM38 586l7 -8zM31 578l7 -7zM200 571l-8 7zM82 571l7 -8zM200 571l7 -8zM332 571l7 -8z
M23 563l8 -7zM68 563l7 -7zM214 563l8 -7zM60 556l8 -7zM155 556l8 -7zM236 549l-8 7zM16 549l7 -7zM60 549l8 -7zM163 549l7 -7zM250 542l-7 7zM324 549l8 -7zM368 549l7 -7zM16 542l7 -7zM53 542l7 -7zM265 535l-7 7zM317 535l-8 7zM16 535l7 -8zM53 535l7 -8zM185 535
l7 -8zM192 535l8 -8zM23 527l8 -7zM38 527l7 -7zM45 527l8 -7zM200 527l7 -7zM207 527l7 -7zM361 527l7 -7zM214 520l8 -7zM222 520l6 -7zM354 520l7 -7zM228 513l8 -8zM346 513l8 -8zM332 505l7 -7z" />
    </font>
</defs>
</svg>
